<?xml version="1.0" encoding="UTF-8"?>
<svg xmlns="http://www.w3.org/2000/svg" viewBox="0 0 500 500">
  <defs>
    <style>
      .cls-1 {
        fill: #f6ffe9;
      }

      .cls-2 {
        font-family: Montserrat-Thin, Montserrat;
        font-size: 16.01px;
        font-variation-settings: 'wght' 100;
        font-weight: 200;
      }

      .cls-2, .cls-3, .cls-4 {
        fill: #fff;
      }

      .cls-3 {
        mix-blend-mode: overlay;
        opacity: .3;
      }

      .cls-5 {
        fill: #bcd4de;
      }

      .cls-5, .cls-6, .cls-7, .cls-8, .cls-9, .cls-10 {
        mix-blend-mode: multiply;
      }

      .cls-6 {
        fill: #b0cac9;
      }

      .cls-11 {
        fill: #235835;
      }

      .cls-12 {
        fill: #235834;
      }

      .cls-13 {
        fill: #d24771;
      }

      .cls-7 {
        fill: #2a6554;
      }

      .cls-14 {
        fill: #348350;
      }

      .cls-15 {
        isolation: isolate;
      }

      .cls-16, .cls-9 {
        fill: #6bada9;
      }

      .cls-17 {
        fill: #436b7e;
      }

      .cls-8, .cls-18 {
        fill: #d0efa6;
      }

      .cls-19 {
        fill: #3d8b2d;
      }

      .cls-20 {
        fill: #e1efcd;
      }

      .cls-21 {
        fill: #173a23;
      }

      .cls-22 {
        fill: #2f7547;
      }

      .cls-23 {
        letter-spacing: 0em;
      }

      .cls-24 {
        fill: #1d492c;
      }

      .cls-10 {
        fill: #253236;
      }
    </style>
  </defs>
  <g class="cls-15">
    <g id="BACKGROUND">
      <rect class="cls-4" width="500" height="500"/>
    </g>
    <g id="OBJECTS">
      <path class="cls-1" d="M405.85,355.76c-71.5,63.36-189.85,42.49-260.79-10.25-17.78-13.22-33.86-28.8-47.08-46.62-32.1-43.27-54.49-111.63-15.09-157.63,24.57-28.69,67.83-43.4,104.45-32.72,52.71,15.38,80.59,73.85,136.88,82.67,32.95,5.16,67.19-8.37,98.67,6.72,24.43,11.71,34.41,36.32,31.08,62.44-4.34,34-19,67-43.6,91.17-1.48,1.45-2.98,2.85-4.52,4.22Z"/>
      <g>
        <g>
          <rect class="cls-18" x="287.78" y="146.28" width="8.02" height="286.29" transform="translate(670.93 448.02) rotate(157.93)"/>
          <rect class="cls-13" x="339.73" y="413.71" width="10.51" height="12.75" rx="1" ry="1" transform="translate(822.52 679.78) rotate(157.93)"/>
          <rect class="cls-24" x="231.64" y="149.71" width="13.87" height="15.72" rx="3.12" ry="3.12" transform="translate(518.86 213.97) rotate(157.93)"/>
          <g>
            <polygon class="cls-20" points="159.47 146.82 160.09 146.57 160.19 146.53 160.81 146.28 151.66 118.23 149.13 119.26 149.04 119.3 146.51 120.32 159.47 146.82"/>
            <rect class="cls-20" x="157.03" y="116.97" width="1.14" height="28.79" transform="translate(-37.8 68.82) rotate(-22.06)"/>
            <polygon class="cls-20" points="165.76 144.27 166.38 144.02 166.48 143.98 167.1 143.73 157.95 115.68 155.42 116.71 155.33 116.75 152.8 117.77 165.76 144.27"/>
            <rect class="cls-20" x="163.32" y="114.42" width="1.14" height="28.79" transform="translate(-36.39 71.01) rotate(-22.07)"/>
            <polygon class="cls-20" points="172.05 141.72 172.67 141.47 172.77 141.43 173.39 141.18 164.24 113.13 161.72 114.16 161.62 114.2 159.09 115.22 172.05 141.72"/>
            <rect class="cls-20" x="169.61" y="111.87" width="1.14" height="28.79" transform="translate(-34.97 73.18) rotate(-22.07)"/>
            <polygon class="cls-20" points="178.34 139.17 178.96 138.92 179.06 138.88 179.68 138.63 170.53 110.58 168.01 111.61 167.91 111.65 165.38 112.67 178.34 139.17"/>
            <rect class="cls-20" x="175.9" y="109.32" width="1.14" height="28.79" transform="translate(-33.55 75.36) rotate(-22.07)"/>
            <polygon class="cls-20" points="184.63 136.62 185.25 136.37 185.35 136.33 185.97 136.08 176.82 108.03 174.3 109.06 174.2 109.1 171.67 110.12 184.63 136.62"/>
            <rect class="cls-20" x="182.19" y="106.77" width="1.14" height="28.79" transform="translate(-32.13 77.54) rotate(-22.07)"/>
            <polygon class="cls-20" points="190.93 134.07 191.54 133.82 191.64 133.78 192.26 133.53 183.11 105.48 180.59 106.51 180.49 106.55 177.96 107.57 190.93 134.07"/>
            <rect class="cls-20" x="188.48" y="104.22" width="1.14" height="28.79" transform="translate(-30.71 79.71) rotate(-22.07)"/>
            <polygon class="cls-20" points="197.22 131.52 197.84 131.27 197.93 131.23 198.55 130.98 189.4 102.93 186.88 103.96 186.78 104 184.25 105.02 197.22 131.52"/>
            <rect class="cls-20" x="194.77" y="101.67" width="1.14" height="28.79" transform="translate(-29.29 81.89) rotate(-22.07)"/>
            <polygon class="cls-20" points="203.51 128.97 204.13 128.72 204.22 128.68 204.84 128.43 195.7 100.38 193.17 101.41 193.07 101.45 190.54 102.47 203.51 128.97"/>
            <rect class="cls-20" x="201.06" y="99.12" width="1.14" height="28.79" transform="translate(-27.87 84.06) rotate(-22.07)"/>
            <polygon class="cls-20" points="209.8 126.42 210.42 126.17 210.51 126.13 211.13 125.88 201.99 97.83 199.46 98.86 199.36 98.9 196.83 99.92 209.8 126.42"/>
            <rect class="cls-20" x="207.35" y="96.57" width="1.14" height="28.79" transform="translate(-26.45 86.22) rotate(-22.06)"/>
            <polygon class="cls-20" points="216.09 123.87 216.71 123.62 216.8 123.58 217.42 123.33 208.28 95.28 205.75 96.31 205.65 96.35 203.12 97.37 216.09 123.87"/>
            <rect class="cls-20" x="213.64" y="94.02" width="1.14" height="28.79" transform="translate(-25.03 88.4) rotate(-22.06)"/>
            <polygon class="cls-20" points="222.38 121.32 223 121.07 223.09 121.03 223.71 120.78 214.57 92.73 212.04 93.76 211.94 93.8 209.41 94.82 222.38 121.32"/>
            <rect class="cls-20" x="219.93" y="91.47" width="1.14" height="28.79" transform="translate(-23.62 90.59) rotate(-22.07)"/>
            <polygon class="cls-20" points="228.67 118.77 229.29 118.52 229.38 118.48 230 118.23 220.86 90.18 218.33 91.21 218.23 91.25 215.71 92.27 228.67 118.77"/>
            <rect class="cls-20" x="226.22" y="88.92" width="1.14" height="28.79" transform="translate(-22.2 92.76) rotate(-22.06)"/>
            <polygon class="cls-20" points="234.96 116.22 235.58 115.97 235.67 115.93 236.29 115.68 227.15 87.63 224.62 88.66 224.52 88.7 222 89.72 234.96 116.22"/>
            <rect class="cls-20" x="232.51" y="86.37" width="1.14" height="28.79" transform="translate(-20.78 94.96) rotate(-22.07)"/>
            <polygon class="cls-20" points="241.25 113.67 241.87 113.42 241.97 113.38 242.58 113.13 233.44 85.08 230.91 86.11 230.81 86.15 228.29 87.17 241.25 113.67"/>
            <rect class="cls-20" x="238.8" y="83.82" width="1.14" height="28.79" transform="translate(-19.36 97.12) rotate(-22.07)"/>
            <polygon class="cls-20" points="247.54 111.12 248.16 110.87 248.26 110.83 248.87 110.58 239.73 82.53 237.2 83.56 237.1 83.6 234.58 84.62 247.54 111.12"/>
            <rect class="cls-20" x="245.09" y="81.27" width="1.14" height="28.79" transform="translate(-17.94 99.32) rotate(-22.07)"/>
            <polygon class="cls-20" points="253.83 108.57 254.45 108.32 254.55 108.28 255.17 108.03 246.02 79.98 243.49 81.01 243.4 81.05 240.87 82.07 253.83 108.57"/>
            <rect class="cls-20" x="251.39" y="78.72" width="1.14" height="28.79" transform="translate(-16.52 101.49) rotate(-22.07)"/>
            <polygon class="cls-20" points="260.12 106.02 260.74 105.77 260.84 105.73 261.46 105.48 252.31 77.43 249.78 78.46 249.69 78.5 247.16 79.52 260.12 106.02"/>
            <rect class="cls-20" x="257.68" y="76.17" width="1.14" height="28.79" transform="translate(-15.1 103.65) rotate(-22.07)"/>
            <polygon class="cls-20" points="266.41 103.47 267.03 103.22 267.13 103.18 267.75 102.93 258.6 74.88 256.07 75.91 255.98 75.95 253.45 76.97 266.41 103.47"/>
            <rect class="cls-20" x="263.97" y="73.62" width="1.14" height="28.79" transform="translate(-13.69 105.84) rotate(-22.07)"/>
            <polygon class="cls-20" points="272.7 100.92 273.32 100.67 273.42 100.63 274.04 100.38 264.89 72.33 262.36 73.36 262.27 73.4 259.74 74.42 272.7 100.92"/>
            <rect class="cls-20" x="270.26" y="71.07" width="1.14" height="28.79" transform="translate(-12.27 108.03) rotate(-22.07)"/>
            <polygon class="cls-20" points="278.99 98.37 279.61 98.12 279.71 98.08 280.33 97.83 271.18 69.78 268.65 70.81 268.56 70.85 266.03 71.87 278.99 98.37"/>
            <rect class="cls-20" x="276.55" y="68.52" width="1.14" height="28.79" transform="translate(-10.85 110.17) rotate(-22.06)"/>
            <polygon class="cls-20" points="285.28 95.82 285.9 95.57 286 95.53 286.62 95.28 277.47 67.23 274.94 68.26 274.85 68.3 272.32 69.32 285.28 95.82"/>
          </g>
          <path class="cls-14" d="M208.23,136.51h51.1c4.17,0,7.55,3.39,7.55,7.55v3.37c0,4.17-3.39,7.55-7.55,7.55h-51.1c-4.17,0-7.55-3.39-7.55-7.55v-3.37c0-4.17,3.39-7.55,7.55-7.55Z" transform="translate(505.2 193) rotate(157.93)"/>
          <path class="cls-21" d="M180.54,164.4c.76.75,1.88.97,2.86.58l49.96-20.25,49.96-20.25c.98-.4,1.63-1.34,1.65-2.4l.4-16.72c.05-1.93-1.89-3.3-3.67-2.57l-56.13,22.75-56.13,22.75c-1.78.72-2.22,3.05-.84,4.4l11.93,11.72Z"/>
          <path class="cls-14" d="M160.01,145.4l126.47-51.27c2.35-.95,5.03.18,5.99,2.53l.02.05c.95,2.35-.18,5.03-2.53,5.99l-126.47,51.27c-2.35.95-5.03-.18-5.99-2.53l-.02-.05c-.95-2.35.18-5.03,2.53-5.99Z"/>
        </g>
        <g>
          <path class="cls-12" d="M365.19,161.45h5.26v8.96h-5.26c-1.34,0-2.43-1.09-2.43-2.43v-4.1c0-1.34,1.09-2.43,2.43-2.43Z" transform="translate(50.03 -82.49) rotate(13.77)"/>
          <path class="cls-12" d="M368.36,173.57c-2.02,4.55-7.69,15.85-16.43,21.25-1.24.77-.96,2.64.46,2.99h0c.25.06.5.06.75,0,2.2-.49,13.17-3.68,22.05-19.69.39-.7.2-1.58-.42-2.07l-3.89-3.09c-.84-.67-2.08-.37-2.52.62Z"/>
          <path class="cls-16" d="M380.94,340.53l-58.32-14.29c-2.88-.71-4.66-3.6-3.97-6.49.47-1.98,1.04-4.44,1.7-7.24,2.65-11.32,6.53-28.2,9.19-41.2,4.4-21.52,15.7-26.87,18.36-29.4,2.64-2.53,5.3-19.27,9.01-29.08,3.7-9.81,9.01-11.98,9.01-11.98l26.65,6.53s2.59,43.36,2.13,57.83c-.57,17.65-7.07,70.29-7.07,70.29-.13,3.42-3.37,5.85-6.69,5.04Z"/>
          <path class="cls-9" d="M381.08,291.69c-4.12,16.82-16.58,28.22-27.84,25.46-11.25-2.76-17.03-18.63-12.91-35.45,4.12-16.82,16.58-28.22,27.84-25.46,11.25,2.76,17.03,18.63,12.91,35.45Z"/>
          <path class="cls-6" d="M380.94,340.53l-58.32-14.29c-2.88-.71-4.66-3.6-3.97-6.49.47-1.98,1.04-4.44,1.7-7.24,58.43-31.38,64.09-94.73,64.63-106.99l7.58,1.86s2.59,43.36,2.13,57.83c-.57,17.65-7.07,70.29-7.07,70.29-.13,3.42-3.37,5.85-6.69,5.04Z"/>
          <path class="cls-19" d="M389.24,203.73l3.14-12.82c.97-3.96,5.45-5.91,9.01-3.92l12.94,7.23c1.66.93,3.74.02,4.19-1.82l.44-1.79c.22-.91-.01-1.87-.63-2.58l-17.88-20.41c-.39-.45-.92-.77-1.5-.91l-26.38-6.46c-1.09-.27-2.19.4-2.45,1.49l-2.6,10.63c-.16.66.02,1.37.49,1.87l5.56,5.96-4.55,18.58,20.22,4.96Z"/>
          <rect class="cls-12" x="364.97" y="199.31" width="28.91" height="5.49" rx=".81" ry=".81" transform="translate(58.99 -84.5) rotate(13.77)"/>
          <path class="cls-3" d="M365.08,210.07c-4.79,9.94-7.59,20.33-8.59,31.31-.54,5.95,8.78,5.65,9.32-.27.84-9.22,3.39-18.17,7.41-26.5,2.6-5.38-5.53-9.95-8.14-4.54Z"/>
        </g>
        <g>
          <path class="cls-12" d="M125.53,262.08h5.81v8.96h-5.81c-1.39,0-2.53-1.13-2.53-2.53v-3.9c0-1.39,1.13-2.53,2.53-2.53Z" transform="translate(254.34 533.11) rotate(-180)"/>
          <path class="cls-12" d="M123.36,273.56c.95,4.9,4.01,17.23,11.82,24.55,1.11,1.04.33,2.79-1.25,2.79h0c-.28,0-.54-.06-.79-.17-2.2-1-12.92-6.71-18.14-24.38-.23-.77.19-1.58.98-1.92l4.9-2.08c1.06-.45,2.29.14,2.49,1.2Z"/>
          <path class="cls-16" d="M67.01,432.72h65.12c3.21,0,5.83-2.39,5.86-5.36.02-2.03.05-4.56.07-7.44.13-11.63.4-28.94.96-42.21.92-21.95-9.61-29.83-11.75-32.92-2.13-3.09-.61-19.98-1.98-30.39-1.37-10.41-6.4-13.78-6.4-13.78h-29.75s-13.92,41.5-17.17,55.66c-3.96,17.28-10.69,69.95-10.69,69.95-.74,3.35,2.04,6.49,5.74,6.49Z"/>
          <ellipse class="cls-9" cx="102.22" cy="385.26" rx="22.75" ry="31.36"/>
          <path class="cls-6" d="M67.01,432.72h65.12c3.21,0,5.83-2.39,5.86-5.36.02-2.03.05-4.56.07-7.44-53.45-44.38-43.05-107.26-40.46-119.3h-8.47s-13.92,41.5-17.17,55.66c-3.96,17.28-10.69,69.95-10.69,69.95-.74,3.35,2.04,6.49,5.74,6.49Z"/>
          <path class="cls-19" d="M93.58,297.88v-13.2c0-4.08-4.21-7.04-8.48-5.95l-15.5,3.94c-1.98.5-3.94-.87-3.94-2.77v-1.84c0-.94.5-1.81,1.33-2.35l24.1-15.57c.53-.34,1.17-.53,1.82-.53h29.45c1.22,0,2.2.91,2.2,2.03v10.94c0,.68-.37,1.32-1,1.7l-7.4,4.46v19.13h-22.58Z"/>
          <rect class="cls-12" x="88.67" y="295.84" width="31.35" height="5.49" rx=".84" ry=".84" transform="translate(208.69 597.17) rotate(-180)"/>
          <path class="cls-3" d="M117.39,309.79c2.48,10.79,2.75,21.55.96,32.46-.97,5.91-10.71,3.4-9.74-2.48,1.5-9.15,1.12-18.46-.96-27.5-1.35-5.85,8.39-8.35,9.74-2.48Z"/>
        </g>
        <g>
          <rect class="cls-19" x="269.9" y="135.43" width="11.81" height="4.76" transform="translate(-22.71 60.67) rotate(-12.06)"/>
          <path class="cls-17" d="M338.93,243.45l16.8,78.61c1.2,5.6-2.37,11.1-7.97,12.29l-57.3,12.24c-5.6,1.2-11.11-2.36-12.3-7.96l-16.8-78.61c-1.7-7.97-.87-16.3,2.51-23.71,2.43-5.33,4.49-11.33,3.17-14.24-2.75-6.04-14.46-5.8-17.48-19.96-3.02-14.16,19.19-42.95,19.19-42.95l22.23-4.75s32.04,17.2,35.06,31.35c3.03,14.16-7.76,18.73-7.8,25.36-.02,3.2,4.31,7.83,8.7,11.7,6.12,5.39,10.28,12.65,11.98,20.62Z"/>
          <path class="cls-16" d="M328.32,271.63c5.29,24.76-.66,47.03-13.3,49.73-12.64,2.7-27.17-15.19-32.46-39.95-5.29-24.76.66-47.03,13.3-49.73,12.64-2.7,27.17,15.19,32.46,39.95Z"/>
          <path class="cls-5" d="M338.93,243.45l16.8,78.61c1.2,5.6-2.37,11.1-7.97,12.29l-57.3,12.24c-5.6,1.2-11.11-2.36-12.3-7.96l-5.5-25.75c39.15-79.23,19.28-140,12.07-157.13l6.25-1.34s32.04,17.2,35.06,31.35c3.03,14.16-7.76,18.73-7.8,25.36-.02,3.2,4.31,7.83,8.7,11.7,6.12,5.39,10.28,12.65,11.98,20.62Z"/>
          <rect class="cls-24" x="265.96" y="145.87" width="25.62" height="11.59" rx="1.31" ry="1.31" transform="translate(-25.54 61.6) rotate(-12.06)"/>
          <path class="cls-14" d="M285.71,137.88c-.19-.18-.46-.25-.71-.19l-8.81,1.88-8.81,1.88c-.26.05-.47.23-.57.47l-3.05,7.03c-.26.6.27,1.25.91,1.11l13.16-2.81,13.16-2.81c.64-.14.86-.94.38-1.39l-5.65-5.17Z"/>
          <path class="cls-24" d="M278.94,131.67c-.12-.11-.28-.15-.44-.12l-3.86.83-3.86.83c-.16.03-.29.14-.35.29l-1.23,2.84c-.16.37.16.76.55.68l5.62-1.2,5.62-1.2c.39-.08.52-.57.23-.84l-2.28-2.09Z"/>
          <path class="cls-3" d="M269.71,169.13c-3.16,7.28-8.72,13.35-9.74,21.49-.95,7.55,2.62,14.43,8.41,19.06,4.69,3.75,9.71-4.1,5.07-7.82-10.55-8.43,1.37-21.17,5.12-29.81,2.39-5.51-6.48-8.38-8.85-2.92Z"/>
        </g>
        <path class="cls-22" d="M407.27,272.56l-2.23,30.21-1.02,13.84-7.85,106.7c-.38,5.21-4.73,9.24-9.94,9.24h-115.89c-5.23,0-9.56-4.03-9.94-9.24l-1.25-16.98-9.84-133.77c-.42-5.78,4.15-10.7,9.94-10.7h138.07c5.79,0,10.38,4.92,9.95,10.7Z"/>
        <path class="cls-7" d="M407.27,272.56l-2.23,30.21-1.02,13.84-7.85,106.7c-.38,5.21-4.73,9.24-9.94,9.24h-115.89c-5.23,0-9.56-4.03-9.94-9.24l-1.25-16.98c11.04-8.55,21.35-18.04,30.85-28.3,23.89-25.82,42.53-56.5,54.32-89.66,2.91-8.18,5.4-16.52,7.45-24.96.11-.47.21-.99.3-1.55h45.26c5.79,0,10.38,4.92,9.95,10.7Z"/>
        <rect class="cls-11" x="242.7" y="247.45" width="171.16" height="28.84" rx="7.5" ry="7.5"/>
        <path class="cls-3" d="M354.73,248.99h-51.61c-6.54,0-6.55,10.16,0,10.16h51.61c6.54,0,6.55-10.16,0-10.16Z"/>
        <path class="cls-4" d="M405.04,302.77c-13.03,17.87-34.13,29.5-57.89,29.5-39.09,0-70.96-31.46-71.62-70.4-.01-.41-.01-.82-.01-1.23,0-2.27-1.83-4.1-4.1-4.1s-4.1,1.83-4.1,4.1c0,.41,0,.82.01,1.23.66,43.46,36.21,78.6,79.82,78.6,22.24,0,42.38-9.14,56.88-23.85,4.98-5.27,5.01-14.05,1.01-13.84Z"/>
        <path class="cls-18" d="M280.08,261.46c0,4.91-3.98,8.9-8.89,8.9s-8.9-3.98-8.9-8.9,3.98-8.9,8.9-8.9,8.89,3.98,8.89,8.9Z"/>
        <path class="cls-18" d="M374.6,321.98c-14.3,6.38-30.2,6.99-45.13,2.63-10.99-3.21-15.69,13.92-4.72,17.13,19.78,5.78,40.09,3.93,58.82-4.43,10.42-4.65,1.39-19.96-8.96-15.34Z"/>
        <g>
          <path class="cls-18" d="M242.16,223.05c-7.33-4.26-16.71-1.77-20.97,5.56l-29.15,50.18,26.53,15.41,29.15-50.18c4.26-7.33,1.77-16.72-5.56-20.97ZM238.8,228.83c4.18,2.43,4.87,9.03,1.55,14.76-3.32,5.72-9.4,8.39-13.58,5.96-4.18-2.43-4.88-9.04-1.56-14.75,3.32-5.72,9.41-8.39,13.59-5.96Z"/>
          <rect class="cls-8" x="202.48" y="266.24" width="11.34" height="30.68" transform="translate(-139.89 320.09) rotate(-59.84)"/>
          <path class="cls-18" d="M195.8,432.01l-112.23-65.21c-2.77-1.61-3.47-5.31-1.46-7.82l60.23-75.17c11.88-14.83,32.57-19.23,49.45-10.5l31.64,18.38c15.94,10.35,22.36,30.5,15.36,48.16l-35.48,89.56c-1.18,2.98-4.74,4.22-7.52,2.6Z"/>
          <path class="cls-8" d="M195.25,431.69l-111.13-64.57,50.24-62.72c11.15-13.91,30.56-18.03,46.4-9.86l29.68,17.25c14.95,9.71,20.98,28.62,14.41,45.19l-29.6,74.71Z"/>
          <path class="cls-3" d="M182.05,302.49c-6.74-6.76-16.7-8.85-25.76-5.93-9.64,3.1-16.62,10.49-21.94,18.81-3.82,5.98,5.69,11.51,9.5,5.55,6.03-9.43,19.83-21.28,30.42-10.66,5,5.02,12.78-2.76,7.78-7.78Z"/>
        </g>
        <g>
          <path class="cls-17" d="M244.52,372.01c0,2.8-2.28,5.08-5.08,5.08h-51.47l-6.43,11.89-5.54,10.24c-.42.79-1.03,1.42-1.74,1.87-.81.52-1.76.8-2.73.8-.81,0-1.64-.2-2.41-.62-.11-.06-.21-.12-.3-.18-2.24-1.41-3.02-4.35-1.74-6.71l2.92-5.4,10.49-19.39c.89-1.64,2.6-2.67,4.47-2.67h54.5c2.8,0,5.08,2.28,5.08,5.08Z"/>
          <path class="cls-5" d="M181.54,388.98l-5.54,10.24c-.42.79-1.03,1.42-1.74,1.87h-5.45c-2.24-1.41-3.02-4.35-1.74-6.71l2.92-5.4h11.55Z"/>
          <g>
            <polygon class="cls-20" points="246.74 403.56 246.33 403.56 246.27 403.56 245.86 403.56 244.61 432.77 246.27 432.77 246.33 432.77 247.99 432.77 246.74 403.56"/>
            <rect class="cls-20" x="243.92" y="404.19" width=".69" height="28.58"/>
            <polygon class="cls-20" points="242.61 403.56 242.2 403.56 242.14 403.56 241.73 403.56 240.48 432.77 242.14 432.77 242.2 432.77 243.86 432.77 242.61 403.56"/>
            <rect class="cls-20" x="239.79" y="404.19" width=".69" height="28.58"/>
            <polygon class="cls-20" points="238.48 403.56 238.07 403.56 238.01 403.56 237.61 403.56 236.35 432.77 238.01 432.77 238.07 432.77 239.73 432.77 238.48 403.56"/>
            <rect class="cls-20" x="235.66" y="404.19" width=".69" height="28.58"/>
            <polygon class="cls-20" points="234.35 403.56 233.95 403.56 233.88 403.56 233.48 403.56 232.22 432.77 233.88 432.77 233.95 432.77 235.61 432.77 234.35 403.56"/>
            <rect class="cls-20" x="231.53" y="404.19" width=".69" height="28.58"/>
            <polygon class="cls-20" points="230.22 403.56 229.82 403.56 229.75 403.56 229.35 403.56 228.09 432.77 229.75 432.77 229.82 432.77 231.48 432.77 230.22 403.56"/>
            <rect class="cls-20" x="227.4" y="404.19" width=".69" height="28.58"/>
            <polygon class="cls-20" points="226.09 403.56 225.69 403.56 225.62 403.56 225.22 403.56 223.97 432.77 225.62 432.77 225.69 432.77 227.35 432.77 226.09 403.56"/>
            <rect class="cls-20" x="223.27" y="404.19" width=".69" height="28.58"/>
            <polygon class="cls-20" points="221.97 403.56 221.56 403.56 221.5 403.56 221.09 403.56 219.84 432.77 221.5 432.77 221.56 432.77 223.22 432.77 221.97 403.56"/>
            <rect class="cls-20" x="219.14" y="404.19" width=".69" height="28.58"/>
            <polygon class="cls-20" points="217.84 403.56 217.43 403.56 217.37 403.56 216.96 403.56 215.71 432.77 217.37 432.77 217.43 432.77 219.09 432.77 217.84 403.56"/>
            <rect class="cls-20" x="215.01" y="404.19" width=".69" height="28.58"/>
            <polygon class="cls-20" points="213.71 403.56 213.3 403.56 213.24 403.56 212.83 403.56 211.58 432.77 213.24 432.77 213.3 432.77 214.96 432.77 213.71 403.56"/>
            <rect class="cls-20" x="210.89" y="404.19" width=".69" height="28.58"/>
            <polygon class="cls-20" points="209.58 403.56 209.17 403.56 209.11 403.56 208.7 403.56 207.45 432.77 209.11 432.77 209.17 432.77 210.83 432.77 209.58 403.56"/>
            <rect class="cls-20" x="206.76" y="404.19" width=".69" height="28.58"/>
            <polygon class="cls-20" points="205.45 403.56 205.04 403.56 204.98 403.56 204.57 403.56 203.32 432.77 204.98 432.77 205.04 432.77 206.7 432.77 205.45 403.56"/>
            <rect class="cls-20" x="202.63" y="404.19" width=".69" height="28.58"/>
            <polygon class="cls-20" points="201.32 403.56 200.91 403.56 200.85 403.56 200.44 403.56 199.19 432.77 200.85 432.77 200.91 432.77 202.57 432.77 201.32 403.56"/>
            <rect class="cls-20" x="198.5" y="404.19" width=".69" height="28.58"/>
            <polygon class="cls-20" points="197.19 403.56 196.78 403.56 196.72 403.56 196.31 403.56 195.06 432.77 196.72 432.77 196.78 432.77 198.44 432.77 197.19 403.56"/>
            <rect class="cls-20" x="194.37" y="404.19" width=".69" height="28.58"/>
            <polygon class="cls-20" points="193.06 403.56 192.66 403.56 192.59 403.56 192.19 403.56 190.93 432.77 192.59 432.77 192.66 432.77 194.31 432.77 193.06 403.56"/>
            <rect class="cls-20" x="190.24" y="404.19" width=".69" height="28.58"/>
            <polygon class="cls-20" points="188.93 403.56 188.53 403.56 188.46 403.56 188.06 403.56 186.8 432.77 188.46 432.77 188.53 432.77 190.19 432.77 188.93 403.56"/>
            <rect class="cls-20" x="186.11" y="404.19" width=".69" height="28.58"/>
            <polygon class="cls-20" points="184.8 403.56 184.4 403.56 184.33 403.56 183.93 403.56 182.68 432.77 184.33 432.77 184.4 432.77 186.06 432.77 184.8 403.56"/>
            <rect class="cls-20" x="181.98" y="404.19" width=".69" height="28.58"/>
            <polygon class="cls-20" points="180.68 403.56 180.27 403.56 180.21 403.56 179.8 403.56 178.55 432.77 180.21 432.77 180.27 432.77 181.93 432.77 180.68 403.56"/>
            <rect class="cls-20" x="177.85" y="404.19" width=".69" height="28.58"/>
            <polygon class="cls-20" points="176.55 403.56 176.14 403.56 176.08 403.56 175.67 403.56 174.42 432.77 176.08 432.77 176.14 432.77 177.8 432.77 176.55 403.56"/>
            <rect class="cls-20" x="173.72" y="404.19" width=".69" height="28.58"/>
            <polygon class="cls-20" points="172.42 403.56 172.01 403.56 171.95 403.56 171.54 403.56 170.29 432.77 171.95 432.77 172.01 432.77 173.67 432.77 172.42 403.56"/>
            <rect class="cls-20" x="169.6" y="404.19" width=".69" height="28.58"/>
            <polygon class="cls-20" points="168.29 403.56 167.88 403.56 167.82 403.56 167.41 403.56 166.16 432.77 167.82 432.77 167.88 432.77 169.54 432.77 168.29 403.56"/>
            <rect class="cls-20" x="165.47" y="404.19" width=".69" height="28.58"/>
            <polygon class="cls-20" points="164.16 403.56 163.75 403.56 163.69 403.56 163.28 403.56 162.03 432.77 163.69 432.77 163.75 432.77 165.41 432.77 164.16 403.56"/>
          </g>
          <path class="cls-17" d="M163.74,392.77h83.48c2.59,0,4.69,2.1,4.69,4.69v2.74c0,2.59-2.1,4.69-4.69,4.69h-83.47c-2.59,0-4.69-2.1-4.69-4.69v-2.74c0-2.59,2.1-4.69,4.69-4.69Z"/>
          <path class="cls-3" d="M203.22,394.09c-10.79.09-21.58.19-32.37.28-3.86.03-3.93,6.03-.06,6,10.79-.09,21.58-.19,32.37-.28,3.86-.03,3.93-6.03.06-6Z"/>
        </g>
        <g>
          <rect class="cls-16" x="353.19" y="390.69" width="75.4" height="41.77" rx="3.98" ry="3.98"/>
          <path class="cls-9" d="M411.95,429.1h-42.11c-5.52,0-10.01-4.49-10.01-10.01v-15.03c0-5.52,4.49-10.01,10.01-10.01h42.11c5.52,0,10.01,4.49,10.01,10.01v15.03c0,5.52-4.49,10.01-10.01,10.01ZM369.84,395.47c-4.74,0-8.59,3.86-8.59,8.59v15.03c0,4.74,3.85,8.59,8.59,8.59h42.11c4.74,0,8.59-3.86,8.59-8.59v-15.03c0-4.74-3.86-8.59-8.59-8.59h-42.11Z"/>
          <text class="cls-2" transform="translate(368.28 416.38)"><tspan x="0" y="0">S</tspan><tspan class="cls-23" x="9.62" y="0">O</tspan><tspan x="22.85" y="0">AP</tspan></text>
          <path class="cls-6" d="M428.59,394.67v33.81c0,2.2-1.78,3.98-3.98,3.98h-67.44c-2.2,0-3.98-1.78-3.98-3.98v-6.78c7.86-1.21,15.51-3.82,22.71-7.23,9.79-4.64,18.81-10.73,27.61-17.06,2.81-2.02,5.68-4.18,8-6.72h13.1c2.2,0,3.98,1.78,3.98,3.98Z"/>
          <path class="cls-18" d="M435.64,393.44c-.35-2.97-1.72-5.92-4.15-7.66-2.43-1.74-5.98-2.03-8.38-.25-.3-.91-.73-1.82-1.5-2.38-.78-.56-1.98-.6-2.6.12.44-3.75-1.38-7.68-4.53-9.77-3.15-2.09-7.48-2.24-10.77-.38-3.29,1.86-5.38,5.66-5.21,9.43-1.46-.65-3.4.42-3.63,2-1.92-1.13-4.52-.96-6.27.41-1.75,1.37-2.11,4-1.48,6.13h20.75c2,3.77,6.66,6.63,10.89,6.27-.64,2.37,1.12,5.11,3.55,5.5-.26,4.08.47,8.21,2.1,11.95.99,2.27,2.72,4.65,5.2,4.72,1.53.04,2.98-.88,3.89-2.12.91-1.24,1.34-2.76,1.62-4.27.65-3.6.47-7.35-.54-10.87.85-2.87,1.43-5.87,1.08-8.84Z"/>
        </g>
        <path class="cls-10" d="M438.33,432.77H61.67c-1.04,0-1.88.84-1.88,1.88s.84,1.88,1.88,1.88h376.66c1.04,0,1.88-.84,1.88-1.88s-.84-1.88-1.88-1.88Z"/>
      </g>
      <g>
        <path class="cls-18" d="M128.4,261.89l8.13-2.16c.58-.15.58-.98,0-1.14l-8.13-2.16c-.2-.05-.36-.21-.42-.42l-2.16-8.13c-.15-.58-.98-.58-1.14,0l-2.16,8.13c-.05.2-.21.36-.42.42l-8.13,2.16c-.58.15-.58.98,0,1.14l8.13,2.16c.2.05.36.21.42.42l2.16,8.13c.15.58.98.58,1.14,0l2.16-8.13c.05-.2.21-.36.42-.42Z"/>
        <path class="cls-18" d="M417.01,110.77l8.13-2.16c.58-.15.58-.98,0-1.14l-8.13-2.16c-.2-.05-.36-.21-.42-.42l-2.16-8.13c-.15-.58-.98-.58-1.14,0l-2.16,8.13c-.05.2-.21.36-.42.42l-8.13,2.16c-.58.15-.58.98,0,1.14l8.13,2.16c.2.05.36.21.42.42l2.16,8.13c.15.58.98.58,1.14,0l2.16-8.13c.05-.2.21-.36.42-.42Z"/>
        <path class="cls-18" d="M314.09,163.78l5.9-1.57c.42-.11.42-.71,0-.82l-5.9-1.57c-.15-.04-.26-.15-.3-.3l-1.57-5.9c-.11-.42-.71-.42-.82,0l-1.57,5.9c-.04.15-.15.26-.3.3l-5.9,1.57c-.42.11-.42.71,0,.82l5.9,1.57c.15.04.26.15.3.3l1.57,5.9c.11.42.71.42.82,0l1.57-5.9c.04-.15.15-.26.3-.3Z"/>
        <path class="cls-18" d="M357.43,311.36l5.9-1.57c.42-.11.42-.71,0-.82l-5.9-1.57c-.15-.04-.26-.15-.3-.3l-1.57-5.9c-.11-.42-.71-.42-.82,0l-1.57,5.9c-.04.15-.15.26-.3.3l-5.9,1.57c-.42.11-.42.71,0,.82l5.9,1.57c.15.04.26.15.3.3l1.57,5.9c.11.42.71.42.82,0l1.57-5.9c.04-.15.15-.26.3-.3Z"/>
        <path class="cls-18" d="M150.26,64.85l3-.8c.21-.06.21-.36,0-.42l-3-.8c-.08-.02-.13-.08-.15-.15l-.8-3c-.06-.21-.36-.21-.42,0l-.8,3c-.02.08-.08.13-.15.15l-3,.8c-.21.06-.21.36,0,.42l3,.8c.08.02.13.08.15.15l.8,3c.06.21.36.21.42,0l.8-3c.02-.08.08-.13.15-.15Z"/>
        <path class="cls-18" d="M429.76,295.2l3-.8c.21-.06.21-.36,0-.42l-3-.8c-.08-.02-.13-.08-.15-.15l-.8-3c-.06-.21-.36-.21-.42,0l-.8,3c-.02.08-.08.13-.15.15l-3,.8c-.21.06-.21.36,0,.42l3,.8c.07.02.13.08.15.15l.8,3c.06.21.36.21.42,0l.8-3c.02-.08.08-.13.15-.15Z"/>
        <path class="cls-18" d="M199.61,197l3-.8c.21-.06.21-.36,0-.42l-3-.8c-.08-.02-.13-.08-.15-.15l-.8-3c-.06-.21-.36-.21-.42,0l-.8,3c-.02.08-.08.13-.15.15l-3,.8c-.21.06-.21.36,0,.42l3,.8c.08.02.13.08.15.15l.8,3c.06.21.36.21.42,0l.8-3c.02-.08.08-.13.15-.15Z"/>
        <path class="cls-18" d="M64.03,310.38l3-.8c.21-.06.21-.36,0-.42l-3-.8c-.08-.02-.13-.08-.15-.15l-.8-3c-.06-.21-.36-.21-.42,0l-.8,3c-.02.08-.08.13-.15.15l-3,.8c-.21.06-.21.36,0,.42l3,.8c.08.02.13.08.15.15l.8,3c.06.21.36.21.42,0l.8-3c.02-.08.08-.13.15-.15Z"/>
        <path class="cls-18" d="M106.99,400.51l5.02-1.34c.36-.1.36-.61,0-.7l-5.02-1.34c-.13-.03-.22-.13-.26-.26l-1.34-5.02c-.1-.36-.61-.36-.7,0l-1.34,5.02c-.03.13-.13.22-.26.26l-5.02,1.34c-.36.1-.36.61,0,.7l5.02,1.34c.13.03.22.13.26.26l1.34,5.02c.1.36.61.36.7,0l1.34-5.02c.03-.13.13-.22.26-.26Z"/>
      </g>
    </g>
  </g>
</svg>