<?xml version="1.0" encoding="UTF-8"?>
<svg xmlns="http://www.w3.org/2000/svg" xmlns:xlink="http://www.w3.org/1999/xlink" viewBox="0 0 500 500">
  <defs>
    <style>
      .cls-1 {
        filter: url(#drop-shadow-1);
      }

      .cls-2 {
        filter: url(#drop-shadow-3);
      }

      .cls-3 {
        filter: url(#drop-shadow-2);
      }

      .cls-4 {
        filter: url(#drop-shadow-4);
      }

      .cls-5, .cls-6 {
        stroke: #fff;
      }

      .cls-5, .cls-6, .cls-7, .cls-8, .cls-9 {
        stroke-linecap: round;
        stroke-linejoin: round;
      }

      .cls-5, .cls-6, .cls-7, .cls-9 {
        stroke-width: 1.2px;
      }

      .cls-5, .cls-10 {
        fill: #2278bf;
      }

      .cls-11 {
        fill: #130135;
      }

      .cls-11, .cls-12 {
        opacity: .12;
      }

      .cls-11, .cls-12, .cls-13 {
        mix-blend-mode: multiply;
      }

      .cls-6, .cls-14 {
        fill: #fc5353;
      }

      .cls-15 {
        isolation: isolate;
      }

      .cls-16 {
        font-family: Antonio-Bold, YEFHUX+Antonio-Bold;
        font-size: 12px;
        font-weight: 700;
        letter-spacing: .1em;
      }

      .cls-16, .cls-7, .cls-13 {
        fill: #011635;
      }

      .cls-17 {
        fill: #fc5353;
      }

      .cls-7, .cls-9 {
        stroke: #011635;
      }

      .cls-18, .cls-19 {
        fill: #fff;
      }

      .cls-10, .cls-19 {
        mix-blend-mode: soft-light;
        opacity: .75;
      }

      .cls-20 {
        fill: #ffde82;
      }

      .cls-21 {
        fill: #32e69e;
      }

      .cls-8 {
        stroke: #32e69e;
        stroke-width: 6px;
      }

      .cls-8, .cls-9 {
        fill: none;
      }

      .cls-12 {
        fill: #01352e;
      }

      .cls-22 {
        fill: #e8614e;
      }

      .cls-23 {
        fill: #c74f3e;
      }

      .cls-24 {
        fill: #cfb3fc;
      }

      .cls-25 {
        fill: #ced9e7;
      }

      .cls-13 {
        opacity: .18;
      }
    </style>
    <filter id="drop-shadow-1" x="135.75" y="232.38" width="244.33" height="59.08" filterUnits="userSpaceOnUse">
      <feOffset dx="3" dy="3"/>
      <feGaussianBlur result="blur" stdDeviation="0"/>
      <feFlood flood-color="#011635" flood-opacity=".12"/>
      <feComposite in2="blur" operator="in"/>
      <feComposite in="SourceGraphic"/>
    </filter>
    <filter id="drop-shadow-2" x="230.64" y="58.49" width="85.87" height="92.12" filterUnits="userSpaceOnUse">
      <feOffset dx="5" dy="5"/>
      <feGaussianBlur result="blur-2" stdDeviation="0"/>
      <feFlood flood-color="#011635" flood-opacity=".12"/>
      <feComposite in2="blur-2" operator="in"/>
      <feComposite in="SourceGraphic"/>
    </filter>
    <filter id="drop-shadow-3" x="26.22" y="184.93" width="85.35" height="73.84" filterUnits="userSpaceOnUse">
      <feOffset dx="5" dy="5"/>
      <feGaussianBlur result="blur-3" stdDeviation="0"/>
      <feFlood flood-color="#011635" flood-opacity=".12"/>
      <feComposite in2="blur-3" operator="in"/>
      <feComposite in="SourceGraphic"/>
    </filter>
    <filter id="drop-shadow-4" x="384.87" y="272.23" width="85.31" height="85.83" filterUnits="userSpaceOnUse">
      <feOffset dx="5" dy="5"/>
      <feGaussianBlur result="blur-4" stdDeviation="0"/>
      <feFlood flood-color="#011635" flood-opacity=".12"/>
      <feComposite in2="blur-4" operator="in"/>
      <feComposite in="SourceGraphic"/>
    </filter>
  </defs>
  <g class="cls-15">
    <g id="BACKGROUND">
      <rect class="cls-18" width="500" height="500"/>
    </g>
    <g id="OBJECTS">
      <g>
        <path class="cls-25" d="M51.42,372.42c43.23,109.15,256.98,134.27,356.64,51.19s68.56-225.11,3.89-270.21c-92.67-64.63-177.69,27.35-248.75,38.4-71.06,11.06-154.93,71.66-111.78,180.61Z"/>
        <path class="cls-25" d="M72.72,91.66c-9.54,49.08,48.11,84.12,94.62,70.5,46.51-13.61,62.83-51.1,50.48-83.74-12.35-32.64-43.94-24.04-71.14-17.31-27.21,6.73-67.78-1.21-73.96,30.54Z"/>
        <path class="cls-25" d="M384.43,43.06c31.16,38.97-35.13,79.38-57.11,43.8-21.98-35.59,33.16-73.75,57.11-43.8Z"/>
      </g>
      <g>
        <g>
          <path class="cls-22" d="M144.14,500c-17.42-35.07-34.95-80.94-41.27-104.75,7.87-10.98,11.53-24.91,10.05-38.35l-40.88-88.59c-25.93,26.37-36.95,64.59-37.42,101.57-.45,35.47,8.12,89.25,22.44,130.12h87.08Z"/>
          <path class="cls-23" d="M70.78,345.07c3.35,10.88,6.62,20.02,13.51,27.09l5.17,17.92c3.68-1.77,7.13-4.96,9.99-8.25,2.78,1.09,5.87,2.05,9.3,2.89,3.7-8.73,5.2-18.39,4.17-27.82l-40.88-88.59c-2.8,2.85-5.42,5.84-7.87,8.95.06,14.22.83,49.01,6.61,67.8Z"/>
        </g>
        <g>
          <path class="cls-7" d="M108.5,123.29c-14.85,1.91-24.75,8.02-31.93,20.55-7.18,12.53-8.13,35.62-8.96,50.04-2.74,47.55-1.02,86.51,6.59,133.52,2.28,14.11,4.6,27.76,14.51,38.06,13.71,14.25,34.31,15.48,54.05,16.72,72.28,4.56,145.64,2.19,218.25,2.19,13.5,0,26.96-2.27,39.5-7.26,12.54-5,23.6-16.14,24.52-29.63L108.5,123.29Z"/>
          <g>
            <path class="cls-5" d="M426.02,346.6c12.11-63.91,13.27-129.89,3.4-194.19-2.05-13.38-12.8-23.69-26.21-25.53-97.9-13.4-197.11-14.3-295.05-3.55-14.26,1.57-25.56,12.79-27.17,27.05-7.55,66.95-5.89,127.61,8.53,195.13,2.82,13.22,13.99,23.05,27.46,24.14,92.76,7.5,186.19,8.28,281.02,1.94,13.94-.93,25.4-11.26,28-25Z"/>
            <path class="cls-5" d="M263.44,348.85c-3.01-2.78-7.77-3.48-11.45-1.67-3.68,1.82-6.01,6.05-5.56,10.12.45,4.07,3.67,7.7,7.67,8.61,4,.9,8.48-1,10.58-4.52,2.1-3.52,2.47-9.12-1.24-12.54Z"/>
            <g>
              <path class="cls-5" d="M375.79,146.45c-.97-2.74-5.2-3.54-7.11-1.34-1.91,2.2-.52,6.27,2.34,6.85,2.86.57,5.78-2.67,4.77-5.51Z"/>
              <path class="cls-5" d="M393.87,146.78c-.97-2.74-5.2-3.54-7.11-1.34-1.91,2.2-.52,6.27,2.34,6.85,2.86.57,5.78-2.67,4.77-5.51Z"/>
              <path class="cls-5" d="M411.96,147.12c-.97-2.74-5.2-3.54-7.11-1.34-1.91,2.2-.52,6.27,2.34,6.85,2.86.57,5.78-2.67,4.77-5.51Z"/>
            </g>
            <g>
              <path class="cls-10" d="M131.33,133.18c-13.37,1.03-39.38,7.54-36.63,19.33,2.97,12.77,19.48-5.91,38.69-5.91s18.8-15.03-2.06-13.42Z"/>
              <path class="cls-10" d="M169.84,136.02c-1.68-2.57-5.29-3.7-8.11-2.46-2.81,1.23-4.43,4.73-3.47,7.65.96,2.92,4.41,4.78,7.35,3.9,2.94-.88,6.8-5.14,4.22-9.09Z"/>
            </g>
          </g>
          <g>
            <path class="cls-20" d="M428.35,333.44c8.89-53.77,10.09-108.82,3.55-162.92-116.93-5.23-234.1-7.22-352.39-5.71-5.35,57.1-3.65,110.22,7.41,167.83,113.79,2.53,227.63,2.8,341.43.81Z"/>
            <text class="cls-16" transform="translate(175.22 213.71)"><tspan x="0" y="0">Lorem ipsum dolor sit amet?</tspan></text>
            <g class="cls-1">
              <g>
                <path class="cls-21" d="M271.22,238.31c11.64,7.75,15.31,25.28,7.76,37.05-7.55,11.77-25.01,15.74-36.91,8.4-11.9-7.35-16.17-24.74-9.03-36.76,7.14-12.02,25-17.47,38.18-8.69Z"/>
                <path class="cls-12" d="M278.98,275.36c4.21-6.56,4.93-14.92,2.72-22.37-12.19,21.19-38.23,21.18-49.1,20.14,2.13,4.32,5.34,8.08,9.47,10.62,11.9,7.35,29.36,3.37,36.91-8.4Z"/>
                <path class="cls-7" d="M249.48,254.59c-.91-2.22-4.41-2.74-5.93-.87-1.52,1.87-.29,5.18,2.07,5.62,2.36.44,4.86-2.29,3.86-4.75Z"/>
                <path class="cls-7" d="M270.68,254.59c-.91-2.22-4.41-2.74-5.93-.87-1.52,1.87-.29,5.18,2.07,5.62,2.36.44,4.86-2.29,3.86-4.75Z"/>
                <path class="cls-7" d="M271.78,264.2c-9.96-.08-19.93-.15-30.32.44,1.05,7,7.61,12.74,14.69,12.86,7.07.12,13.83-5.39,15.64-13.3Z"/>
                <path class="cls-19" d="M249.25,240.52c-1.38-3.16-8.11,0-11.08,3.36-2.97,3.36-3.91,6.33-1.88,7.3,1.08.52,3.57-2.98,5.3-4.19,3.05-2.13,8.84-3.76,7.65-6.48Z"/>
                <path class="cls-19" d="M235.22,252c-1.55-1.12-2.63,1.53-1.29,2.47,1.34.94,2.93-1.29,1.29-2.47Z"/>
                <path class="cls-9" d="M271.22,238.31c11.64,7.75,15.31,25.28,7.76,37.05-7.55,11.77-25.01,15.74-36.91,8.4-11.9-7.35-16.17-24.74-9.03-36.76,7.14-12.02,25-17.47,38.18-8.69Z"/>
              </g>
              <g>
                <path class="cls-17" d="M178.01,237.31c11.64,7.75,15.31,25.28,7.76,37.05-7.55,11.77-25.01,15.74-36.91,8.4-11.9-7.35-16.17-24.74-9.03-36.76,7.14-12.02,25-17.47,38.18-8.69Z"/>
                <path class="cls-13" d="M185.77,274.36c2.72-4.25,3.98-9.25,3.93-14.27-17.06,15.78-39.37,14.93-49.53,13.5,2.11,3.7,5.04,6.91,8.69,9.16,11.9,7.35,29.36,3.37,36.91-8.4Z"/>
                <path class="cls-7" d="M156.06,253.76c-.91-2.22-4.41-2.74-5.93-.87-1.52,1.87-.29,5.18,2.07,5.62,2.36.44,4.86-2.29,3.86-4.75Z"/>
                <path class="cls-7" d="M177.25,253.76c-.91-2.22-4.41-2.74-5.93-.87-1.52,1.87-.29,5.18,2.07,5.62,2.36.44,4.86-2.29,3.86-4.75Z"/>
                <path class="cls-9" d="M148.65,272.54c2.5-5.47,8.34-9.23,14.35-9.26,6.01-.03,11.88,3.69,14.42,9.14"/>
                <path class="cls-19" d="M157.32,239.36c-.68-3.24-8-1.66-11.99,3.01-3.99,4.67-2.6,7.96-.44,6.49,2.16-1.46,3.32-4.75,7.43-5.97,1.7-.51,5.65-.45,5-3.53Z"/>
                <path class="cls-19" d="M140.88,253.29c-1.96-.15-1.46-3.21.54-3.21,2,0,1.42,3.36-.54,3.21Z"/>
                <path class="cls-9" d="M178.01,237.31c11.64,7.75,15.31,25.28,7.76,37.05-7.55,11.77-25.01,15.74-36.91,8.4-11.9-7.35-16.17-24.74-9.03-36.76,7.14-12.02,25-17.47,38.18-8.69Z"/>
              </g>
              <g>
                <path class="cls-24" d="M364.78,238.71c11.64,7.75,15.31,25.28,7.76,37.05-7.55,11.77-25.01,15.74-36.91,8.4-11.9-7.35-16.17-24.74-9.03-36.76,7.14-12.02,25-17.47,38.18-8.69Z"/>
                <path class="cls-11" d="M372.54,275.76c3.83-5.97,4.77-13.41,3.25-20.31-15.69,21.02-41.98,19.63-49.26,18.79,2.13,4.02,5.2,7.51,9.1,9.92,11.9,7.34,29.36,3.37,36.91-8.4Z"/>
                <path class="cls-7" d="M342.83,256.41c-.91-2.22-4.41-2.74-5.93-.87-1.51,1.87-.29,5.18,2.07,5.62,2.37.44,4.86-2.29,3.86-4.75Z"/>
                <path class="cls-7" d="M364.02,256.41c-.91-2.22-4.41-2.74-5.93-.87-1.51,1.87-.29,5.18,2.07,5.62,2.37.44,4.86-2.29,3.86-4.75Z"/>
                <path class="cls-9" d="M335.05,268.14c10.13.04,20.27.09,30.4.13"/>
                <path class="cls-19" d="M344.71,240.77c-.68-3.24-8-1.66-11.99,3.01-3.99,4.67-2.6,7.96-.44,6.49,2.16-1.46,3.32-4.75,7.43-5.97,1.7-.51,5.65-.45,5-3.53Z"/>
                <path class="cls-19" d="M328.27,254.71c-1.96-.15-1.46-3.21.54-3.21,2,0,1.42,3.36-.54,3.21Z"/>
                <path class="cls-9" d="M364.78,238.71c11.64,7.75,15.31,25.28,7.76,37.05-7.55,11.77-25.01,15.74-36.91,8.4-11.9-7.35-16.17-24.74-9.03-36.76,7.14-12.02,25-17.47,38.18-8.69Z"/>
              </g>
            </g>
            <g>
              <path class="cls-19" d="M270.02,165.38c-5.85-.11-11.7-.21-17.56-.31-22.15,56.13-44.83,112.64-67.54,169.15,5.53.06,11.05.11,16.58.16,23.56-55.99,46.06-112.49,68.52-169.01Z"/>
              <path class="cls-19" d="M79.09,278.21c.92,9.72,2.12,19.51,3.59,29.38,18.65-47.67,37.29-95.37,55.94-143.25-5.23.02-10.46.03-15.69.06-14.1,38.13-28.84,76.02-43.84,113.8Z"/>
              <path class="cls-19" d="M131.52,333.5c13.18.22,26.37.42,39.55.58,23.13-56.4,46.26-112.79,69.38-169.19-12.73-.18-25.46-.31-38.2-.41-23.72,55.74-47.42,111.57-70.73,169.01Z"/>
              <path class="cls-19" d="M415.41,169.8c-5.18-.22-10.36-.43-15.54-.63-20.41,55.51-42.23,110.5-64.26,165.38,5.17-.03,10.33-.08,15.5-.12,21.43-54.78,42.86-109.59,64.3-164.62Z"/>
              <path class="cls-19" d="M298,334.73c21.55-55.64,43.1-111.28,64.64-166.93-18.6-.63-37.22-1.17-55.84-1.63-20.76,56.54-43.28,112.45-66.48,168.47,19.22.08,38.45.12,57.68.08Z"/>
            </g>
            <path class="cls-9" d="M428.35,333.44c8.89-53.77,10.09-108.82,3.55-162.92-116.93-5.23-234.1-7.22-352.39-5.71-5.35,57.1-3.65,110.22,7.41,167.83,113.79,2.53,227.63,2.8,341.43.81Z"/>
          </g>
        </g>
        <g>
          <path class="cls-22" d="M57.05,334.94c10.85-14.78,23.04-28.58,36.35-41.18,1.59-1.5,3.24-3.02,5.26-3.86,2.02-.84,4.51-.87,6.24.47,3.17,2.47,2,7.46.42,11.16-3.93,9.24-8.52,18.19-14.08,27.8,7.65,19.37,6.98,41.86-1.79,60.74"/>
          <path class="cls-9" d="M57.05,334.94c10.85-14.78,23.04-28.58,36.35-41.18,1.59-1.5,3.24-3.02,5.26-3.86,2.02-.84,4.51-.87,6.24.47,3.17,2.47,2,7.46.42,11.16-3.93,9.24-8.52,18.19-14.08,27.8,7.65,19.37,6.98,41.86-1.79,60.74"/>
          <path class="cls-9" d="M94.58,295.22s5.34,4.35,8.24-3.49"/>
        </g>
        <g>
          <g>
            <path class="cls-22" d="M300.71,383.26c6.23,28.13,8.05,82.55,3.11,116.74h83.47c.15-40.87-6.65-104.6-13.59-143.63-2.02-11.37-4.51-23.07-11.24-32.46-6.64-9.27-16.91-15.44-27.7-19.13-10.79-3.68-22.21-5.09-33.53-6.48l-17.72,5.23c-5.31,7.49-10.06,15.38-14.67,24.82-2.38,4.88-2.55,10.56-.55,15.61,6.94,17.48,17.25,24.88,32.41,39.3Z"/>
            <path class="cls-23" d="M270.7,324.65c2.77,4.3,7.15,9.8,13.47,14.21l3.67-36.13-1.03-.18-3.3.97c-4.6,6.49-8.78,13.28-12.81,21.12Z"/>
          </g>
          <g>
            <path class="cls-22" d="M284.17,338.87c-4.01-20.82-5.75-54.16-7.12-75.98-.2-3.26-.38-6.67.93-9.66,1.32-2.99,4.64-5.37,7.79-4.48,3.25.92,4.73,4.62,5.68,7.86,3.93,13.39,6.74,27.11,9.78,41.69"/>
            <path class="cls-9" d="M284.17,338.87c-4.01-20.82-5.75-54.16-7.12-75.98-.2-3.26-.38-6.67.93-9.66,1.32-2.99,4.64-5.37,7.79-4.48,3.25.92,4.73,4.62,5.68,7.86,3.93,13.39,7.59,31.04,10.62,45.63"/>
            <path class="cls-9" d="M280.19,254.14s.49,7.92,8.88,4.49"/>
          </g>
        </g>
      </g>
      <g class="cls-3">
        <path class="cls-18" d="M310.41,72.37c-.26-5.63-3.62-10.16-8-10.84-20.97-3.26-41.8-3.21-62.34-.09-4.71.72-8.32,5.84-8.42,11.87-.26,14.96-.6,30.54-.25,46.88.13,6.04,3.81,10.88,8.54,11.29,4.35.38,8.7.66,13.06.87.11,3.99.28,8.05,1.03,12.66,4.17-3.63,7.89-7.77,11.06-12.29,12.07.15,24.15-.33,36.21-1.48,4.71-.45,8.55-5.26,8.89-11.28.87-15.52.99-31.57.24-47.59Z"/>
        <path class="cls-8" d="M258.26,94.32c3.66,4.51,7.31,9.02,12.51,13.33,4.87-6.73,9.4-13.71,13.57-20.9"/>
        <path class="cls-9" d="M310.41,72.37c-.26-5.63-3.62-10.16-8-10.84-20.97-3.26-41.8-3.21-62.34-.09-4.71.72-8.32,5.84-8.42,11.87-.26,14.96-.6,30.54-.25,46.88.13,6.04,3.81,10.88,8.54,11.29,4.35.38,8.7.66,13.06.87.11,3.99.28,8.05,1.03,12.66,4.17-3.63,7.89-7.77,11.06-12.29,12.07.15,24.15-.33,36.21-1.48,4.71-.45,8.55-5.26,8.89-11.28.87-15.52.99-31.57.24-47.59Z"/>
      </g>
      <g class="cls-2">
        <path class="cls-18" d="M104.96,195.77c-.37-4.38-3.8-7.89-8.16-8.41-20.88-2.49-41.54-2.4-61.86.07-4.66.57-8.14,4.56-8.12,9.25.04,11.64.01,23.76.68,36.47.25,4.7,4,8.45,8.7,8.76,3.63.24,7.27.42,10.91.57,0,3.4,0,6.86-.03,10.69,4.07-2.97,7.74-6.47,10.92-10.38,13.04.19,26.08-.2,39.08-1.2,4.67-.36,8.38-4.12,8.6-8.79.55-12.08.36-24.56-.71-37.03Z"/>
        <g>
          <path class="cls-9" d="M45.21,201.23c15.18-.02,30.36-.04,45.55-.05"/>
          <path class="cls-9" d="M44.27,216.24c14.97.02,29.93.05,44.9.07"/>
          <path class="cls-9" d="M43.65,229.37c5.18-.15,10.36-.3,15.54-.46"/>
        </g>
        <path class="cls-9" d="M104.96,195.77c-.37-4.38-3.8-7.89-8.16-8.41-20.88-2.49-41.54-2.4-61.86.07-4.66.57-8.14,4.56-8.12,9.25.04,11.64.01,23.76.68,36.47.25,4.7,4,8.45,8.7,8.76,3.63.24,7.27.42,10.91.57,0,3.4,0,6.86-.03,10.69,4.07-2.97,7.74-6.47,10.92-10.38,13.04.19,26.08-.2,39.08-1.2,4.67-.36,8.38-4.12,8.6-8.79.55-12.08.36-24.56-.71-37.03Z"/>
      </g>
      <g class="cls-4">
        <path class="cls-18" d="M464.17,285.36c-.24-5.1-3.56-9.24-7.9-9.91-20.8-3.22-41.47-3.43-61.87-.86-4.68.59-8.28,5.18-8.4,10.64-.31,13.54-.7,27.64-.42,42.44.11,5.47,3.75,9.9,8.43,10.33,4.39.41,8.79.72,13.2.96.01,3.78.08,7.88.46,13.5,4.1-4,7.86-8.35,11.15-13.04,12.03.29,24.07,0,36.09-.88,4.68-.35,8.51-4.66,8.86-10.1.91-14.04,1.09-28.57.4-43.09Z"/>
        <path class="cls-9" d="M464.17,285.36c-.24-5.1-3.56-9.24-7.9-9.91-20.8-3.22-41.47-3.43-61.87-.86-4.68.59-8.28,5.18-8.4,10.64-.31,13.54-.7,27.64-.42,42.44.11,5.47,3.75,9.9,8.43,10.33,4.39.41,8.79.72,13.2.96.01,3.78.08,7.88.46,13.5,4.1-4,7.86-8.35,11.15-13.04,12.03.29,24.07,0,36.09-.88,4.68-.35,8.51-4.66,8.86-10.1.91-14.04,1.09-28.57.4-43.09Z"/>
        <g>
          <polygon class="cls-17" points="425.03 310.07 420.3 312.55 421.2 307.29 417.38 303.56 422.66 302.79 425.03 298 427.39 302.79 432.68 303.56 428.85 307.29 429.76 312.55 425.03 310.07"/>
          <polygon class="cls-9" points="425.03 310.07 420.3 312.55 421.2 307.29 417.38 303.56 422.66 302.79 425.03 298 427.39 302.79 432.68 303.56 428.85 307.29 429.76 312.55 425.03 310.07"/>
        </g>
        <g>
          <polygon class="cls-17" points="403.2 310.07 398.47 312.55 399.37 307.29 395.55 303.56 400.83 302.79 403.2 298 405.56 302.79 410.85 303.56 407.02 307.29 407.93 312.55 403.2 310.07"/>
          <polygon class="cls-9" points="403.2 310.07 398.47 312.55 399.37 307.29 395.55 303.56 400.83 302.79 403.2 298 405.56 302.79 410.85 303.56 407.02 307.29 407.93 312.55 403.2 310.07"/>
        </g>
        <g>
          <polygon class="cls-14" points="446.86 310.07 442.13 312.55 443.03 307.29 439.21 303.56 444.5 302.79 446.86 298 449.22 302.79 454.51 303.56 450.69 307.29 451.59 312.55 446.86 310.07"/>
          <polygon class="cls-6" points="446.86 310.07 442.13 312.55 443.03 307.29 439.21 303.56 444.5 302.79 446.86 298 449.22 302.79 454.51 303.56 450.69 307.29 451.59 312.55 446.86 310.07"/>
        </g>
      </g>
    </g>
  </g>
</svg>