<?xml version="1.0" encoding="UTF-8"?>
<svg xmlns="http://www.w3.org/2000/svg" xmlns:xlink="http://www.w3.org/1999/xlink" viewBox="0 0 750 500">
  <defs>
    <style>
      .cls-1, .cls-2, .cls-3, .cls-4, .cls-5, .cls-6, .cls-7, .cls-8, .cls-9, .cls-10, .cls-11, .cls-12, .cls-13, .cls-14, .cls-15, .cls-16, .cls-17, .cls-18, .cls-19, .cls-20, .cls-21, .cls-22, .cls-23 {
        fill: none;
      }

      .cls-24 {
        fill: #d1b0a1;
      }

      .cls-25 {
        fill: #eff2f9;
      }

      .cls-26 {
        fill: #272224;
      }

      .cls-27 {
        fill: #ffeac5;
      }

      .cls-28 {
        fill: #9ab79c;
      }

      .cls-29 {
        fill: #3f3b63;
      }

      .cls-2 {
        stroke: #9e796a;
      }

      .cls-2, .cls-3, .cls-4, .cls-30, .cls-8, .cls-9, .cls-11, .cls-12, .cls-14, .cls-16, .cls-17, .cls-31 {
        stroke-linejoin: round;
      }

      .cls-32 {
        fill: #c67761;
      }

      .cls-3, .cls-5 {
        stroke: #fff;
      }

      .cls-33 {
        fill: #c16861;
      }

      .cls-4, .cls-31 {
        stroke: #aa7265;
      }

      .cls-34 {
        fill: #7ea882;
      }

      .cls-35 {
        fill: #f4aa78;
      }

      .cls-5, .cls-6, .cls-7, .cls-36, .cls-10, .cls-13, .cls-15, .cls-18, .cls-19, .cls-20, .cls-21, .cls-22, .cls-37, .cls-23 {
        stroke-miterlimit: 10;
      }

      .cls-6 {
        stroke: #f2e3b3;
      }

      .cls-6, .cls-11, .cls-20, .cls-21, .cls-37 {
        stroke-width: 1.5px;
      }

      .cls-30, .cls-36, .cls-17 {
        stroke: #000;
      }

      .cls-30, .cls-36, .cls-38 {
        fill: #efa084;
      }

      .cls-39 {
        fill: #9b9bce;
      }

      .cls-40 {
        fill: #cfe873;
      }

      .cls-41 {
        fill: #252549;
      }

      .cls-7 {
        stroke: #434360;
      }

      .cls-42 {
        fill: #e3cdc5;
      }

      .cls-43 {
        fill: #8696db;
      }

      .cls-8 {
        stroke: #8c614d;
      }

      .cls-8, .cls-14, .cls-15, .cls-23 {
        stroke-width: 3px;
      }

      .cls-44 {
        fill: #1e1a1c;
      }

      .cls-9 {
        stroke: #e8a656;
      }

      .cls-45 {
        fill: #113755;
      }

      .cls-10 {
        stroke: #e8ecf9;
      }

      .cls-46 {
        fill: #1b1b38;
      }

      .cls-11 {
        stroke: #c5cfea;
      }

      .cls-47, .cls-31 {
        fill: #5fbf80;
      }

      .cls-12 {
        stroke: #473f42;
      }

      .cls-48 {
        fill: #edf6ca;
      }

      .cls-13 {
        stroke: #3d1d18;
      }

      .cls-49 {
        fill: #ffeadf;
      }

      .cls-50 {
        fill: #628e6a;
      }

      .cls-51 {
        fill: #fff;
      }

      .cls-52 {
        fill: #643021;
      }

      .cls-14 {
        stroke: #c6a497;
      }

      .cls-53 {
        fill: #c6d4f4;
      }

      .cls-15, .cls-19 {
        stroke: #b28c80;
      }

      .cls-16 {
        stroke: #5b392d;
      }

      .cls-54 {
        fill: #42393d;
      }

      .cls-18 {
        stroke: #1e1a1c;
      }

      .cls-55 {
        fill: #d37f59;
      }

      .cls-20 {
        stroke: #a0b3ea;
      }

      .cls-21, .cls-37 {
        stroke: #c16861;
      }

      .cls-22 {
        stroke: #252549;
      }

      .cls-56 {
        fill: #c9ebc2;
      }

      .cls-37 {
        fill: #75c62f;
      }

      .cls-57 {
        fill: #fff8dc;
      }

      .cls-23 {
        stroke: #d8b6af;
      }

      .cls-58 {
        clip-path: url(#clippath);
      }

      .cls-59 {
        fill: #ffd18d;
      }
    </style>
    <clipPath id="clippath">
      <path class="cls-1" d="M175.4,373.7s2.13,36.2-14.58,56.14h-54.33c-16.71-19.94-14.58-56.14-14.58-56.14h83.49Z"/>
    </clipPath>
  </defs>
  <g id="BACKGROUND">
    <rect class="cls-51" width="750" height="500"/>
  </g>
  <g id="OBJECTS">
    <g>
      <path class="cls-42" d="M353.82,340.89H121.82c-7.89,0-14.63-5.75-15.98-13.63l-22.67-132.22c-1.66-9.68,5.69-18.54,15.39-18.54h225.65c8.7,0,16.13,6.34,17.62,15.03l23.28,135.75c1.22,7.11-4.18,13.61-11.3,13.61Z"/>
      <path class="cls-19" d="M124.85,318.67l-20.98-122.36c-.85-4.97,2.92-9.51,7.89-9.51h213.23c4.69,0,8.7,3.42,9.51,8.11l21.22,123.78"/>
      <g>
        <path class="cls-42" d="M435.1,340.89h-116.26c-3.54,0-6.57-2.58-7.18-6.12l-10.02-58.45c-.83-4.85,2.85-9.28,7.71-9.28h102.98c9.39,0,17.41,6.84,19.02,16.22l8.83,51.52c.55,3.19-1.88,6.11-5.08,6.11Z"/>
        <path class="cls-19" d="M415.45,334.78l-8.83-51.52c-1.61-9.37-9.63-16.22-19.02-16.22h-57.63"/>
      </g>
      <path class="cls-19" d="M416.48,340.89H134.37v-19.7h273.97c2.76,0,5.12,1.99,5.58,4.71l2.56,14.99Z"/>
      <path class="cls-23" d="M301.67,409.17l14.93-58.86c1.43-5.63,5.39-9.42,9.86-9.42h100.87c4.68,0,8.79,4.16,10.03,10.17l12.02,58.11"/>
      <line class="cls-23" x1="420.09" y1="340.89" x2="121.82" y2="340.89"/>
      <path class="cls-42" d="M218.99,340.89h-116.26c-3.54,0-6.57-2.58-7.18-6.12l-10.02-58.45c-.83-4.85,2.85-9.28,7.71-9.28h102.98c9.39,0,17.41,6.84,19.02,16.22l8.83,51.52c.55,3.19-1.88,6.11-5.08,6.11Z"/>
      <path class="cls-19" d="M218.99,340.89h-116.26c-3.54,0-6.57-2.58-7.18-6.12l-10.02-58.45c-.83-4.85,2.85-9.28,7.71-9.28h102.98c9.39,0,17.41,6.84,19.02,16.22l8.83,51.52c.55,3.19-1.88,6.11-5.08,6.11Z"/>
      <path class="cls-19" d="M194.27,340.89c3.2,0,5.62-2.92,5.08-6.11l-8.83-51.52c-1.61-9.37-9.63-16.22-19.02-16.22h-75.86"/>
      <path class="cls-15" d="M85.42,409.17l14.93-58.86c1.43-5.63,5.39-9.42,9.86-9.42h100.87c4.68,0,8.79,4.16,10.03,10.17l12.02,58.11"/>
    </g>
    <line class="cls-20" x1="59.32" y1="409.17" x2="475.77" y2="409.17"/>
    <path class="cls-45" d="M290.5,249.72l11.01,10.88s51.84,11.06,61.59,14.08c14.62,4.53,27.69,13.37,24.74,39.17-3.83,33.52-11.98,80.67-11.98,80.67l-39.82-10.87,6.25-65.83s-61-8.6-73.42-15.77c-12.42-7.18-16.65-41.44-16.65-41.44"/>
    <path class="cls-17" d="M342.63,317.67c5.88-2.56,11.6-5.58,17.08-9.02"/>
    <path class="cls-55" d="M374.77,392.31l7.82,15.68s13.21,7.07,17.83,9.57c-2.19.54-65.4,1.3-65.38.9.12-3.24.79-5.14.64-9.39-.07-2.02-3.64-14.61-3.64-14.61"/>
    <path class="cls-24" d="M335.27,409.06l46.88-1.93s20.55,11.46,23.71,13.92c3.16,2.46,5.43,5.68,5.55,8.8h-77.54s.64-12.91,1.4-20.79Z"/>
    <line class="cls-2" x1="334.19" y1="424.09" x2="408.97" y2="424.09"/>
    <path class="cls-2" d="M334.9,413.48s8.41,1.98,12.23,10.61"/>
    <line class="cls-2" x1="385.6" y1="409.06" x2="376.8" y2="413.48"/>
    <line class="cls-2" x1="391.52" y1="412.14" x2="382.71" y2="416.56"/>
    <path class="cls-45" d="M224.99,273.24s5.78,48.87,29.93,48.87h46.61l27.75,82.82,48.46-7.15s-27.47-85.48-33.04-99.91c-3.2-8.28-9.91-16.05-29.98-19.91-20.07-3.86-33.96-4.72-33.96-4.72l-15.7-20.41"/>
    <line class="cls-17" x1="301.52" y1="322.12" x2="314" y2="322.12"/>
    <line class="cls-16" x1="325.04" y1="392.31" x2="373.51" y2="384.69"/>
    <path class="cls-17" d="M337.99,308.18c.32,8.45-.33,16.93-1.94,25.21"/>
    <path class="cls-17" d="M342.36,317.89c.03,4.56.28,9.12.75,13.65"/>
    <path class="cls-17" d="M375.96,392.31c-8.3-25.67-27.27-84.07-31.28-94.43-3.2-8.28-9.91-16.05-29.98-19.91-20.07-3.86-30.92-4.72-30.92-4.72l-13.36-20.41"/>
    <line class="cls-20" x1="296.94" y1="429.85" x2="418.71" y2="429.85"/>
    <path class="cls-55" d="M350.95,177.38s5.66-9.67,6.09-9.93c.37-.23,21.83-7.2,25.47-8.56.65-.24,1.3-.5,1.94-.78.46-.2,1.18-.37,1.49-.83.59-.87.29-1.26-.3-1.78-2.04-1.81-6.62-.21-9.03-.06-2.14.14-4.37-.27-4.37-.27,0,0,9.38-.4,13.92-2.04,1.1-.4,5.22-1.28,4.46-3.18-.14-.35-.34-.88-1.48-1.4-.82-.37-1.4-.36-1.4-.36,0,0,2.62-.59,2.58-1.38-.07-1.47-2.72-2.42-3.52-2.41-4.43.08-11.21.45-11.21.45,0,0,4-1.05,5.39-1.67.87-.39,2.11-.68,2.79-1.41.11-.12.22-.25.27-.42.4-1.4-2.04-1.92-2.84-1.83-3.05.35-5.98,1.16-8.96,1.87-3.32.79-10.78-.28-10.78-.28,0,0,1.69-2.03,2.35-2.68.65-.64,1.28-1.32,1.74-2.12.99-1.72.23-3.7-1.48-2.92-4.55,2.08-9.52,3.89-13.99,6.14-3.93,1.97-7.71,4.31-11.02,7.23-3.42,3.02-5.93,6.88-8.49,10.64-1.36,2-2.7,4.02-4,6.06"/>
    <path class="cls-17" d="M376.31,144.7c-2.17.3-8.1.86-8.1.86"/>
    <path class="cls-17" d="M388.03,148.19c-2.2.33-5.12,1.13-8.14,1.37-4.68.38-9.14,0-9.14,0"/>
    <path class="cls-17" d="M372.44,155.1c-3.1.1-6.06-.44-9.12-.79-2.35-.27-4.71-.35-7.07-.23-1.69.08-4.57-.09-6,1.01"/>
    <polyline class="cls-49" points="326.68 160.91 332.81 152.38 360 167.1 351.53 180.51"/>
    <path class="cls-47" d="M246.33,156.92s13.93-2.84,19.57-1.36,13.82,8.29,22.59,15.54c8.76,7.25,18.52,15.69,18.52,15.69l22.23-30.59,29.09,15.79s-23.18,42.65-28.29,48.99c-4.21,5.21-14.38,16.88-29.43,6.67-15.04-10.21-31.17-23.69-31.17-23.69"/>
    <path class="cls-4" d="M353.42,173.3c0,.72-.57,1.3-1.28,1.3s-1.28-.58-1.28-1.3.57-1.3,1.28-1.3,1.28.58,1.28,1.3Z"/>
    <line class="cls-4" x1="351.29" y1="168.19" x2="345.62" y2="177.07"/>
    <path class="cls-49" d="M193.18,167.86l22.02-9.74s5.46,3.79,18.3,4.52c8.5.48,10.84-3.49,12.05-4.52s12.11,4.61,12.11,4.61l47.12,95.19c-4.6,15.85-79.89,16.75-79.89,16.75l-31.7-106.81Z"/>
    <path class="cls-17" d="M207.44,161.75c8.09,6.06,20.56,8.32,29.97,7.6,6.43-.49,10.93-2.57,12.94-9.06"/>
    <path class="cls-5" d="M190.59,181.87c28.15.07,57.85,1.88,84.36-7.14"/>
    <path class="cls-5" d="M197.55,203.72c28.15.07,57.85,1.88,84.36-7.14"/>
    <path class="cls-5" d="M204.84,225.2c28.15.07,57.85,1.88,84.36-7.14"/>
    <path class="cls-5" d="M210.04,243.02c28.15.07,57.85,1.88,84.36-7.14"/>
    <path class="cls-5" d="M219.12,259.92c28.9.1,59.39,2.95,86.6-11.24"/>
    <path class="cls-47" d="M241.69,157.22c7.56,9.83,13.23,21,18.65,32.19,12.15,25.08,33.73,80.68,35.2,81.27,1.4.57,19.78-4.51,26.64-6.83,0,0-5.25-8.23-13.09-22.15s-29.81-60.62-34.12-66.98-17.85-18.52-17.85-18.52l-15.43,1.01Z"/>
    <path class="cls-4" d="M260.13,178.61c1.66,3.23,3.26,6.49,4.85,9.75,12.15,25.08,35.2,81.27,35.2,81.27"/>
    <path class="cls-4" d="M255.41,179.52c1.3-.46,14.8-2.07,13.98-5.97-.72-3.41-11.98-15.52-13.73-17.34"/>
    <line class="cls-17" x1="307" y1="186.8" x2="298.38" y2="198.96"/>
    <path class="cls-4" d="M284.77,193.42c-.52.25-10.66,3.68-10.66,3.68,0,0,4.82,6.94,6.67,7.26,1.85.31,8.32-2.21,8.32-2.21"/>
    <path class="cls-4" d="M274.11,197.1s9.14,19.74,11.66,20.04c2.52.3,9.63-2.42,9.63-2.42"/>
    <path class="cls-17" d="M302.69,228.95s-21.91-42.02-23.26-49.19"/>
    <line class="cls-4" x1="322.17" y1="165.92" x2="353.42" y2="181.3"/>
    <path class="cls-47" d="M194.91,163.47l15.94-3.57s16.15,23.5,29.47,52.92c10.21,22.55,26.01,65.34,25.56,67.82-.45,2.48-35.46,10.12-39.65,8.89-2.23-.65-16.59-41.64-19.29-46.22-2.7-4.58-23.9-48.01-23.9-48.01l11.86-31.83Z"/>
    <path class="cls-4" d="M196.11,163.2s6.32,22.24,10.14,23.6c3.82,1.37,19.29-2.96,19.29-2.96"/>
    <path class="cls-4" d="M219.06,185.46s20.08,41.28,26.48,56.65,14.74,39.96,14.74,39.96"/>
    <path class="cls-31" d="M239.03,226.59c-1.05,1.79-19.69,7.42-21.55,6.74-2.68-.97-9.67-21.46-9.67-21.46l24.96-6.64s7.31,19.57,6.26,21.36Z"/>
    <path class="cls-31" d="M232.76,205.23l-24.96,6.64s4.96,9.34,6.86,9.81c2.06.51,20.88-4.2,21.81-5.58.94-1.38-3.72-10.87-3.72-10.87Z"/>
    <path class="cls-55" d="M223.87,152.38c-6.1-3.49-11.79-9.2-13.94-16.1-2.78-8.92,1.4-18.3,9.51-22.53,6.11-3.19,12.79-3.9,18.89-.6,4.55,2.46,6.99,7.29,8.76,11.9,1.42,3.68,2.79,7.39,4.03,11.13,1.98,5.98,1.66,13.85-4.11,17.65-6.81,4.48-15.73,2.78-23.15-1.45Z"/>
    <path d="M234.79,133.51c.29,1.02-.05,2.02-.76,2.23-.71.21-1.53-.45-1.82-1.47-.29-1.02.05-2.02.76-2.23.71-.21,1.53.45,1.82,1.47Z"/>
    <path d="M246.83,130.86c.29,1.02-.05,2.02-.76,2.23-.71.21-1.53-.45-1.82-1.47-.29-1.02.05-2.02.76-2.23.71-.21,1.53.45,1.82,1.47Z"/>
    <path class="cls-17" d="M227.39,131.69c1.65-2.24,4.34-3.65,7.09-3.7"/>
    <path class="cls-17" d="M241.35,126.49c1.8-.75,3.84-1.31,5.67-.65"/>
    <path class="cls-55" d="M215.61,141.81l-3.25,17.93s7,4.26,18.29,5.68c9.13,1.15,13.05-1.73,13.05-1.73l1.32-11.75"/>
    <path class="cls-17" d="M239.73,127.39c.96,2.16,2.19,4.27,3.68,6.3.59.81,1.24,1.68,1.01,2.55-.19.68-.9,1.23-1.75,1.57s-1.81.52-2.77.68"/>
    <path class="cls-51" d="M239.03,142.28c1.12,4.5,9.36,6.82,7.69-1.46l-7.69,1.46Z"/>
    <path class="cls-17" d="M229.75,154.5c5.16,2.06,10.51,2.25,15.33.34"/>
    <path class="cls-26" d="M248.16,115.87c-.09-.1-.17-.21-.24-.33-.35-.66-.06-1.48.33-2.12.39-.64.89-1.25.98-1.99.19-1.42-1.17-2.56-2.49-3.07-1.32-.5-2.82-.71-3.87-1.67-1.21-1.11-1.48-2.92-2.26-4.37-.84-1.55-2.34-2.73-4.04-3.16-1.85-.47-3.8-.08-5.62.48-2.2.68-4.33,1.6-6.34,2.75-1.74.99-3.43,2.17-5.37,2.62-1.22.28-2.5.26-3.72.57-1.41.36-2.66,1.15-3.89,1.93-3.8,2.41-5.79,6.06-7.21,10.3-.24.72-.46,1.45-.86,2.08-.46.72-1.12,1.28-1.7,1.9-3.02,3.25-3.99,10.16-2.37,14.27.54,1.38,1.41,2.61,2.36,3.73,1.78,2.11,4.12,3.79,6.24,5.6,2.25,1.91,3.63,4.29,5.51,6.55.07.09.16.18.27.18.11,0,.19-.1.26-.18,1.35-1.79,2.07-4.01,2.38-6.24.42-2.98-.22-6.06.69-8.94.84-2.63,1.83-5.27,2.49-7.97.17-.69.33-1.4.7-2.01,1.48-2.43,5.56-2.23,6.78-4.8.26-.54.4-1.2.92-1.47.28-.14.61-.14.92-.14,2.64-.03,5.24-1.26,6.95-3.29,1.33.79,2.9,1.14,4.43.99.82-.08,1.82-.38,2.55.11.59.39,1.12,1.41,1.52,1.99.35.5,2.86,3.99,2.52,4.5.97-1.44,1.96-2.91,2.43-4.59.33-1.19.34-2.6-.49-3.5-.24-.26-.53-.46-.77-.72Z"/>
    <path class="cls-12" d="M227.77,120.44c.45-.35.59-.96.75-1.51.38-1.3,1.07-2.51,2-3.49"/>
    <path class="cls-12" d="M235.98,117.09c.89-1.41,1.63-2.9,2.22-4.46"/>
    <path class="cls-12" d="M242.51,117.69c1.4-.08,2.78-.64,3.84-1.57"/>
    <path class="cls-12" d="M235.87,106.79c-.01,1.68-.95,3.32-2.38,4.17-.87.52-1.2,1.41-1.63,2.34"/>
    <path class="cls-12" d="M203.38,120.17c4.09-.85,8.46-.24,12.18,1.71"/>
    <path class="cls-12" d="M208.77,125.75c-.61,1.49-1.07,3.07-1.15,4.68-.11,2.44.68,4.86,1.86,6.99,1.18,2.13,2.73,4.02,4.28,5.9"/>
    <path class="cls-12" d="M204,136.71c.81,2.18,2.53,4,4.65,4.91"/>
    <path class="cls-55" d="M212.91,136.57c-3,1.51-2.92,6.31-1.49,8.87.89,1.6,2.45,2.86,4.01,3.75,1.91,1.1,3.47,1.29,5.6.67.61-.18,1.23-.37,1.74-.75,2.91-2.18-1.27-7.24-2.56-9.2-.74-1.12-1.56-2.22-2.66-3-1.52-1.07-3.03-1.15-4.64-.35Z"/>
    <path class="cls-17" d="M213.9,141.63c2.79.44,4.47,1.36,7.16,2.2"/>
    <path class="cls-17" d="M212.01,137.03c.99-.91,2.43-1.25,3.74-.99s2.49,1.08,3.3,2.15"/>
    <path class="cls-17" d="M216.72,149.87c.72.31,1.5.49,2.28.53,1.12.06,2.28-.17,3.21-.8.94-.63,1.63-1.63,1.86-2.75"/>
    <path class="cls-55" d="M220.69,252.84c8.99,3.77,19.18,7.85,24.41,13.15,3.07,3.11,5.93,6.84,6.97,11.22.81,3.38,1.01,5.19,1.4,8.65.09.79.08,2.66-.27,3.37-.35.71-1.5.29-1.5.29,0,0,.15,3.71-.68,3.99-1.55.52-2.5-.52-2.99-.97-1.98.7-2.92,1.29-4.48-.45.12.46-.71.91-1.19.9-.47,0-2.51-.16-2.87-.45-2.16-1.71-3.84-4.03-6.04-5.7-1.62-1.24-3.42-2.64-5.25-3.52-1.91-.92-4.01-1.3-6.03-1.84-3.87-1.04-7.69-2.82-10.38-5.93-.85-.98-1.59-2.09-2.55-2.96-.97-.87-2.14-1.46-3.29-2.04"/>
    <path class="cls-17" d="M243.55,292.08c.08-.56-3.22-5.56-4.38-7-2.06-2.57-6.41-5.88-6.41-5.88"/>
    <path class="cls-17" d="M248.03,292.53s-2.65-7.62-4.47-10.92c-1.82-3.3-6.02-6.94-6.02-6.94"/>
    <path class="cls-17" d="M251.7,289.52s-1.28-8.18-2.6-10.78c-1.32-2.6-7.44-9.73-7.44-9.73"/>
    <polyline class="cls-49" points="206.73 276.98 214.43 281.37 230.76 257.15 219.03 251.25"/>
    <path class="cls-47" d="M194.91,163.47s-1.39.21-4.52,1.19c-10.28,3.21-16.5,14.24-20.76,24.42-4.26,10.19-8.33,20.47-11.86,30.95-4.5,13.36-12.57,31.24,1.19,42.02,3.85,3.02,9.41,5.42,15.08,7.25,13.65,4.4,34.05,11.34,34.05,11.34l18.14-26.19-30.13-14.76,12-40.35"/>
    <line class="cls-4" x1="213.22" y1="273.24" x2="202.38" y2="269.3"/>
    <ellipse class="cls-4" cx="206.25" cy="274.92" rx="1.28" ry="1.3"/>
    <line class="cls-4" x1="215.92" y1="249.72" x2="197.15" y2="276.87"/>
    <line class="cls-17" x1="199.3" y1="228.95" x2="205.94" y2="206.6"/>
    <line class="cls-17" x1="207.53" y1="245.31" x2="226.24" y2="254.45"/>
    <path class="cls-17" d="M196.11,239.54c-4.1-.96-10.31-2.25-14.51-1.99-2.35.15-4.72.49-6.88,1.44"/>
    <line class="cls-17" x1="256.06" y1="126.34" x2="272.92" y2="115.91"/>
    <line class="cls-17" x1="260.12" y1="134.93" x2="280.6" y2="129.26"/>
    <line class="cls-17" x1="261.48" y1="143.29" x2="280.55" y2="145.7"/>
    <g>
      <g>
        <path class="cls-50" d="M134.17,382.19c-.24-22.94-6.29-45.57-5.88-68.51.45-25.05,8.86-49.89,23.68-69.92.55-.74,1.33-1.55,2.21-1.3.51.14.85.61,1.12,1.07,1.57,2.58,2.3,5.59,2.84,8.58,2.57,14.15,1.38,28.98-3.4,42.52,4.97,2.58,8.22,7.95,9.02,13.56s-.67,11.39-3.34,16.37c-.65,1.21-1.39,2.52-1.14,3.87.18.97.84,1.76,1.39,2.58,2.32,3.48,2.69,8.03,1.78,12.13-.91,4.1-2.99,7.83-5.28,11.33-4.67,7.13-10.33,13.58-16.77,19.11"/>
        <path class="cls-34" d="M138.53,378.21c-1-4.59,1.44-9.17,3.9-13.15,6.06-9.8,12.9-19.25,21.57-26.76s19.34-13,30.69-13.93c1.38-.11,2.93-.1,3.93.88,1.51,1.49.75,4.08-.3,5.94-2.42,4.3-5.84,8.01-9.9,10.74-.94.63-1.96,1.27-2.42,2.32-.35.8-.31,1.72-.35,2.59-.29,6.87-6.5,12.93-13.26,12.94.93,3.88-2.59,7.28-5.84,9.52-5.44,3.73-11.22,6.95-17.25,9.59"/>
        <path class="cls-17" d="M152.95,361.12c9.83-13,23.34-23.09,38.49-28.73"/>
        <path class="cls-34" d="M105.43,377.93c-4.25-7.95-14.3-15.92-18.53-21.05-4.23-5.13-7.32-13.08,1.72-14.81-11.94-2.42-21.74-12.24-23.5-23.55-.36-2.3-.39-4.74.62-6.87s3.29-3.86,5.77-3.75c-2.94-6.35-4.68-13.18-5.09-20.09-.12-2.04,0-4.36,1.63-5.71,1.3-1.07,3.24-1.2,4.93-.84,2.18.46,4.11,1.6,5.94,2.79,15.82,10.28,27.18,25.82,34.14,42.61,6.96,16.8,9.77,34.86,10.88,52.85"/>
        <path class="cls-17" d="M79.58,295.42c14.96,21.01,26.87,44.26,35.24,68.75"/>
        <path class="cls-50" d="M129.56,384.89c-6.19-4.9-11.52-11.18-15.59-18.37-.74-1.31-1.45-2.67-1.8-4.18-.35-1.5-.31-3.18.39-4.52.7-1.34,2.14-2.24,3.48-1.89-.86-1.71-1.84-3.35-2.93-4.89-1.53-2.18-3.29-4.2-4.49-6.63-2.18-4.42-3.39-10.61-.69-15.11.65-1.09,1.53-2.04,1.87-3.29.34-1.26.06-2.6-.22-3.88-2.18-9.63-5.22-18.99-7.25-28.67-2.03-9.67-3.01-19.85-1.02-29.53.29-1.42.67-2.87,1.5-3.99.83-1.12,2.22-1.83,3.44-1.36.67.26,1.21.82,1.72,1.38,14.64,16.05,23.19,38.17,27.12,60.78,3.93,22.61,3.56,45.87,2.53,68.88"/>
        <path class="cls-17" d="M129.74,297.12c5.01,20.19,8.65,49.38,9.47,65.53"/>
        <path class="cls-34" d="M130.66,379.52c-4.38-3.13-8.45-6.86-11.26-11.5-2.81-4.64-4.27-10.27-3.23-15.62.74-3.83,3.77-7.9,7.54-7.23.35.06.7.16,1.04.06.66-.19.89-.99,1.05-1.67,1.5-6.48,5.29-12.39,10.53-16.38,3.28-2.5,8.11-4.16,11.28-1.53,6.64,5.53,3.71,18,3.25,25.36,1.62-1.03,7.09-1.54,8.58-.34,1.49,1.2,2.48,3.03,2.87,4.92,1.64,7.94-4.42,18.38-11.47,22.75"/>
        <path class="cls-17" d="M152.11,350.41c1.54-.29,3.1-.58,4.66-.46,1.56.12,3.15.7,4.18,1.9,1.34,1.55,1.51,3.8,1.4,5.87-.35,6.45-2.84,12.76-6.97,17.66"/>
        <path class="cls-17" d="M124.69,345.25c3.59-.32,7.1,1.56,9.64,4.17,2.53,2.61,4.25,5.9,5.93,9.15"/>
        <path class="cls-17" d="M142.87,364.17c1.27,3.2,2.07,6.64,2.36,10.15"/>
        <path class="cls-17" d="M154.68,294.31c-2.8,1.34-5.06,3.63-6.84,6.2-1.77,2.57-3.1,5.42-4.41,8.26"/>
      </g>
      <path class="cls-57" d="M175.4,373.7s2.13,36.2-14.58,56.14h-54.33c-16.71-19.94-14.58-56.14-14.58-56.14h83.49Z"/>
      <g class="cls-58">
        <g>
          <path class="cls-6" d="M80.16,381.47c5.13-1.48,10.79.05,14.94,4.03,2.51,2.41,3.38,5.38,7.03,5.74,2.17.22,4.36-.3,6.53-.17,2.18.13,4.53,1.14,5.54,3.44.63,1.45.63,3.2,1.21,4.69,1.11,2.89,3.96,4.03,6.19,5.77,2.48,1.94,4.52,5.09,5.1,8.62.46,2.84-.86,5.55-2.89,6.94-4.06,2.78-13.76,1.49-19.97.23-4.83-.99-10.48-1.83-14.39,2.52"/>
          <path class="cls-6" d="M103.3,365.62c1.86,3.55,3.73,7.12,6.07,10.19s5.19,5.63,8.46,6.72c4.86,1.62,10.26-.1,14.88,2.42,3.59,1.96,6.05,6.13,9.04,9.29,2.24,2.37,4.9,4.24,7.8,4.75,2.9.51,6.05-.51,8.08-3.16,3.69-4.85,2.76-13.38,6.54-18.12,2.02-2.53,5.16-3.65,6.52-6.79.62-1.44.78-3.11.93-4.74.42-4.7.82-9.58-.4-14.04"/>
          <path class="cls-6" d="M181.16,383.95c-4.58-.05-9.07,3.79-11.07,9.46-.93,2.65-1.35,5.61-2.33,8.23-2.25,6.02-7.1,9.32-11.85,11.08-7.6,2.81-16.3,3.74-21.53,11.93-6.64,10.4,3.45,20.94,11.44,23.78,4.89,1.74,10.04,1.67,15.07.98,4.71-.64,9.44-1.84,13.77-4.45s8.29-6.74,10.74-12.32"/>
        </g>
      </g>
      <line class="cls-20" x1="180.78" y1="429.85" x2="95.64" y2="429.85"/>
      <line class="cls-20" x1="210.04" y1="429.85" x2="192.66" y2="429.85"/>
    </g>
    <path class="cls-28" d="M556.37,448.86c-5.98-27.42-6.1-63.49-5.11-91.14.54-15.08.86-32.81,14.31-44.02,1.62-1.35,3.49-2.63,5.77-3.02,3.69-.63,7.58,1.29,9.83,3.89,2.26,2.6,3.23,5.77,4.15,8.86,9.22-14.49,17.88-30.05,28.91-42.74,12.41-14.27,27.66-26.65,45.52-36.19,2.14-1.14,4.6-2.3,7.15-1.85,3.95.69,6.18,4.57,6.22,7.93.33,24.22-18.58,57.45-41.24,80.8,6.99,4.05,9.56,11.9,8.42,18.76-1.14,6.86-5.31,12.99-9.41,18.94-16.44,23.88-32.88,47.77-49.31,71.65"/>
    <path class="cls-17" d="M666.72,253.24c-46.17,50.93-82.48,110.77-106.32,175.25"/>
    <path class="cls-28" d="M563.84,443.89c21.15-43.56,54.85-82.39,97.12-111.9,4.3-3,8.76-5.94,13.71-7.99,2.19-.91,5.58-2.53,8.05-2.39,9.22.51.54,23.8-1.49,28.01-5.84,12.11-15.14,22.62-24.44,32.64,5.59-.71,9.26,5.43,8.73,10.36-.8,7.56-7.04,14.03-14.49,17.91-7.46,3.88-16.08,5.62-24.54,7.3,1.19,8.66-5.33,17-13.75,21.67-8.41,4.67-18.46,6.4-28.24,8.04"/>
    <path class="cls-50" d="M541.75,444.54c-14.03-28.78-14.22-62.19-12.44-94.15.48-8.6,1.09-17.25,3.22-25.59,2.13-8.34,5.88-16.44,11.92-22.58.72-.73,1.56-1.47,2.58-1.56,2.05-.17,3.27,2.19,3.87,4.15,2.77,9.06,4.95,18.51,5.55,27.93.68,10.5.62,21.05-.18,31.54.94-1.33,2.81-1.75,4.38-1.31,1.56.44,2.83,1.6,3.79,2.91,3.09,4.24,4.05,9.69,4.59,14.79.6,5.62,1.07,11.33,1.29,16.98.32,8.18-.24,16.39-1.66,24.45-1.43,8.09-4.16,15.73-6.3,23.63"/>
    <path class="cls-17" d="M631.88,354.87c-31.19,33.15-54.44,72.5-67.64,114.5"/>
    <path class="cls-17" d="M656.93,382.03c-3.99.12-7.92,1.51-10.96,3.87"/>
    <path class="cls-17" d="M626.31,417.69c-2.15-3.42-7.44-2.49-10.41-.88-2.54,1.38-4.58,3.52-6.34,5.81"/>
    <path class="cls-17" d="M675.31,330.93c-38.94,26.63-67.34,64.48-89.44,103.57"/>
    <path class="cls-17" d="M540.03,330c-3.41,40.2,2.14,80.56,7.68,120.52"/>
    <rect class="cls-57" x="516.98" y="441.28" width="106.75" height="34.38"/>
    <path class="cls-32" d="M435.48,438.37c-5.46,12.8-17.7,19.65-25.94,24.59,2.21.55,64.03,1.3,63.96.9-.54-3.25-1.04-6.01-1.45-10.27-.2-2.03,1.23-13.8,1.23-13.8"/>
    <path class="cls-44" d="M472.74,458.05s-23.94-.11-38.63-1.54c-6.65-.65-8.37-6.11-10.42-4.01-6.58,6.74-18.05,11.68-20.81,14.15-2.76,2.46-3.62,8.64-2.47,8.64h44.29c2.67-1.29,5.77-3.68,5.77-3.68h6.74l.29,3.68h16.69s.32-9.34-1.45-17.24Z"/>
    <path class="cls-46" d="M560.06,336.64s-66.55-.18-85.58,0c-13.18.13-27.91,4.85-33.05,30.52-5.14,25.67-11.3,80.81-11.3,80.81l44.64,3.21,14.8-58.3s41.55,6.25,65.31,4.41c15.25-1.18,25.39-25.97,23.01-43.2"/>
    <line class="cls-17" x1="489.58" y1="392.88" x2="481.4" y2="392.88"/>
    <line class="cls-22" x1="431.89" y1="432.98" x2="478.12" y2="438.03"/>
    <path class="cls-38" d="M401.21,438.37c-7.43,12.8-21.41,19.65-30.86,24.59,2.3.55,68.55,1.3,68.53.9-.19-3.25-.38-6.01-.3-10.27.04-2.03,3.01-13.8,3.01-13.8"/>
    <path class="cls-54" d="M438.78,458.05s-25.68-.11-41.27-1.54c-7.06-.65-8.23-6.11-10.69-4.01-7.89,6.74-20.81,11.68-24.07,14.15-3.26,2.46-4.95,8.64-3.71,8.64h47.53c3.02-1.29,6.64-3.68,6.64-3.68h7.24l-.14,3.68h19.99s-.59-9.34-1.52-17.24Z"/>
    <line class="cls-18" x1="440.04" y1="471.61" x2="359.8" y2="470.83"/>
    <path class="cls-41" d="M535.68,336.64s-66.53-.18-85.58,0c-13.2.13-28.5,4.85-36.8,30.52-8.29,25.67-21.22,80.81-21.22,80.81l47.81,5.09,18.39-60.17s81.74,6.25,105.73,4.41c15.39-1.18,33.1-36.77,32.84-54.01"/>
    <line class="cls-17" x1="458.29" y1="392.88" x2="450.12" y2="392.88"/>
    <path class="cls-7" d="M400.57,448.86s19.75-75.53,22.42-81.71c2.68-6.18,11.84-23.91,28.52-22.39,16.68,1.52,84.88,1.41,84.88,1.41l13.34-9.54"/>
    <line class="cls-7" x1="395.68" y1="432.98" x2="444.39" y2="438.37"/>
    <polyline class="cls-38" points="568.18 222.28 566.85 240.16 602.02 241.43 600.81 217.42"/>
    <path class="cls-38" d="M561.15,197.56c-2.91,4.86-6.35,10.31-6.63,16.14-.3,6.15,4.19,10.11,9.92,11.29,9.29,1.92,19.51-.82,26.65-7.04,9.79-8.52,12.28-26.6-.13-34.22-4.92-3.02-10.97-2.82-16.37-1.29-5.26,1.5-8.44,6.27-10.93,10.81-.7,1.28-1.59,2.73-2.53,4.31Z"/>
    <path class="cls-52" d="M605.91,181.87c-1.2-1.33-2.61-2.46-4.21-3.29-1.6-.83-3.39-1.35-4.82-2.45-1.44-1.11-2.46-3.22-4.14-3.97-1.04-.47-2.53-.35-3.66-.45-3-.27-6.04.33-7.21,3.48-.1.27-.21.58-.47.68-.25.1-.53-.04-.76-.17-3.44-1.85-7.47-2.59-11.34-2.08-.62.08-1.26.2-1.78.54-1.61,1.05-1.38,3.44-.96,5.32-1.96-.84-4.53.37-5.13,2.42-.49,1.67.24,3.51,1.46,4.74,1.21,1.24,2.84,1.98,4.47,2.59,4.38,1.65,9.03,2.59,13.71,2.75-1.97,2.16-2.98,5.17-2.7,8.08s1.84,5.68,4.18,7.42c.81.6,1.73,1.12,2.25,1.98.67,1.12.5,2.53.3,3.82-.34,2.25-.69,4.5-1.03,6.76-.12.76-.22,1.57.11,2.26.58,1.19,2.13,1.45,3.46,1.54,5.02.34,10.08.67,15.03-.35,1.75-.36,3.51-1.25,4.31-2.85.32-.64.46-1.36.58-2.06.5-2.99.7-6.1,2-8.85.56-1.19,1.32-2.28,1.73-3.53,1.09-3.3.61-8.09.08-11.47-.7-4.49-2.35-9.43-5.44-12.85Z"/>
    <path class="cls-13" d="M566.85,179.86c2.32.75,4.77,1.13,7.21,1.12"/>
    <path class="cls-13" d="M581.21,175.74c2.83,1.13,5.91,1.64,8.95,1.49"/>
    <path class="cls-13" d="M579.47,181.08c5.29.81,10.78,1.7,15.16,4.76"/>
    <path class="cls-13" d="M607.16,199.51c.18,2.27.36,4.61-.37,6.76-.56,1.64-1.6,3.07-2.34,4.64-.96,2.04-1.39,4.32-1.23,6.56"/>
    <path class="cls-13" d="M599.67,196.7c.14,1.88.2,3.83-.47,5.59-.82,2.14-2.66,3.76-3.51,5.89-.72,1.8-.67,3.8-.62,5.74"/>
    <path class="cls-13" d="M583.91,196.14c-1.08,3.85-.05,8.23,2.62,11.21"/>
    <path class="cls-13" d="M581.12,191.96c6.96-4,15.4-4.2,23.42-3.94"/>
    <path class="cls-38" d="M582.99,203.19c3.17.71,4.32,5.2,3.65,7.91-.42,1.69-1.55,3.22-2.76,4.41-1.49,1.46-2.89,1.99-5.03,1.9-.61-.03-1.24-.06-1.81-.3-3.25-1.36-.67-7.02.03-9.14.4-1.21.88-2.43,1.7-3.4,1.14-1.35,2.52-1.77,4.22-1.38Z"/>
    <path class="cls-17" d="M583.37,208.12c-2.47,1.04-3.8,2.28-6.08,3.68"/>
    <path class="cls-17" d="M580.22,203.35c-1.15.54-2.03,1.57-2.51,2.75"/>
    <path class="cls-17" d="M583.88,215.51c-.59.45-2.29,1.72-3,1.94-1.02.31-2.16.36-3.19,0-1.03-.37-1.93-1.15-2.43-2.13"/>
    <path class="cls-17" d="M567.84,225.79c2.63-.14,5.25-.63,7.75-1.45"/>
    <path class="cls-30" d="M563.04,195.4c-1.39,2.57-4.55,5.21-6.18,6.01-1.28.63-1.77,1.13-1.21,2.52.46,1.15,1.42,2.11,2.62,2.52"/>
    <path class="cls-51" d="M562.34,209.93h-5.66s-.21,4.82,2.52,4.4c2.73-.42,3.15-4.4,3.15-4.4Z"/>
    <path class="cls-17" d="M567.87,193.95c1.47.37,2.8,1.21,3.83,2.31s1.78,2.46,2.25,3.89"/>
    <path d="M568.41,201.04c-.48.97-1.43,1.49-2.11,1.15-.68-.34-.85-1.4-.37-2.38.48-.97,1.43-1.49,2.11-1.15.68.34.85,1.4.37,2.38Z"/>
    <path class="cls-38" d="M544.02,238.85s-7.46-14.65-13.02-21.38c-3.45-4.18-6.68-7.16-10.91-10.61-2.04-1.66-4.1-3.56-6.34-4.99-1.07-.68-1.39-1.15-2.31.03-.63.8-.52,2.16-.24,3.05,1.13,3.61,7.07,8.85,7.07,8.85-1.58.48-4.65,1.87-5.62,2.82-.93.91-1.3,2.53-1.14,3.8-1.31.2-2.4.85-2.92,2-.26.57-.4,1.17-.36,1.8.01.22.24,1.58.56,1.59-1.16-.04-2.14.9-2.45,1.93-.31,1.03-.08,2.13.2,3.16.83,3.02,3,5.23,5.45,6.21.68.27,1.48.38,2.18.16s1.29-.86,1.2-1.55c2.04,4.46,2.81,10.51,6.77,13.68,1.94,1.55,5.92,2.53,6.82,4.75"/>
    <path class="cls-17" d="M511.51,220.43s1.21,5.49,2.48,7.01c1.27,1.53,3.91,2.49,5.71,1.95,1.8-.54,2.64-4.07,2.64-4.07,0,0-2.67-1.85-2.72-2.04s-1.5-5.26-1.5-5.26"/>
    <path class="cls-17" d="M517.89,213.87c1.9,1.4,3.44,3.23,4.44,5.3"/>
    <path class="cls-17" d="M508.58,225.6c.86,2.46,4.06,11.7,8.12,8.03,1.16-1.05,1.94-2.65,2.45-4.07"/>
    <path class="cls-36" d="M533.67,224.15c-1.81-2.31-4.71-3.78-7.75-4.58-3.04-.79-6.24-.97-9.4-1.14-.24-.01-.5-.02-.72.08-.25.12-.38.37-.45.62-.52,1.83,1.46,3.38,3.32,4.23,1.35.61,2.76,1.12,4.2,1.51.46.12.94.25,1.28.55.26.24.4.57.52.89.9,2.36,1.23,4.86,1.87,7.28.64,2.43,1.66,4.86,3.66,6.59"/>
    <path class="cls-38" d="M523.57,248.24s23.42,56.87,34.36,63.47c12.45,7.51,27.82-8.31,27.82-8.31l-12.89-32.59-6.25.97-25.29-38.03"/>
    <path class="cls-56" d="M570.63,241.41h34.23s5.3,20.57,4.6,44.35c-1.09,36.67-24.04,83.46-24.04,83.46,0,0-75.46-32.54-75.46-32.59s30.24-55.96,33.04-64.63c2.81-8.67,27.63-30.59,27.63-30.59Z"/>
    <path class="cls-38" d="M529.3,270.48l-16.82,14.23-26.93-20.5-17.5,13s21.13,25.53,30.52,32.76c9.18,7.07,19.52,11.49,30.37,6.81,11.25-4.84,24.7-20.39,24.7-20.39"/>
    <path class="cls-38" d="M474.56,284.71c-4.83-6.48-11.94-11.29-15.61-18.47-1.66-3.26-2.52-6.84-3.36-10.37-.46-1.92-.92-3.88-.84-5.84.05-1.4.38-2.76.7-4.11.67-2.8,1.35-5.6,2.02-8.41.15-.61.31-1.25.73-1.7.54-.57,1.48-.72,2.2-.35.72.37,1.17,1.23,1.05,2.02.5-.96.99-1.91,1.49-2.87.26-.5.69-1.09,1.26-.95.28.07.48.3.65.53.77,1.01,1.35,2.17,1.69,3.39,1.22-.08,2.34.88,2.85,2.01.5,1.13.52,2.39.53,3.61,1.29-.37,2.44,1.04,2.89,2.33.49,1.4.55,2.93,1.26,4.25,1.47,2.72,4.37,4.12,6.87,5.85,2.36,1.63,4.7,3.59,6.27,6.09,1.56,2.49,1.83,5.76,4.2,7.73"/>
    <polygon class="cls-43" points="513.85 256.36 469.86 265.07 433.79 211.46 477.78 202.75 513.85 256.36"/>
    <polygon class="cls-51" points="507.76 252.56 471.09 259.82 439.14 212.7 475.81 205.44 507.76 252.56"/>
    <line class="cls-10" x1="501.29" y1="247.38" x2="486.82" y2="250.24"/>
    <line class="cls-10" x1="496.75" y1="241.01" x2="467.82" y2="246.74"/>
    <line class="cls-10" x1="492.21" y1="234.64" x2="463.28" y2="240.37"/>
    <line class="cls-10" x1="487.67" y1="228.27" x2="458.74" y2="234"/>
    <line class="cls-10" x1="483.13" y1="221.9" x2="454.2" y2="227.63"/>
    <line class="cls-10" x1="478.59" y1="215.53" x2="449.66" y2="221.25"/>
    <line class="cls-10" x1="471.11" y1="211.59" x2="455.33" y2="214.71"/>
    <path class="cls-29" d="M472.96,203c-.64-.96-1.8-1.44-2.9-1.23l-3.53.7-.53-.79c-.41-.61-1.14-.92-1.85-.78l-18.88,3.74c-.78.15-1.13,1.05-.68,1.73l.27.4-4.45.88c-1.22.24-1.78,1.65-1.07,2.71l2.4,3.59,34.03-6.74-2.81-4.2Z"/>
    <path class="cls-56" d="M573.28,241.5c-9.05-.72-18.34,2.91-25.69,8.75-8.88,7.07-33.08,32.15-33.08,32.15l31.77,31,20.2-22.48"/>
    <path class="cls-51" d="M559.88,242.85s5.91-7.67,11.87-8.04c4.8-.3,31.23-1.63,31.23-1.63l3.59,15.64"/>
    <path class="cls-17" d="M596.42,241.41l-22.71.56c-2.61.06-5.2.36-7.73.89l-4.88,1.01"/>
    <line class="cls-17" x1="546.27" y1="313.39" x2="566.47" y2="290.91"/>
    <path class="cls-36" d="M461.76,260.53c-.04-1.29-.13-2.58-.14-3.87,0-1.01.35-1.71.62-2.67.63-2.26,1.13-4.57,1.89-6.79.23-.66.47-1.35.95-1.8,1.06-1.01,2.3.08,2.79,1.27.37.9.45,1.9.5,2.87.1,2-.68,4.52,0,5.99.36.77,1.21,1.4,1.8,1.99,1.23,1.21,2.41,2.44,3.47,3.8,2.35,3.03,4.01,6.12,4.56,9.96"/>
    <line class="cls-17" x1="523.87" y1="272.84" x2="556.37" y2="302.15"/>
    <line class="cls-17" x1="554.37" y1="192.32" x2="545.97" y2="179.1"/>
    <line class="cls-17" x1="548.58" y1="197.96" x2="536.01" y2="187.48"/>
    <line class="cls-17" x1="544.78" y1="204.22" x2="530.47" y2="200.57"/>
    <path class="cls-14" d="M655.76,475.36l-15.7-61.06c-1.5-5.84-5.67-9.77-10.36-9.77h-106.06c-4.92,0-9.24,4.32-10.55,10.56l-12.64,60.28"/>
    <path class="cls-59" d="M567.68,403.19h49.8c8.29,0,15.38-5.97,16.8-14.14l23.84-137.18c1.75-10.05-5.99-19.24-16.18-19.24h-43.13c-9.15,0-16.97,6.58-18.53,15.59l-24.47,140.84c-1.28,7.37,4.39,14.12,11.88,14.12Z"/>
    <path class="cls-9" d="M644.48,233.18h-32.82c-8.68,0-16.1,6.24-17.59,14.8l-23.23,133.69"/>
    <path class="cls-59" d="M485.08,403.19h126.24v-20.44h-116.19c-3.39,0-6.31,2.38-7,5.7l-3.05,14.74Z"/>
    <path class="cls-8" d="M618.74,475.36l-15.7-61.06c-1.5-5.84-5.67-9.77-10.36-9.77h-106.06c-4.92,0-9.24,4.32-10.55,10.56l-12.64,60.28"/>
    <path class="cls-59" d="M483.62,403.19h122.25c3.73,0,6.91-2.68,7.55-6.35l10.54-60.63c.87-5.03-3-9.63-8.1-9.63h-108.28c-9.87,0-18.31,7.1-20,16.82l-9.29,53.45c-.58,3.31,1.97,6.34,5.34,6.34Z"/>
    <line class="cls-9" x1="566.66" y1="326.58" x2="580.65" y2="326.58"/>
    <line class="cls-20" x1="325.3" y1="475.65" x2="662.81" y2="475.65"/>
    <g>
      <g>
        <path class="cls-35" d="M366.58,84.12h-77.29c-3.97,0-7.19,3.22-7.19,7.19v26.11c0,3.97,3.22,7.19,7.19,7.19h8.03l-4.67,9.45c-.46.94.51,1.93,1.46,1.49l23.24-10.94h49.23c3.97,0,7.19-3.22,7.19-7.19v-26.11c0-3.97-3.22-7.19-7.19-7.19Z"/>
        <g>
          <circle class="cls-59" cx="291.49" cy="85.1" r="26.84"/>
          <g>
            <path class="cls-27" d="M305,79.25c0-7.23-6.05-13.09-13.51-13.09s-13.51,5.86-13.51,13.09c0,3.01,1.05,5.78,2.81,7.99.92,1.27,5.48,7.66,5.48,8.49v1.17c0,.7.58,1.26,1.29,1.26h7.86c.71,0,1.29-.56,1.29-1.26v-1.17c0-.83,4.56-7.21,5.48-8.49,1.76-2.21,2.81-4.98,2.81-7.99Z"/>
            <path class="cls-5" d="M293.96,98.15c.04-4.37-.06-8.99,2.2-12.93.34-.6,1.18-1.7,2.02-1.16.25.16.37.45.45.73.46,1.6-.11,3.3-.97,4.68-.72,1.16-2.1,3.12-3.73,2.87-1.23-.18-2.2-1.47-2.74-2.86-.96-2.5-1.61-5.64-1.67-8.4-.06-2.67.62-5.21,2-5.21h-.05c1.38,0,2.05,2.55,2,5.21-.06,2.77-.71,5.91-1.67,8.4-.6,1.56-2.15,3.54-4.08,2.5-2.14-1.16-3.54-4.11-3.56-6.4,0-.66.21-1.78,1.16-1.57.42.09.74.42,1.01.74,2.85,3.48,2.68,8.26,2.69,12.46,0,.31,0,.63,0,.94"/>
            <rect class="cls-5" x="285.58" y="98.15" width="11.83" height="2.94" rx="1.47" ry="1.47"/>
            <path class="cls-5" d="M295.94,104.04h-8.89c-.81,0-1.47-.66-1.47-1.47h0c0-.81.66-1.47,1.47-1.47h8.89c.81,0,1.47.66,1.47,1.47h0c0,.81-.66,1.47-1.47,1.47Z"/>
          </g>
        </g>
        <g>
          <line class="cls-3" x1="363.03" y1="93.34" x2="330.2" y2="93.34"/>
          <line class="cls-3" x1="363.03" y1="102.57" x2="330.2" y2="102.57"/>
          <line class="cls-3" x1="363.03" y1="111.8" x2="314.31" y2="111.8"/>
        </g>
      </g>
      <g>
        <path class="cls-51" d="M441.92,136.43h52.05c3.36,0,6.07,2.72,6.07,6.07v26.95c0,3.36-2.72,6.07-6.07,6.07h-6.79l3.95,7.99c.39.79-.43,1.63-1.23,1.26l-19.64-9.25h-28.34c-3.36,0-6.07-2.72-6.07-6.07v-26.95c0-3.36,2.72-6.07,6.07-6.07Z"/>
        <g>
          <line class="cls-11" x1="443.58" y1="147.12" x2="469.93" y2="147.12"/>
          <line class="cls-11" x1="443.58" y1="156.35" x2="476.42" y2="156.35"/>
          <line class="cls-11" x1="443.58" y1="165.58" x2="492.31" y2="165.58"/>
        </g>
      </g>
      <circle class="cls-40" cx="520.44" cy="122.14" r="41.51" transform="translate(314.79 615.58) rotate(-80.58)"/>
      <path class="cls-48" d="M520.44,156.36c-18.87,0-34.22-15.35-34.22-34.22s15.35-34.22,34.22-34.22,34.22,15.35,34.22,34.22-15.35,34.22-34.22,34.22ZM520.44,93.21c-15.95,0-28.92,12.98-28.92,28.92s12.98,28.92,28.92,28.92,28.92-12.98,28.92-28.92-12.98-28.92-28.92-28.92Z"/>
      <path class="cls-48" d="M520.44,143.02c-11.52,0-20.89-9.37-20.89-20.89s9.37-20.89,20.89-20.89,20.89,9.37,20.89,20.89-9.37,20.89-20.89,20.89ZM520.44,106.55c-8.6,0-15.59,6.99-15.59,15.59s6.99,15.59,15.59,15.59,15.59-6.99,15.59-15.59-6.99-15.59-15.59-15.59Z"/>
      <path class="cls-48" d="M520.44,131.37c-5.09,0-9.23-4.14-9.23-9.23s4.14-9.23,9.23-9.23,9.23,4.14,9.23,9.23-4.14,9.23-9.23,9.23ZM520.44,118.2c-2.17,0-3.94,1.77-3.94,3.94s1.77,3.94,3.94,3.94,3.94-1.77,3.94-3.94-1.77-3.94-3.94-3.94Z"/>
      <line class="cls-37" x1="575.63" y1="66.95" x2="523.16" y2="119.42"/>
      <polygon class="cls-33" points="521.8 112.62 520.44 122.14 529.96 120.78 521.8 112.62"/>
      <polyline class="cls-21" points="576.16 60.93 575.7 66.88 581.66 66.43"/>
      <g>
        <path class="cls-25" d="M641.55,76.83h-47.44c-2.75,0-4.98,2.23-4.98,4.98v18.1c0,2.75,2.23,4.98,4.98,4.98h5.57l-3.24,6.55c-.32.65.36,1.34,1.01,1.03l16.1-7.58h27.99c2.75,0,4.98-2.23,4.98-4.98v-18.1c0-2.75-2.23-4.98-4.98-4.98Z"/>
        <circle class="cls-39" cx="634.48" cy="91.45" r="2.08"/>
        <path class="cls-39" d="M615.75,91.45c0,1.15.93,2.08,2.08,2.08s2.08-.93,2.08-2.08-.93-2.08-2.08-2.08-2.08.93-2.08,2.08Z"/>
        <path class="cls-39" d="M599.1,91.45c0,1.15.93,2.08,2.08,2.08s2.08-.93,2.08-2.08-.93-2.08-2.08-2.08-2.08.93-2.08,2.08Z"/>
      </g>
      <g>
        <path class="cls-53" d="M691.81,162.31h-66.88c-3.88,0-7.02,3.14-7.02,7.02v25.51c0,3.88,3.14,7.02,7.02,7.02h7.85l-4.57,9.23c-.45.92.5,1.89,1.43,1.45l22.7-10.69h39.46c3.88,0,7.02-3.14,7.02-7.02v-25.51c0-3.88-3.14-7.02-7.02-7.02Z"/>
        <path class="cls-51" d="M668.49,182.49c0,1.15.93,2.08,2.08,2.08s2.08-.93,2.08-2.08-.93-2.08-2.08-2.08-2.08.93-2.08,2.08Z"/>
        <path class="cls-51" d="M651.83,182.49c0,1.15.93,2.08,2.08,2.08s2.08-.93,2.08-2.08-.93-2.08-2.08-2.08-2.08.93-2.08,2.08Z"/>
        <path class="cls-51" d="M635.18,182.49c0,1.15.93,2.08,2.08,2.08s2.08-.93,2.08-2.08-.93-2.08-2.08-2.08-2.08.93-2.08,2.08Z"/>
      </g>
      <g>
        <path class="cls-53" d="M97.87,76.27h71.13c3.55,0,6.43,2.88,6.43,6.43v23.35c0,3.55-2.88,6.43-6.43,6.43h-7.19l4.18,8.45c.41.84-.46,1.73-1.31,1.33l-20.78-9.78h-46.04c-3.55,0-6.43-2.88-6.43-6.43v-23.35c0-3.55,2.88-6.43,6.43-6.43Z"/>
        <circle class="cls-39" cx="120.64" cy="94.69" r="2.08"/>
        <path class="cls-39" d="M139.37,94.69c0,1.15-.93,2.08-2.08,2.08s-2.08-.93-2.08-2.08.93-2.08,2.08-2.08,2.08.93,2.08,2.08Z"/>
        <path class="cls-39" d="M156.03,94.69c0,1.15-.93,2.08-2.08,2.08s-2.08-.93-2.08-2.08.93-2.08,2.08-2.08,2.08.93,2.08,2.08Z"/>
      </g>
    </g>
  </g>
</svg>