<?xml version="1.0" encoding="UTF-8"?>
<svg xmlns="http://www.w3.org/2000/svg" viewBox="0 0 500 500">
  <defs>
    <style>
      .cls-1 {
        fill: #62a527;
      }

      .cls-2 {
        fill: #3a9259;
      }

      .cls-3 {
        fill: #88c8fc;
      }

      .cls-4 {
        fill: #40a062;
      }

      .cls-5 {
        fill: #5fbf80;
      }

      .cls-6 {
        fill: #c7c7c7;
      }

      .cls-7 {
        fill: #508dd2;
      }

      .cls-8 {
        fill: #fff;
      }

      .cls-9 {
        fill: #caecac;
      }

      .cls-10 {
        fill: #67a4e9;
      }

      .cls-11 {
        fill: #69c856;
      }

      .cls-12 {
        fill: #e6ac4b;
      }

      .cls-13 {
        fill: #afd4ef;
      }

      .cls-14 {
        fill: #29275f;
      }

      .cls-15 {
        fill: #1d492c;
      }
    </style>
  </defs>
  <g id="BACKGROUND">
    <rect class="cls-8" width="500" height="500"/>
  </g>
  <g id="OBJECTS">
    <ellipse class="cls-6" cx="244.32" cy="353.65" rx="213.64" ry="41.88"/>
    <g>
      <path class="cls-9" d="M425,286.23c-18.49,14.67-44.13-8.01-38-26.57,3.17-9.59,10.69-17.22,12.19-27.37,1.56-10.47,6.51-14.9,14.61-21.23,3.17-2.48,4.44-7.05,5.92-10.77,2.79-7.03,6.95-12.94,13.66-16.71,8.26-4.65,24.52,1.62,26.54,12.03,2.46,12.64-13.94,18.62-19.31,26.73-4.61,6.97-.26,16.14-7.01,23.69-10.14,11.34,5.94,29.38-8.6,40.19Z"/>
      <path class="cls-9" d="M405.63,307.64c-.38,0-.71-.29-.75-.68-3.28-36.07,7.71-72.63,30.15-100.3.26-.32.73-.37,1.06-.11.32.26.37.73.11,1.05-22.19,27.37-33.06,63.54-29.82,99.22.04.41-.27.78-.68.81-.02,0-.05,0-.07,0Z"/>
    </g>
    <g>
      <path class="cls-11" d="M416.11,262.51c-4.99,7.06-8.92,14.97-17.38,16.52-12.78,2.35-28.08,14.54-27.3,30.46-.22,32.42,49.22,31.76,53.04,7.68,1.8-11.38,4.69-16.34,16.32-18.01,6.97-1,9.07-6.86,11.03-12.88,1.82-2.76,4.42-4.89,7.54-6.03,4.43-1.61,9.42-.91,14.16-1.06,4.18-.12,8.35-.99,11.46-3.74,2.95-2.63,4.88-6.36,5.4-10.52.5-4.15-.54-8.49-2.95-12.18-2.28-3.47-5.74-6.3-9.47-7.77-4.23-1.68-8.56-1.65-12.48-.03-4.54,1.87-8.07,5.26-11.59,8.57-.02.03-.05.05-.07.07-4.53,4.27-10.99,5.8-17.4,4.2-7.64-1.91-14.92-2.89-20.3,4.72Z"/>
      <path class="cls-11" d="M370.82,338.89c-.13,0-.26-.03-.38-.11-.36-.21-.47-.67-.26-1.03,21.01-35.38,54-61.74,92.88-74.24.39-.13.82.09.94.48.13.39-.09.82-.48.94-38.53,12.38-71.22,38.51-92.05,73.57-.14.24-.39.37-.65.37Z"/>
    </g>
    <g>
      <path class="cls-2" d="M71.89,299.64c18.49,14.67,44.13-8.01,38-26.57-3.17-9.59-10.69-17.22-12.19-27.37-1.56-10.47-6.51-14.9-14.61-21.23-3.17-2.48-4.44-7.05-5.92-10.77-2.79-7.03-6.95-12.94-13.66-16.71-8.26-4.65-24.52,1.62-26.54,12.03-2.46,12.64,13.94,18.62,19.31,26.73,4.61,6.97.26,16.14,7.01,23.69,10.14,11.34-5.94,29.38,8.6,40.19Z"/>
      <path class="cls-2" d="M91.25,321.05s-.05,0-.07,0c-.41-.04-.72-.4-.68-.81,3.24-35.68-7.63-71.85-29.82-99.22-.26-.32-.21-.79.11-1.05.32-.26.79-.21,1.05.11,22.44,27.67,33.43,64.23,30.15,100.3-.04.39-.36.68-.75.68Z"/>
    </g>
    <g>
      <path class="cls-9" d="M83.89,271.62c4.99,7.06,8.92,14.97,17.38,16.52,12.78,2.35,28.08,14.54,27.3,30.46.22,32.42-49.22,31.76-53.04,7.68-1.8-11.38-4.69-16.34-16.32-18.01-6.97-1-9.07-6.86-11.03-12.88-1.82-2.76-4.42-4.89-7.54-6.03-4.43-1.61-9.42-.91-14.16-1.06-4.18-.12-8.35-.99-11.46-3.74-2.95-2.63-4.88-6.36-5.4-10.52-.5-4.15.53-8.49,2.95-12.18,2.28-3.47,5.74-6.3,9.47-7.77,4.23-1.68,8.56-1.65,12.48-.03,4.54,1.87,8.07,5.26,11.59,8.57.02.03.05.05.07.07,4.53,4.27,10.99,5.8,17.4,4.2,7.64-1.91,14.92-2.89,20.31,4.72Z"/>
      <path class="cls-9" d="M129.18,348.01c-.26,0-.51-.13-.65-.37-20.82-35.06-53.51-61.19-92.05-73.57-.39-.13-.61-.55-.48-.94.13-.39.55-.61.94-.48,38.88,12.5,71.87,38.86,92.88,74.24.21.36.09.82-.26,1.03-.12.07-.25.11-.38.11Z"/>
    </g>
    <g>
      <path class="cls-14" d="M437.13,380.63H59.95c-4.21,0-7.62-3.41-7.62-7.62v-3.21h392.42v3.21c0,4.21-3.41,7.62-7.62,7.62Z"/>
      <polygon class="cls-8" points="403.81 310.06 93.27 310.06 52.33 369.81 444.75 369.81 403.81 310.06"/>
      <path class="cls-15" d="M398.47,113.09H98.62c-2.87,0-5.19,2.32-5.19,5.19v191.78h310.23V118.28c0-2.87-2.32-5.19-5.19-5.19Z"/>
      <rect class="cls-4" x="102.92" y="129.41" width="291.24" height="165.37"/>
      <path class="cls-15" d="M437.13,381.38H59.95c-4.62,0-8.37-3.75-8.37-8.37v-3.21c0-.41.34-.75.75-.75h392.42c.41,0,.75.34.75.75v3.21c0,4.62-3.75,8.37-8.37,8.37ZM53.08,370.56v2.46c0,3.79,3.08,6.87,6.87,6.87h377.18c3.79,0,6.87-3.08,6.87-6.87v-2.46H53.08Z"/>
      <path class="cls-14" d="M444.75,370.56H52.33c-.28,0-.53-.15-.66-.4s-.11-.54.04-.77l40.94-59.75c.14-.2.37-.33.62-.33h310.54c.25,0,.48.12.62.33l40.94,59.75c.16.23.17.53.04.77-.13.25-.38.4-.66.4ZM53.76,369.06h389.57l-39.91-58.25H93.67l-39.91,58.25Z"/>
      <path class="cls-14" d="M403.66,310.81H93.43c-.41,0-.75-.34-.75-.75V118.28c0-3.27,2.66-5.94,5.94-5.94h299.85c3.28,0,5.94,2.66,5.94,5.94v191.78c0,.41-.34.75-.75.75ZM94.18,309.31h308.73V118.28c0-2.45-1.99-4.44-4.44-4.44H98.62c-2.45,0-4.44,1.99-4.44,4.44v191.03Z"/>
      <path class="cls-14" d="M394.16,295.53H102.92c-.41,0-.75-.34-.75-.75v-165.37c0-.41.34-.75.75-.75h291.24c.41,0,.75.34.75.75v165.37c0,.41-.34.75-.75.75ZM103.67,294.03h289.74v-163.87H103.67v163.87Z"/>
      <rect class="cls-8" x="168.76" y="301.63" width="159.57" height="7.25"/>
      <path class="cls-10" d="M235.01,121.07c0,2.7-2.19,4.89-4.89,4.89s-4.89-2.19-4.89-4.89,2.19-4.89,4.89-4.89,4.89,2.19,4.89,4.89Z"/>
      <path class="cls-14" d="M304.81,365.72h-112.54c-.28,0-.53-.15-.66-.4s-.11-.54.04-.77l11.74-17.13c.14-.2.37-.33.62-.33h89.06c.25,0,.48.12.62.33l11.74,17.13c.16.23.17.53.04.77-.13.25-.38.4-.66.4ZM193.7,364.22h109.69l-10.71-15.63h-88.27l-10.71,15.63Z"/>
      <g>
        <path class="cls-14" d="M133.97,326.08h-20.75c-.27,0-.51-.14-.65-.37-.13-.23-.14-.51,0-.75l5.33-9.48c.13-.24.38-.38.65-.38h19.94c.26,0,.5.13.63.35.14.22.15.49.04.72l-4.51,9.48c-.12.26-.39.43-.68.43ZM114.5,324.58h19l3.8-7.98h-18.31l-4.48,7.98Z"/>
        <path class="cls-14" d="M169.81,326.08h-20.75c-.25,0-.48-.12-.62-.33-.14-.21-.17-.47-.07-.7l3.92-9.48c.12-.28.39-.46.69-.46h19.94c.24,0,.47.12.61.31.14.2.18.45.11.67l-3.11,9.48c-.1.31-.39.52-.71.52ZM150.18,324.58h19.09l2.61-7.98h-18.4l-3.3,7.98Z"/>
        <path class="cls-14" d="M205.64,326.08h-20.75c-.23,0-.45-.11-.59-.29-.14-.18-.19-.42-.13-.65l2.51-9.48c.09-.33.38-.56.73-.56h19.94c.22,0,.43.1.58.27.14.17.2.4.16.61l-1.7,9.48c-.06.36-.37.62-.74.62ZM185.86,324.58h19.15l1.43-7.98h-18.47l-2.12,7.98Z"/>
        <path class="cls-14" d="M241.47,326.08h-20.75c-.21,0-.42-.09-.56-.25-.14-.16-.21-.37-.18-.59l1.11-9.48c.04-.38.36-.66.75-.66h19.94c.2,0,.4.08.54.23.14.15.22.34.21.55l-.3,9.48c-.01.41-.34.73-.75.73ZM221.56,324.58h19.18l.25-7.98h-18.5l-.93,7.98Z"/>
        <path class="cls-14" d="M277.31,326.08h-20.75c-.41,0-.74-.32-.75-.73l-.3-9.48c0-.2.07-.4.21-.55.14-.15.33-.23.54-.23h19.94c.38,0,.7.29.75.66l1.11,9.48c.02.21-.04.43-.18.59-.14.16-.35.25-.56.25ZM257.28,324.58h19.18l-.93-7.98h-18.5l.25,7.98Z"/>
        <path class="cls-14" d="M313.14,326.08h-20.75c-.36,0-.67-.26-.74-.62l-1.7-9.48c-.04-.22.02-.44.16-.61.14-.17.35-.27.58-.27h19.94c.34,0,.64.23.72.56l2.51,9.48c.06.23.01.47-.13.65-.14.18-.36.29-.59.29ZM293.01,324.58h19.15l-2.12-7.98h-18.47l1.43,7.98Z"/>
        <path class="cls-14" d="M348.97,326.08h-20.75c-.32,0-.61-.21-.71-.52l-3.11-9.48c-.07-.23-.04-.48.11-.67.14-.19.37-.31.61-.31h19.94c.3,0,.58.18.69.46l3.92,9.48c.1.23.07.5-.07.7-.14.21-.37.33-.62.33ZM328.76,324.58h19.09l-3.3-7.98h-18.4l2.61,7.98Z"/>
        <path class="cls-14" d="M384.81,326.08h-20.75c-.29,0-.55-.17-.68-.43l-4.51-9.48c-.11-.23-.09-.51.04-.72.14-.22.38-.35.63-.35h19.94c.27,0,.52.15.65.38l5.33,9.48c.13.23.13.52,0,.75-.13.23-.38.37-.65.37ZM364.53,324.58h19l-4.48-7.98h-18.31l3.8,7.98Z"/>
      </g>
      <g>
        <path class="cls-14" d="M111.51,339.37h-20.75c-.27,0-.51-.14-.65-.37-.13-.23-.14-.51,0-.75l5.33-9.48c.13-.24.38-.38.65-.38h19.94c.26,0,.5.13.63.35.14.22.15.49.04.72l-4.51,9.48c-.12.26-.39.43-.68.43ZM92.04,337.87h19l3.8-7.98h-18.31l-4.48,7.98Z"/>
        <path class="cls-14" d="M147.35,339.37h-20.75c-.25,0-.48-.12-.62-.33s-.16-.47-.07-.7l3.92-9.48c.12-.28.39-.46.69-.46h19.94c.24,0,.47.12.61.31.14.2.18.45.11.67l-3.11,9.48c-.1.31-.39.52-.71.52ZM127.72,337.87h19.09l2.61-7.98h-18.4l-3.3,7.98Z"/>
        <path class="cls-14" d="M183.18,339.37h-20.75c-.23,0-.45-.11-.59-.29-.14-.18-.19-.42-.13-.65l2.51-9.48c.09-.33.38-.56.73-.56h19.94c.22,0,.43.1.58.27.14.17.2.4.16.61l-1.7,9.48c-.06.36-.37.62-.74.62ZM163.4,337.87h19.15l1.43-7.98h-18.47l-2.12,7.98Z"/>
        <path class="cls-14" d="M219.01,339.37h-20.75c-.21,0-.42-.09-.56-.25-.14-.16-.21-.37-.18-.58l1.11-9.48c.04-.38.36-.66.75-.66h19.94c.2,0,.4.08.54.23.14.15.22.34.21.55l-.3,9.48c-.01.41-.34.73-.75.73ZM199.1,337.87h19.18l.25-7.98h-18.5l-.93,7.98Z"/>
        <path class="cls-14" d="M254.85,339.37h-20.75c-.41,0-.74-.32-.75-.73l-.3-9.48c0-.2.07-.4.21-.55.14-.15.34-.23.54-.23h19.94c.38,0,.7.29.75.66l1.11,9.48c.02.21-.04.43-.18.59-.14.16-.35.25-.56.25ZM234.82,337.87h19.18l-.93-7.98h-18.5l.25,7.98Z"/>
        <path class="cls-14" d="M290.68,339.37h-20.75c-.36,0-.67-.26-.74-.62l-1.7-9.48c-.04-.22.02-.44.16-.61.14-.17.35-.27.58-.27h19.94c.34,0,.64.23.72.56l2.51,9.48c.06.22.01.46-.13.65-.14.18-.36.29-.59.29ZM270.55,337.87h19.15l-2.12-7.98h-18.47l1.43,7.98Z"/>
        <path class="cls-14" d="M326.51,339.37h-20.75c-.32,0-.61-.21-.71-.52l-3.11-9.48c-.07-.23-.04-.48.11-.67.14-.19.37-.31.61-.31h19.94c.3,0,.58.18.69.46l3.92,9.48c.1.23.07.5-.07.7-.14.21-.37.33-.62.33ZM306.3,337.87h19.09l-3.3-7.98h-18.4l2.62,7.98Z"/>
        <path class="cls-14" d="M362.35,339.37h-20.75c-.29,0-.55-.17-.68-.43l-4.51-9.48c-.11-.23-.09-.5.04-.72.14-.22.38-.35.63-.35h19.94c.27,0,.52.15.65.38l5.32,9.48c.13.23.13.52,0,.75-.13.23-.38.37-.65.37ZM342.07,337.87h19l-4.48-7.98h-18.31l3.8,7.98Z"/>
        <path class="cls-14" d="M397.44,339.37h-20.75c-.29,0-.55-.17-.68-.43l-4.51-9.48c-.11-.23-.09-.5.04-.72.14-.22.38-.35.63-.35h19.94c.27,0,.52.15.65.38l5.33,9.48c.13.23.13.52,0,.75-.13.23-.38.37-.65.37ZM377.16,337.87h19l-4.48-7.98h-18.31l3.8,7.98Z"/>
      </g>
    </g>
    <g>
      <g>
        <rect class="cls-8" x="163.09" y="82.93" width="170.9" height="195.76" rx="17.35" ry="17.35"/>
        <path class="cls-3" d="M281.04,92.69c0,2.37-1.92,4.29-4.29,4.29s-4.29-1.92-4.29-4.29,1.92-4.29,4.29-4.29,4.29,1.92,4.29,4.29Z"/>
        <path class="cls-7" d="M299.9,92.69c0,2.37-1.92,4.29-4.29,4.29s-4.29-1.92-4.29-4.29,1.92-4.29,4.29-4.29,4.29,1.92,4.29,4.29Z"/>
        <path class="cls-14" d="M318.76,92.69c0,2.37-1.92,4.29-4.29,4.29s-4.29-1.92-4.29-4.29,1.92-4.29,4.29-4.29,4.29,1.92,4.29,4.29Z"/>
        <path class="cls-14" d="M316.64,279.44h-136.19c-9.98,0-18.1-8.12-18.1-18.1V100.28c0-9.98,8.12-18.1,18.1-18.1h136.19c9.98,0,18.1,8.12,18.1,18.1v161.05c0,9.98-8.12,18.1-18.1,18.1ZM180.45,83.68c-9.16,0-16.6,7.45-16.6,16.6v161.05c0,9.16,7.45,16.6,16.6,16.6h136.19c9.16,0,16.6-7.45,16.6-16.6V100.28c0-9.16-7.45-16.6-16.6-16.6h-136.19Z"/>
        <path class="cls-14" d="M333.99,101.03h-170.9c-.41,0-.75-.34-.75-.75s.34-.75.75-.75h170.9c.41,0,.75.34.75.75s-.34.75-.75.75Z"/>
      </g>
      <polygon class="cls-5" points="222.01 122.17 203.44 114.31 184.88 122.17 184.88 78.4 222.01 78.4 222.01 122.17"/>
      <g>
        <rect class="cls-1" x="175.82" y="132.46" width="43.05" height="46.5"/>
        <g>
          <rect class="cls-6" x="224.82" y="132.46" width="96.45" height="3.95"/>
          <rect class="cls-6" x="224.82" y="143.04" width="96.45" height="3.95"/>
          <rect class="cls-6" x="224.82" y="153.61" width="96.45" height="3.95"/>
          <rect class="cls-6" x="224.82" y="164.19" width="96.45" height="3.95"/>
          <rect class="cls-6" x="224.82" y="174.77" width="55.74" height="3.95"/>
          <g>
            <rect class="cls-6" x="175.82" y="195.31" width="145.45" height="3.95"/>
            <rect class="cls-6" x="175.82" y="205.89" width="145.45" height="3.95"/>
            <rect class="cls-6" x="175.82" y="216.47" width="145.45" height="3.95"/>
            <rect class="cls-6" x="175.82" y="227.05" width="145.45" height="3.95"/>
            <rect class="cls-6" x="175.82" y="237.63" width="104.74" height="3.95"/>
          </g>
        </g>
        <rect class="cls-11" x="253.7" y="113.09" width="66.97" height="11.04"/>
        <path class="cls-14" d="M252.69,268.64c-.11,0-.22-.02-.32-.07l-15.32-7.31c-.37-.18-.53-.63-.35-1,.18-.37.63-.53,1-.35l15,7.15,15-7.15c.38-.18.82-.02,1,.35.18.37.02.82-.35,1l-15.32,7.31c-.1.05-.21.07-.32.07Z"/>
      </g>
    </g>
    <g>
      <path class="cls-8" d="M463.44,444.33h-88.9l-24.06-90.68s-24.46-25.84-36.09-44.32c-11.65-18.5-16.15-24.64-17.15-30.68-.88-5.4-7.23-44.6-8.58-52.94-.16-.9.13-1.82.75-2.47.1-.13.22-.23.36-.34,2.8-2.12,9.63-4.93,17.4,8.46,8.94,15.44,10.24,34.92,10.44,39.45l3.17,5.35,8.66,14.61,10.83,18.25s11.52-2.13,19.4-11.5l-10.81-18.25-8.66-14.61-3.4-5.75-.04-.05-23.26-32.73s-11.45-4.96-22.73-10.28c-11.28-5.32-14.89-23.82-6.67-22.56,3.12.48,10,3,17.33,5.95,11.94,4.78,25.07,10.66,25.07,10.66,5.14-4.69,13.89-1.99,13.89-1.99,0,0,6.14-3.25,12.28-2.35,6.13.91,34.2,27.34,38.61,36.09,4.43,8.75,14.8,91.07,14.8,91.07l57.38,111.61Z"/>
      <path class="cls-13" d="M295.84,200.03c-.19,1.42-.59,3.08-1.47,4.45-.96,1.49-2.87,2.05-4.5,1.37l-7.95-3.27c-1.54-.64-2.47-2.22-2.28-3.86.15-1.32.52-2.84,1.35-4.1.92-1.41,2.7-1.97,4.29-1.41l8.11,2.83c1.66.58,2.68,2.25,2.45,3.99Z"/>
      <path class="cls-13" d="M299.16,237.46c-2.12,1.73-5.41,1.83-7.16,1.75-.69-.03-1.25-.54-1.37-1.22l-1.86-11.48c-.08-.53.13-1.07.55-1.4,2.22-1.72,4.91-1.72,6.23-1.58.51.05.97.35,1.19.82,1.43,3.07,2.58,9.55,2.94,11.75.08.52-.12,1.04-.52,1.37Z"/>
      <path class="cls-12" d="M340.18,264.67c-7.89,9.37-19.41,11.5-19.41,11.5l-3.17-5.35c-.19-4.53-1.49-24.02-10.44-39.45-7.76-13.4-14.59-10.58-17.4-8.46-.14.1-.26.21-.36.34l-23.29-39.32c.39.57,1.41,2.03,2.75,3.32l.22.22c.38.35.77.69,1.18.97.12.1.25.18.38.27.23.16.47.3.71.42.17.09.34.17.51.23.17.06.34.13.52.18.16.04.32.08.49.1h.03c.17.03.34.04.51.04.55,0,1.1-.14,1.64-.45,2.09-1.23,2.52-3.64,2.44-5.67,0-.06,0-.13-.01-.19-.01-.38-.04-.73-.09-1.05,0-.06-.01-.12-.01-.17-.03-.16-.05-.3-.06-.43-.01-.01-.01-.03-.01-.03-.14-.87-.34-1.48-.36-1.6.03.03.08.08.14.16.04.04.08.08.12.13.05.05.1.12.16.17.19.19.44.43.73.69.12.13.25.23.38.34.16.13.31.27.48.39.04.04.09.08.13.1.19.16.39.3.6.43.05.04.1.08.16.12.34.21.7.42,1.06.58.19.09.38.18.57.25.19.08.39.13.58.18.18.06.38.1.57.12.53.08,1.05.06,1.57-.08.16-.04.31-.09.47-.16.16-.06.32-.16.48-.25.43-.26.75-.6,1-1.01.06-.09.12-.18.17-.29h0c.09-.21.17-.4.23-.61.03-.05.04-.09.04-.14.06-.17.1-.35.13-.53.04-.21.06-.42.08-.62.01-.03.01-.06.01-.1.04-.44.04-.9.01-1.38-.01-.18-.03-.36-.04-.53-.05-.58-.13-1.17-.25-1.73-.03-.19-.06-.38-.12-.56-.05-.26-.1-.52-.17-.77-.06-.26-.13-.51-.19-.74-.3-1.08-.58-1.86-.66-2.05l16.03,27.04c-7.34-2.95-14.22-5.47-17.33-5.95-8.22-1.26-4.61,17.24,6.67,22.56,11.28,5.32,22.73,10.28,22.73,10.28l23.26,32.73.04.05,3.4,5.75Z"/>
      <path class="cls-6" d="M348.84,279.27c-7.89,9.39-19.41,11.5-19.41,11.5l-8.66-14.61s11.52-2.13,19.41-11.5l8.66,14.61Z"/>
      <path class="cls-8" d="M359.66,297.52c-7.88,9.37-19.4,11.5-19.4,11.5l-10.83-18.25s11.52-2.12,19.41-11.5l10.81,18.25Z"/>
      <path class="cls-8" d="M286.8,178.56c.03.48.03.93-.01,1.38,0,.04,0,.08-.01.1-.01.21-.04.42-.08.62-.01.05-.03.12-.04.17-.01.06-.01.12-.04.17-.01.06-.03.13-.05.19-.01.05-.03.09-.04.14-.06.21-.14.4-.23.6h0c-.05.12-.1.21-.17.3-.25.42-.57.75-1,1.01-.16.09-.32.18-.48.25-.16.06-.31.12-.47.16-.52.14-1.04.16-1.57.08-.18-.03-.38-.06-.57-.12-.19-.05-.39-.1-.58-.18-.19-.06-.38-.16-.57-.25-.36-.17-.73-.38-1.06-.58-.05-.04-.1-.08-.16-.12-.21-.13-.4-.27-.6-.43-.04-.03-.09-.06-.13-.1-.17-.12-.32-.26-.48-.39-.13-.1-.26-.22-.38-.34-.29-.26-.53-.49-.73-.69-.05-.06-.1-.13-.16-.17-.04-.05-.08-.09-.12-.13-.07-.08-.12-.13-.14-.16.03.12.22.73.36,1.6,0,0,0,.01.01.03.01.13.04.27.06.43,0,.05.01.1.01.17.05.32.08.68.09,1.05.01.06.01.13.01.19.08,2.04-.35,4.44-2.44,5.67-.53.31-1.09.45-1.64.45-.17,0-.34-.01-.51-.04h-.03c-.17-.03-.34-.06-.49-.1-.18-.05-.35-.12-.52-.18-.17-.06-.34-.14-.51-.23-.25-.12-.48-.26-.71-.42-.13-.09-.26-.17-.38-.27-.42-.29-.8-.62-1.18-.97l-.22-.22c-1.34-1.3-2.36-2.75-2.75-3.32-.1-.17-.17-.26-.17-.26l-3.76-19.33c2.13-1.16,5.27-3.28,6.75-6.34l16.42,14.16s0,.01.01.04c.08.19.36.97.66,2.05.06.23.13.48.19.74.06.25.12.51.17.77.05.18.09.36.12.56.12.56.19,1.14.25,1.73.01.18.03.36.04.53Z"/>
      <path class="cls-14" d="M268.93,157.99c-1.48,3.05-4.62,5.18-6.75,6.34l-1.34-6.88,3.12-3.75,4.97,4.3Z"/>
      <path class="cls-14" d="M374.53,445.08c-.33,0-.63-.22-.72-.56l-24.01-90.5c-1.96-2.08-24.95-26.66-36.05-44.3-2.02-3.21-3.83-6.06-5.44-8.59-7.75-12.19-10.96-17.23-11.81-22.37-.88-5.4-7.23-44.6-8.58-52.95-.19-1.12.16-2.28.95-3.11.1-.13.26-.28.46-.43,1.53-1.15,4.03-2.4,7.19-1.76,3.93.8,7.73,4.31,11.29,10.46,8.75,15.1,10.27,33.9,10.53,39.61l22.28,37.58c2.24-.53,11.45-3.1,18.11-10.73l-22.6-38.15-23.15-32.56c-1.55-.67-12.19-5.32-22.56-10.21-8.77-4.14-12.85-15.48-11.22-20.81.73-2.39,2.55-3.55,4.98-3.17,2.78.43,8.67,2.44,17.5,5.99,10.61,4.24,22.28,9.41,24.66,10.48,4.92-4.06,12.35-2.34,13.95-1.91,1.29-.63,6.82-3.11,12.46-2.29,6.83,1.01,34.9,28.02,39.17,36.5,4.39,8.67,14.24,86.29,14.86,91.19l57.32,111.49c.19.37.04.82-.32,1.01-.37.19-.82.04-1.01-.32l-57.38-111.61c-.04-.08-.07-.16-.08-.25-.1-.82-10.41-82.29-14.73-90.83-4.44-8.8-32.18-34.82-38.05-35.69-5.83-.85-11.76,2.24-11.82,2.27-.18.09-.38.11-.57.05-.08-.03-8.41-2.51-13.17,1.82-.22.2-.54.25-.81.13-.13-.06-13.25-5.93-25.04-10.65-8.6-3.45-14.54-5.5-17.17-5.9-1.69-.26-2.81.45-3.32,2.13-1.49,4.87,2.59,15.32,10.43,19.02,11.14,5.26,22.6,10.22,22.71,10.27.13.05.23.14.31.25l23.26,32.73s.06.09.07.1l22.87,38.61c.16.27.13.62-.07.86-7.96,9.47-19.35,11.67-19.83,11.76-.31.06-.62-.08-.78-.35l-22.66-38.21c-.06-.11-.1-.23-.1-.35-.23-5.39-1.66-24.13-10.34-39.11-3.34-5.76-6.8-9.04-10.29-9.74-2.61-.53-4.71.52-6,1.5-.11.08-.18.14-.23.21-.5.53-.71,1.21-.6,1.87,1.35,8.36,7.7,47.55,8.58,52.95.8,4.84,3.96,9.8,11.6,21.81,1.61,2.53,3.42,5.38,5.45,8.59,11.46,18.21,35.76,43.95,36,44.21.09.09.15.2.18.32l24.06,90.68c.11.4-.13.81-.53.92-.06.02-.13.03-.19.03Z"/>
      <path class="cls-14" d="M329.43,291.52c-.26,0-.51-.14-.65-.37l-11.83-19.96c-.06-.11-.1-.23-.1-.35-.23-5.39-1.66-24.13-10.34-39.11-3.34-5.76-6.8-9.04-10.29-9.74-2.61-.53-4.71.52-6,1.5-.11.08-.18.14-.23.21-.16.19-.4.29-.64.28-.25-.02-.47-.15-.59-.37l-23.29-39.32c-.21-.35-.1-.8.24-1.02.34-.22.79-.12,1.02.21.47.69,1.44,2.03,2.65,3.21l.23.23c.41.38.75.66,1.08.89.13.11.2.15.26.2l.12.08c.19.13.39.25.61.35.17.09.31.16.46.21.15.06.3.12.46.16.1.02.23.06.36.08.02,0,.05,0,.06,0,.57.09,1.13-.02,1.65-.32,1.47-.87,2.16-2.55,2.07-5,0-.04-.01-.16-.01-.2-.01-.34-.03-.66-.08-.96,0-.04,0-.08,0-.12,0-.03,0-.06,0-.08-.02-.14-.04-.25-.05-.34,0-.02-.01-.05-.02-.07h0c-.11-.65-.24-1.14-.31-1.38-.02-.09-.04-.15-.05-.18-.07-.33.08-.66.38-.82.29-.16.66-.1.89.13.04.04.1.11.18.2.01.01.05.04.08.09.08.08.15.16.2.22.13.13.37.35.64.6.14.15.24.23.34.31l.14.12c.1.08.19.17.29.24.04.03.07.05.1.09.24.19.41.31.59.43l.21.15c.32.19.64.37.93.5l.1.04c.13.06.26.13.4.17.2.08.37.12.53.17.19.06.31.09.44.1.52.07.93.05,1.32-.05.14-.03.26-.07.38-.12.13-.05.26-.13.39-.2.3-.18.54-.43.73-.75.05-.08.08-.13.11-.18,0-.02.01-.04.02-.05.08-.16.14-.33.2-.5,0-.02.05-.18.06-.19,0-.04.02-.1.04-.15,0-.03.01-.08.01-.08,0,0,.02-.1.02-.1,0,0,.02-.1.02-.1.03-.14.05-.32.06-.49,0-.04,0-.08.02-.12.03-.43.03-.82,0-1.27l-.04-.52c-.05-.59-.13-1.14-.23-1.63-.03-.21-.06-.36-.1-.51-.06-.3-.11-.55-.17-.78-.07-.26-.13-.5-.19-.73-.28-1.03-.56-1.79-.64-1.97-.15-.36.01-.78.36-.95.35-.17.78-.05.98.29l16.03,27.04c.16.28.13.63-.08.87-.21.24-.55.33-.85.21-8.6-3.45-14.53-5.49-17.17-5.9-1.69-.26-2.81.45-3.32,2.13-1.49,4.87,2.59,15.32,10.43,19.02,11.14,5.26,22.6,10.22,22.71,10.27.13.05.23.14.31.25l23.26,32.73s.06.09.07.1l12.06,20.36c.16.27.13.62-.07.87-7.98,9.48-19.37,11.67-19.85,11.76-.05,0-.09.01-.14.01ZM318.35,270.6l11.46,19.33c2.24-.53,11.45-3.09,18.12-10.73l-11.79-19.89-23.15-32.56c-1.55-.67-12.19-5.32-22.56-10.21-8.77-4.14-12.85-15.48-11.22-20.81.73-2.39,2.55-3.55,4.98-3.17,2.56.4,7.76,2.13,15.45,5.17l-12.23-20.62c.04.27.07.57.1.87l.04.54c.03.56.03,1.05-.01,1.5,0,0,0,.08-.02.17-.02.21-.04.42-.08.63,0,0-.02.1-.03.11-.02.1-.04.2-.07.3-.02.07-.03.14-.06.21,0,.02-.01.05-.01.05-.09.29-.17.5-.26.71-.01.03-.02.07-.04.1-.07.14-.14.26-.23.39-.29.49-.7.9-1.22,1.22-.19.11-.4.22-.58.3-.19.08-.38.14-.57.19-.57.16-1.19.19-1.86.09-.21-.01-.47-.07-.72-.15-.17-.04-.39-.1-.61-.19-.15-.05-.33-.13-.52-.22-.43-.2-.79-.4-1.23-.67l-.21-.15c-.18-.11-.4-.27-.62-.45-.01,0-.07-.05-.13-.11-.11-.08-.21-.16-.32-.25.04.29.07.61.08,1,.01.09.01.18.01.27.11,2.97-.86,5.17-2.81,6.32-.81.47-1.7.64-2.59.52-.03,0-.05,0-.07,0-.19-.03-.39-.07-.56-.12-.23-.06-.42-.14-.61-.21-.2-.08-.39-.17-.59-.27-.21-.1-.46-.25-.77-.45l-.06-.04,19.43,32.81c1.54-1.09,3.94-2.17,6.92-1.57,3.93.8,7.73,4.31,11.29,10.46,8.75,15.1,10.27,33.9,10.53,39.61Z"/>
      <path class="cls-14" d="M340.26,309.78c-.26,0-.51-.14-.65-.37l-10.83-18.25c-.12-.21-.14-.47-.04-.69.1-.22.31-.38.55-.43.11-.02,11.35-2.19,18.97-11.25.16-.19.39-.29.64-.26.24.02.46.16.58.37l10.81,18.25c.16.27.13.62-.07.86-7.96,9.47-19.35,11.67-19.83,11.76-.05,0-.09.01-.14.01ZM330.6,291.28l10.02,16.9c2.24-.53,11.45-3.1,18.11-10.73l-10.01-16.9c-6.6,7.34-15.17,10-18.12,10.73Z"/>
      <path class="cls-14" d="M273.41,190.43c-.19,0-.38-.01-.58-.04-.03,0-.05,0-.07,0-.19-.03-.39-.07-.56-.12-.23-.06-.42-.14-.61-.21-.2-.08-.39-.17-.59-.27-.21-.1-.46-.25-.77-.45l-.11-.07c-.12-.08-.24-.16-.35-.26-.32-.21-.71-.53-1.19-.98l-.24-.24c-1.3-1.26-2.34-2.69-2.84-3.43-.1-.16-.16-.24-.16-.25-.06-.09-.1-.19-.12-.29l-5.1-26.21c-.04-.22.02-.45.16-.62l3.12-3.75c.13-.16.31-.25.52-.27.2-.01.4.05.55.18l21.39,18.46c.12.1.2.23.24.38.14.36.4,1.11.67,2.08.07.24.13.49.2.76.07.25.12.53.18.8.05.16.09.37.12.6.1.49.19,1.1.25,1.76l.04.54s0,.01,0,.02c.03.55.03,1.03-.01,1.48,0,0,0,.08-.02.17-.02.21-.04.42-.08.63,0,0-.02.1-.03.11-.02.1-.04.2-.07.3-.02.07-.03.14-.06.21,0,.02-.01.05-.01.05-.09.29-.17.5-.26.71-.01.03-.02.07-.04.1-.07.14-.14.26-.23.39-.29.49-.7.9-1.22,1.22-.19.11-.4.22-.58.3-.19.08-.38.14-.57.19-.57.16-1.19.19-1.86.09-.21-.03-.43-.07-.66-.13-.24-.06-.45-.12-.67-.21-.15-.05-.33-.13-.52-.22-.43-.2-.79-.4-1.23-.67l-.21-.15c-.18-.11-.4-.27-.62-.45-.01,0-.07-.05-.13-.11-.11-.08-.21-.16-.32-.25.04.29.07.61.08,1,.01.09.01.18.01.27.11,2.97-.86,5.17-2.81,6.32-.63.37-1.31.56-2.02.56ZM272.95,188.89s.05,0,.06,0c.57.09,1.13-.02,1.65-.32,1.47-.87,2.16-2.55,2.07-5,0-.04-.01-.16-.01-.2-.01-.34-.03-.66-.08-.96,0-.04,0-.08,0-.12,0-.03,0-.06,0-.08-.02-.14-.04-.25-.05-.34,0-.02-.01-.05-.02-.07h0c-.11-.65-.24-1.14-.31-1.38-.02-.09-.04-.15-.05-.18-.07-.33.08-.66.38-.82.29-.16.66-.1.89.13.04.04.1.11.18.2.01.01.05.04.08.09.08.08.15.16.2.22.13.13.37.35.64.6.12.12.23.22.34.31l.14.12c.1.08.19.17.29.24.04.03.07.05.1.09.24.19.41.31.59.43l.21.15c.32.19.64.37.93.5l.1.04c.13.06.26.13.4.17.2.08.37.12.53.17.18.05.34.08.5.1.47.07.88.05,1.27-.06.14-.03.26-.07.38-.12.13-.05.26-.13.39-.2.3-.18.54-.43.73-.75.05-.08.08-.13.11-.18,0-.02.01-.04.02-.05.08-.16.14-.33.2-.5,0-.02.05-.18.06-.19,0-.04.02-.1.04-.15,0-.03.01-.08.01-.08,0,0,.02-.1.02-.1,0,0,.02-.1.02-.1.03-.14.05-.32.06-.49,0-.04,0-.08.02-.12.03-.43.03-.82,0-1.27l-.04-.52c-.05-.59-.13-1.14-.23-1.63-.03-.21-.06-.36-.1-.51-.06-.3-.11-.55-.17-.78-.07-.26-.13-.5-.19-.73-.24-.87-.48-1.55-.59-1.85l-20.67-17.84-2.4,2.89,5.01,25.71s.06.09.1.16c.45.67,1.43,2.01,2.64,3.18l.23.23c.41.38.75.66,1.08.89.13.11.2.15.26.2l.12.08c.19.13.39.25.61.35.17.09.31.16.46.21.15.06.3.12.46.16.1.02.23.06.36.08Z"/>
      <path class="cls-14" d="M284.07,194.04c-.28,0-.54-.15-.67-.42l-6-12.06c-.18-.37-.03-.82.34-1.01.37-.19.82-.03,1.01.34l6,12.06c.18.37.03.82-.34,1.01-.11.05-.22.08-.33.08Z"/>
      <path class="cls-14" d="M332.18,272.24c-.25,0-.5-.13-.64-.36l-14.91-24.18c-.22-.35-.11-.81.25-1.03.35-.22.81-.11,1.03.25l14.91,24.18c.22.35.11.81-.25,1.03-.12.08-.26.11-.39.11Z"/>
      <path class="cls-14" d="M359.66,248.06c-.21,0-.41-.08-.56-.25l-33.18-37.41c-.27-.31-.25-.78.06-1.06.31-.27.78-.25,1.06.06l33.18,37.41c.27.31.25.78-.06,1.06-.14.13-.32.19-.5.19Z"/>
      <path class="cls-14" d="M371.52,236.99c-.18,0-.36-.06-.5-.2l-31.15-28.33c-.31-.28-.33-.75-.05-1.06.28-.31.75-.33,1.06-.05l31.15,28.33c.31.28.33.75.05,1.06-.15.16-.35.25-.55.25Z"/>
      <path class="cls-14" d="M350.48,354.4c-.35,0-.66-.24-.73-.6-.08-.41.17-.8.58-.89.09-.02,9.14-1.93,14.56-4.05.39-.15.82.04.97.42.15.39-.04.82-.42.97-5.53,2.16-14.42,4.04-14.79,4.12-.05.01-.1.02-.16.02Z"/>
    </g>
    <g>
      <circle class="cls-13" cx="114.35" cy="139.86" r="3.41"/>
      <path class="cls-13" d="M130.84,143.27c-1.89,0-3.41-1.53-3.41-3.41s1.53-3.41,3.41-3.41,3.41,1.53,3.41,3.41-1.53,3.41-3.41,3.41Z"/>
      <circle class="cls-13" cx="114.35" cy="156.35" r="3.41"/>
      <circle class="cls-13" cx="114.35" cy="172.84" r="3.41"/>
      <circle class="cls-13" cx="114.35" cy="189.34" r="3.41"/>
      <path class="cls-13" d="M110.93,205.83c0-1.89,1.53-3.41,3.41-3.41s3.41,1.53,3.41,3.41-1.53,3.41-3.41,3.41-3.41-1.53-3.41-3.41Z"/>
      <path class="cls-13" d="M130.84,159.77c-1.89,0-3.41-1.53-3.41-3.41s1.53-3.41,3.41-3.41,3.41,1.53,3.41,3.41-1.53,3.41-3.41,3.41Z"/>
      <path class="cls-13" d="M127.43,172.84c0-1.89,1.53-3.41,3.41-3.41s3.41,1.53,3.41,3.41-1.53,3.41-3.41,3.41-3.41-1.53-3.41-3.41Z"/>
      <path class="cls-13" d="M127.43,189.34c0-1.89,1.53-3.41,3.41-3.41s3.41,1.53,3.41,3.41-1.53,3.41-3.41,3.41-3.41-1.53-3.41-3.41Z"/>
      <path class="cls-13" d="M127.43,205.83c0-1.89,1.53-3.41,3.41-3.41s3.41,1.53,3.41,3.41-1.53,3.41-3.41,3.41-3.41-1.53-3.41-3.41Z"/>
      <circle class="cls-13" cx="114.35" cy="222.32" r="3.41"/>
      <path class="cls-13" d="M127.43,222.32c0-1.89,1.53-3.41,3.41-3.41s3.41,1.53,3.41,3.41-1.53,3.41-3.41,3.41-3.41-1.53-3.41-3.41Z"/>
    </g>
    <g>
      <path class="cls-13" d="M366.81,143.44c-1.89,0-3.41-1.53-3.41-3.41s1.53-3.41,3.41-3.41,3.41,1.53,3.41,3.41-1.53,3.41-3.41,3.41Z"/>
      <path class="cls-13" d="M383.3,143.44c-1.89,0-3.41-1.53-3.41-3.41s1.53-3.41,3.41-3.41,3.41,1.53,3.41,3.41-1.53,3.41-3.41,3.41Z"/>
      <circle class="cls-13" cx="366.81" cy="156.52" r="3.41"/>
      <circle class="cls-13" cx="366.81" cy="173.01" r="3.41"/>
      <circle class="cls-13" cx="366.81" cy="189.5" r="3.41"/>
      <circle class="cls-13" cx="383.3" cy="156.52" r="3.41"/>
      <circle class="cls-13" cx="383.3" cy="173.01" r="3.41"/>
      <circle class="cls-13" cx="383.3" cy="189.5" r="3.41"/>
      <circle class="cls-13" cx="349.78" cy="139.45" r="3.41"/>
      <circle class="cls-13" cx="349.78" cy="155.95" r="3.41"/>
      <circle class="cls-13" cx="349.78" cy="172.44" r="3.41"/>
      <path class="cls-13" d="M346.37,188.93c0-1.89,1.53-3.41,3.41-3.41s3.41,1.53,3.41,3.41-1.53,3.41-3.41,3.41-3.41-1.53-3.41-3.41Z"/>
    </g>
    <g>
      <path class="cls-13" d="M368.82,70.13c0,1.05-.85,1.9-1.9,1.9h-4.96v4.96c0,1.05-.85,1.9-1.9,1.9-.53,0-1-.21-1.35-.56-.34-.35-.56-.82-.56-1.35v-4.96h-4.96c-1.05,0-1.9-.85-1.9-1.9,0-.53.21-1,.56-1.35.35-.34.82-.56,1.35-.56h4.96v-4.96c0-1.05.85-1.9,1.9-1.9.53,0,1,.21,1.35.56.34.35.56.82.56,1.35v4.96h4.96c1.05,0,1.9.85,1.9,1.9Z"/>
      <path class="cls-13" d="M364.77,91.49c-3.3,0-3.31,5.14,0,5.14s3.31-5.14,0-5.14Z"/>
      <path class="cls-13" d="M388.34,70.65c-3.31,0-3.31,5.14,0,5.14s3.31-5.14,0-5.14Z"/>
    </g>
    <g>
      <path class="cls-13" d="M448.47,154.04c0,1.05-.85,1.9-1.9,1.9h-4.96v4.96c0,1.05-.85,1.9-1.9,1.9-.53,0-1-.21-1.35-.56-.34-.35-.56-.82-.56-1.35v-4.96h-4.96c-1.05,0-1.9-.85-1.9-1.9,0-.53.21-1,.56-1.35.35-.34.82-.56,1.35-.56h4.96v-4.96c0-1.05.85-1.9,1.9-1.9.53,0,1,.21,1.35.56.34.35.56.82.56,1.35v4.96h4.96c1.05,0,1.9.85,1.9,1.9Z"/>
      <path class="cls-13" d="M420.34,169.46c-3.3,0-3.31,5.14,0,5.14s3.31-5.14,0-5.14Z"/>
      <path class="cls-13" d="M423.13,131.86c-3.3,0-3.31,5.14,0,5.14s3.31-5.14,0-5.14Z"/>
    </g>
    <g>
      <path class="cls-13" d="M143.02,92.69c0,1.05-.85,1.9-1.9,1.9h-4.96v4.96c0,1.05-.85,1.9-1.9,1.9-.53,0-1-.21-1.35-.56-.34-.35-.56-.82-.56-1.35v-4.96h-4.96c-1.05,0-1.9-.85-1.9-1.9,0-.53.21-1,.56-1.35.35-.34.82-.56,1.35-.56h4.96v-4.96c0-1.05.85-1.9,1.9-1.9.53,0,1,.21,1.35.56.34.35.56.82.56,1.35v4.96h4.96c1.05,0,1.9.85,1.9,1.9Z"/>
      <path class="cls-13" d="M112.04,86.35c-3.3,0-3.31,5.14,0,5.14s3.31-5.14,0-5.14Z"/>
      <path class="cls-13" d="M148.02,68.36c-3.3,0-3.31,5.14,0,5.14s3.31-5.14,0-5.14Z"/>
    </g>
    <g>
      <path class="cls-13" d="M64.92,173.63c0,1.05-.85,1.9-1.9,1.9h-4.96v4.96c0,1.05-.85,1.9-1.9,1.9-.53,0-1-.21-1.35-.56-.34-.35-.56-.82-.56-1.35v-4.96h-4.96c-1.05,0-1.9-.85-1.9-1.9,0-.53.21-1,.56-1.35.35-.34.82-.56,1.35-.56h4.96v-4.96c0-1.05.85-1.9,1.9-1.9.53,0,1,.21,1.35.56.34.35.56.82.56,1.35v4.96h4.96c1.05,0,1.9.85,1.9,1.9Z"/>
      <path class="cls-13" d="M33.22,167.74c-3.31,0-3.31,5.14,0,5.14s3.31-5.14,0-5.14Z"/>
    </g>
  </g>
</svg>