<?xml version="1.0" encoding="UTF-8"?>
<svg id="OBJECTS" xmlns="http://www.w3.org/2000/svg" viewBox="0 0 432.4 399.6">
  <defs>
    <style>
      .cls-1 {
        fill: #95d959;
      }

      .cls-2 {
        fill: #071622;
      }

      .cls-3 {
        fill: #29663e;
      }

      .cls-4 {
        fill: #ff9a7d;
      }

      .cls-5 {
        fill: #367b28;
      }

      .cls-6 {
        stroke: #060305;
      }

      .cls-6, .cls-7, .cls-8, .cls-9 {
        fill: none;
        stroke-linecap: round;
        stroke-linejoin: round;
        stroke-width: .8px;
      }

      .cls-7 {
        stroke: #fff;
      }

      .cls-10 {
        fill: #fe5615;
      }

      .cls-11 {
        fill: #2a2a59;
      }

      .cls-12 {
        fill: #fff;
      }

      .cls-8 {
        stroke: #fe5615;
      }

      .cls-13 {
        fill: #814eff;
      }

      .cls-14 {
        fill: #ffd1c7;
      }

      .cls-15 {
        fill: #060305;
      }

      .cls-16 {
        fill: #b5e58b;
      }

      .cls-9 {
        stroke: #d8dbff;
      }
    </style>
  </defs>
  <g>
    <path class="cls-16" d="M429,391.97c0,7.63-89.39,7.63-199.66,7.63s-199.66,0-199.66-7.63,89.39-7.63,199.66-7.63,199.66,0,199.66,7.63Z"/>
    <path class="cls-16" d="M426.69,130.87c-5.85-19.17-21.28-35.23-40.32-41.5-3.45-1.14-7.05-1.99-10.11-3.94-3.06-1.95-5.54-5.34-5.18-8.95.57-5.75,7.53-8.51,13.31-8.41,5.78.09,11.83,1.7,17.17-.51,7.12-2.95,10.13-12.26,7.63-19.56-2.5-7.29-9.27-12.48-16.55-15.01-7.28-2.53-15.13-2.79-22.84-3.02-62.39-1.82-126.05.42-188.32-3.82-29.12-1.98-58.74-2.87-87.13,3.92-28.39,6.79-55.77,22.11-71.61,46.63-8.44,13.07-13.34,28.4-14.03,43.94-1.35,30.14,13.47,59.9,36.43,79.48,22.97,19.57,53.32,29.39,83.49,30.25l196.18.31c17.15-2.99,34.43-6.03,50.68-12.3,16.24-6.27,31.58-16.06,41.68-30.25,11.62-16.32,15.37-38.09,9.52-57.26Z"/>
  </g>
  <g>
    <rect class="cls-12" x="151.96" y="4.86" width="183.05" height="261.23"/>
    <g>
      <path class="cls-6" d="M308.1,206.75c-27.4-.13-53.55-.13-80.65,0"/>
      <path class="cls-6" d="M327.51,206.75h-14.35"/>
      <path class="cls-6" d="M258.05,200.33c-10.82-.19-20.23-.19-30.59,0"/>
      <path class="cls-6" d="M327.51,200.33c-21.72-.19-42.63-.19-64.28,0"/>
      <path class="cls-6" d="M236.23,193.9h-8.78"/>
      <path class="cls-6" d="M303.37,193.75c-20.96-.08-41.91-.03-62.87.15"/>
      <path class="cls-6" d="M327.51,193.9c-6.16-.05-12.32-.1-18.48-.13"/>
    </g>
    <g>
      <path class="cls-6" d="M189.51,67.64c13.12-.38,25.02-.38,37.95,0"/>
      <path class="cls-6" d="M172.97,67.64h10.89"/>
      <path class="cls-6" d="M213.66,74.63h13.79"/>
      <path class="cls-6" d="M172.97,74.63c12.35.19,23.17.19,35.09,0"/>
      <path class="cls-6" d="M205.48,81.63h21.97"/>
      <path class="cls-6" d="M172.97,81.63h27.24"/>
      <path class="cls-6" d="M193.47,88.63h23.41"/>
      <path class="cls-6" d="M172.97,88.63h13.79"/>
      <path class="cls-6" d="M192.73,95.63h34.72"/>
      <path class="cls-6" d="M172.97,95.63h11.83"/>
      <path class="cls-6" d="M220.58,102.63h6.88"/>
      <path class="cls-6" d="M172.97,102.63c13.43.31,25.33.31,38.3,0"/>
      <path class="cls-6" d="M199.46,109.63h28"/>
      <path class="cls-6" d="M172.97,109.63h21.23"/>
    </g>
    <g>
      <path class="cls-6" d="M271.68,67.64c15.29-.38,29.35-.38,44.31,0"/>
      <path class="cls-6" d="M242.39,67.64h22.76"/>
      <path class="cls-6" d="M256.24,74.63c19.92.19,40.46.19,59.75,0"/>
      <path class="cls-6" d="M242.39,74.63h8.05"/>
      <path class="cls-6" d="M242.39,81.63h25.26"/>
      <line class="cls-6" x1="242.39" y1="88.63" x2="315.99" y2="88.63"/>
    </g>
    <polygon class="cls-5" points="185.43 53.21 173.07 32.51 177.71 29.74 185.19 42.27 196.38 21.54 201.14 24.11 185.43 53.21"/>
    <g>
      <path class="cls-6" d="M232.68,27.11c28.33.13,55.37.13,83.38,0"/>
      <path class="cls-6" d="M212.61,27.11h14.84"/>
      <path class="cls-6" d="M284.43,33.54c11.18.19,20.92.19,31.63,0"/>
      <path class="cls-6" d="M212.61,33.54c22.45.19,44.08.19,66.46,0"/>
      <path class="cls-6" d="M306.99,39.97h9.08"/>
      <path class="cls-6" d="M237.57,40.12c21.67.08,43.33.03,65-.15"/>
      <path class="cls-6" d="M212.61,39.97c6.37.05,12.74.1,19.1.13"/>
    </g>
    <g>
      <circle class="cls-6" cx="198.34" cy="228.93" r="13.19" transform="translate(-89.07 324.57) rotate(-67.5)"/>
      <circle class="cls-6" cx="198.34" cy="228.93" r="17.26" transform="translate(-103.79 207.3) rotate(-45)"/>
    </g>
    <path class="cls-6" d="M234.39,223.81c-5.32,5.45-8.11,13.26-7.45,20.85,5.07-4.05,9.36-9.07,12.58-14.71.43-.75.79-1.82.12-2.37-.77-.63-1.85.21-2.47.99-1.03,1.3-2.1,2.67-2.36,4.31-.26,1.64.62,3.58,2.25,3.89.83.15,1.68-.13,2.41-.54,1.96-1.09,3.37-3.13,3.7-5.35-.88.8-1.78,1.63-2.24,2.73-.46,1.09-.34,2.53.59,3.26.99.78,2.52.45,3.46-.38.95-.83,1.45-2.05,1.92-3.22-.96,1.19-.69,3.17.55,4.07,1.24.9,3.2.53,4.04-.75"/>
  </g>
  <g>
    <g>
      <path class="cls-14" d="M264.23,88.74c-5.75,2.32-11.72,4.06-17.19,6.99-3.05,1.64-5.3,4.64-6.47,7.91-15.01,6.24-30.14,12.8-45.15,19.04-4.81-4.98-9.62-9.97-14.43-14.95-10.89,2.54-21.53,5.99-31.69,10.65-.2,3.05-.58,6.07-.78,9.13,7.63,6.42,15.22,12.96,22.84,19.37,5.24,4.41,11.66,7.7,18.47,8.5,6.81.8,13.86-.63,19.82-4.02,11.89-6.75,25.79-9.09,37.46-16.21l16.18-40.83c1.35-1.5,1.86-3.79.95-5.58Z"/>
      <path class="cls-6" d="M195.4,122.58l-1.31,2.01"/>
      <path class="cls-6" d="M240.83,103.7c-.04.76-.08,1.53-.12,2.29"/>
    </g>
    <g>
      <path class="cls-12" d="M321.92,81.7c-5.12-1.33-10.01-2.95-15.13-4.28-.78,2.55-3.15,4.53-5.8,4.85s-5.29-1.34-6.66-3.63c-4.1,1.52-8.21,3.04-12.31,4.56-4.65,29.76-8.97,59.02-13.62,88.78l55.27,1.3c-.48-30.53-1.28-61.05-1.76-91.58Z"/>
      <path class="cls-6" d="M288.94,81.34c2.68,4.16,7.68,6.71,12.62,6.42,4.94-.29,9.61-3.41,11.78-7.86"/>
      <path class="cls-9" d="M289.14,93.96l2.67,1.53"/>
      <path class="cls-9" d="M304.21,96.26c-.13.83-.25,1.65-.38,2.48"/>
      <path class="cls-9" d="M293.14,106.37c-.64.57-1.27,1.14-1.91,1.72"/>
      <path class="cls-9" d="M287.41,122.21c.57.89,1.14,1.78,1.72,2.67"/>
      <path class="cls-9" d="M303.25,119.73c1.27-.45,2.54-.89,3.82-1.34"/>
      <path class="cls-9" d="M304.21,132.32c.25.95.51,1.91.76,2.86"/>
      <path class="cls-9" d="M310.13,105.83c.89-.18,1.78-.36,2.68-.54"/>
      <path class="cls-9" d="M313.17,87.86c.76.32,1.53.64,2.29.95"/>
      <path class="cls-9" d="M291.23,135.57c.89-.32,1.78-.64,2.67-.95"/>
      <path class="cls-9" d="M280.16,142.24c.19,1.08.38,2.16.57,3.24"/>
      <path class="cls-9" d="M282.26,112.86h2.67"/>
      <path class="cls-9" d="M312.22,138.05c-.51.57-1.02,1.14-1.53,1.72"/>
      <path class="cls-9" d="M308.59,153.5c.76.51,1.53,1.02,2.29,1.53"/>
      <path class="cls-9" d="M296.94,147.97c-.13,1.08-.26,2.16-.38,3.24"/>
      <path class="cls-9" d="M282.64,159.8c.45.83.89,1.65,1.34,2.48"/>
      <path class="cls-9" d="M308.21,166.86c.76-.38,1.53-.76,2.29-1.14"/>
      <path class="cls-9" d="M298.13,159.99c-.06.89-.12,1.78-.18,2.67"/>
      <path class="cls-9" d="M276.16,164.19c.51.64,1.02,1.27,1.53,1.91"/>
      <path class="cls-9" d="M298.93,108.23l2.46-1.19"/>
      <path class="cls-9" d="M286.63,85.83c.76.2,1.52.39,2.28.59"/>
    </g>
    <g>
      <path class="cls-15" d="M379.55,347.63c-14.57,3.65-29.09,7.73-43.66,11.38,2.68,8.29,1.05,17.85-4.23,24.78-1.42,1.86-3.32,3.98-3.44,6.32l25.19.08c10.71-3.17,21.94-6.7,32.64-9.88-1.9-11.07-4.6-21.62-6.5-32.69Z"/>
      <path class="cls-7" d="M343.12,365.82c3.99-.66,7.98-1.31,11.97-1.97"/>
      <path class="cls-7" d="M343.16,370.14c4.07-.53,8.13-1.07,12.2-1.6"/>
      <path class="cls-7" d="M343.66,374.38c3.65-.59,7.3-1.17,10.94-1.76"/>
      <path class="cls-7" d="M382.17,369.57c-3.18,2.63-4.84,6.99-4.22,11.07"/>
    </g>
    <g>
      <path class="cls-15" d="M276.58,358.77c1.31,4.83.99,10.1-.9,14.73s-5.35,8.62-9.68,11.15c-2.43,1.42-4.84,2.84-5.96,5.43l63,.41c.41-10.81,1.17-21.56,1.58-32.37-15.9.27-32.14.38-48.04.65Z"/>
      <path class="cls-7" d="M279.02,367.45c2.8-.08,5.6-.17,8.4-.25"/>
      <path class="cls-7" d="M277.74,371.38l9.67-.08"/>
      <path class="cls-7" d="M276.22,376.06h8.14"/>
      <path class="cls-7" d="M308.21,388.99c2.86-4.32,8.13-6.93,13.3-6.6"/>
    </g>
    <g>
      <path class="cls-2" d="M382.83,351.43l-20.06-95.18c-4.02-27.21-7.19-54.39-11.21-81.6-28.5-2.08-58.08-3.83-86.59-5.9-.81,7.63-1.61,15.27-2.42,22.9-5.88,55.78,5.42,113.01,9.83,168.92,17.64.2,35.3.29,52.94.49-.18-10.52-.25-21.83-.43-32.34,2.34,10.61,4.81,21.18,7.15,31.79,16.85-3.21,33.95-5.87,50.8-9.08Z"/>
      <path class="cls-6" d="M296.77,208.15c9.56,41.31,19.12,82.61,28.67,123.92"/>
      <path class="cls-6" d="M269.86,175.06c15.68.65,31.37,1.3,47.05,1.94"/>
      <circle class="cls-6" cx="294.84" cy="173.58" r="6.96"/>
      <path class="cls-6" d="M272.41,347.91c17.13.6,34.27,1.2,51.4,1.8"/>
      <path class="cls-6" d="M330.95,349.02c16.26-2.83,32.53-5.65,48.79-8.48"/>
      <path class="cls-6" d="M315.24,349.6c-.08-19.59-.15-39.18-.23-58.77"/>
      <path class="cls-6" d="M372.95,341.7c-1.86-6.96-3.72-13.91-5.58-20.87-10.97-41.04-18.31-82.88-19.74-125.34"/>
    </g>
    <g>
      <g>
        <path class="cls-4" d="M207.84,148.02s-10.55,4.2-14.09,5.97c-1.72-1.26-3.82-2.17-5.94-2.08-3.5.16-7.32.44-10.82.6.64,4.88,1.61,9.67,2.25,14.54l21.08,15.61,16.11-5.98-8.59-28.67Z"/>
        <path class="cls-6" d="M193.66,153.95c.94,1.1,1.88,2.2,2.81,3.3"/>
      </g>
      <polygon class="cls-12" points="196.05 151.06 207.27 181.38 219.25 178.25 210.04 145.11 196.05 151.06"/>
    </g>
    <g>
      <rect class="cls-10" x="324.04" y="254.96" width="100.28" height="68.18" rx="14.58" ry="14.58"/>
      <path class="cls-10" d="M390.86,257.63l-3.67-12.6c-.55-1.89-2.31-3.21-4.28-3.21h-18.99c-2,0-3.76,1.34-4.3,3.27l-3.25,11.75-4.17-1.15,3.25-11.75c1.05-3.79,4.53-6.44,8.47-6.44h18.99c3.88,0,7.35,2.6,8.43,6.32l3.67,12.6-4.15,1.21Z"/>
      <path class="cls-6" d="M334.41,258.52c-.06,20.35-.12,40.71-.18,61.06"/>
      <path class="cls-6" d="M414.21,257.75c.15,20.61.29,41.22.44,61.82"/>
    </g>
    <g>
      <path class="cls-4" d="M355.57,219.11c1.12,8.6,2.23,17.2,3.35,25.8.22,1.68,1.39,3.47,2.99,4.03s3.52.04,4.61-1.26c.82,1.24,2.19,2.16,3.68,2.11,1.49-.05,2.92-.92,3.65-2.22.71,1.4,2.31,2.39,3.88,2.34,1.57-.06,3.06-1.08,3.67-2.52,1.05.6,2.51.41,3.57-.18,1.06-.59,1.76-1.76,1.79-2.97.21-8.24.46-16.66.74-24.9l-31.93-.22Z"/>
      <path class="cls-6" d="M366.03,245.54c.17.76.34,1.53.51,2.29"/>
      <path class="cls-6" d="M373.66,245.79v2.54"/>
      <path class="cls-6" d="M381.6,245.04c-.09.85-.17,1.7-.26,2.54"/>
    </g>
    <g>
      <path class="cls-3" d="M285.52,79.69c-6.48,1.94-12.8,3.75-19.27,5.69-.13,1.21-.23,2.29-.36,3.5-4.89,2.4-9.1,6.49-11.4,11.42-5.45,11.74-11.01,23.26-16.46,35.01-11.98,3.17-23.95,6.34-35.93,9.51,4.33,13.86,8.52,27.17,12.85,41.03,11.16-3.98,22.15-8.26,33.31-12.24,4.5-1.61,8.88-4.56,11.9-8.26-1.24,9.6-2.21,18.98-3.46,28.58l13.35,2.93,15.47-117.17Z"/>
      <path class="cls-6" d="M220.37,140.76c2.34,7.82,4.04,15.71,6.38,23.53-5.29,1.57-10.58,3.13-15.87,4.7"/>
      <path class="cls-6" d="M237.81,135.56c.72-.13,1.44-.25,2.16-.38"/>
      <path class="cls-6" d="M265.99,88.95c-.29,6.53-.57,13.06-.85,19.59,3.43.05,6.76.06,10.2.11-3.2,2.05-6.09,3.93-9.29,5.98,2.39,16.54,4.77,33.19,7.16,49.74"/>
      <path class="cls-6" d="M259.64,167.23c1.99-18.93,3.98-37.87,5.97-56.8"/>
    </g>
    <g>
      <path class="cls-3" d="M383.33,138.43c-6.86-11.58-12.77-24.07-20.82-34.86-6.35-8.5-13.76-13.22-25.99-16.94l.49-2.54-18.91-6.04-5.19,119.96,38.02-.38.49,22.98,37.19.96,1.72-53.2c.25-10.24-1.78-21.14-7.01-29.95Z"/>
      <path class="cls-6" d="M336.73,85.95c-1.81,7.39-3.62,14.78-5.43,22.18-3.57.18-7.77.42-11.33.6,3.16,1.92,6.12,4.47,9.27,6.38-4.58,17.25-9.33,34.48-13.91,51.74"/>
      <path class="cls-6" d="M350.85,197.2c-.08-12.98-.16-25.95-.24-38.93-4.53-13.16-10.67-29.01-15.76-43.71-1.78-5.14-1.42-10.81,2.03-15.02,3.45-4.21,9.33-6.25,14.64-5.1"/>
      <path class="cls-6" d="M351.78,203.83c9,.47,17.99.94,26.99,1.41-.16,5.26-.49,9.85-.65,15.11"/>
      <polyline class="cls-6" points="350.24 174.24 327.12 161.62 326.63 168.98 350.76 182.67"/>
    </g>
    <g>
      <g>
        <path class="cls-6" d="M302.11,45.41c-.19.76-.33,1.64-.52,2.4-5.11-1.6-10.63-1.54-15.99-1.54-1.9,0-3.79.68-5.25,1.9"/>
        <path class="cls-15" d="M308.81,55.27c-.33-2.02-.7-4.14-2-5.73-1.04-1.27-2.57-2.04-4.16-2.45-1.58-.41-3.36-.64-4.99-.53-3.28.2-6.56.41-9.84.61-1.48.09-2.99.19-4.38.72-1.39.53-2.65,1.58-3.07,3-.34,1.14-.07,2.43.69,3.35.75.91,2.07,1.57,3.25,1.45-.54.36-.95.9-1.15,1.52-.37,1.13.03,2.45.94,3.21.91.76,2.26.93,3.34.44,1.03,2.03,1.79,4.01,2.45,6.19l20.7-.88c-.59-3.63-1.18-7.27-1.77-10.9Z"/>
      </g>
      <g>
        <path class="cls-4" d="M309.02,78.77c-.27-2.55-.6-5-.87-7.55,2.1-.15,4.08-1.53,4.94-3.46.86-1.93.57-4.32-.73-5.98-1.3-1.66-3.54-2.53-5.62-2.17-.56,1.25-1.09,2.45-1.65,3.69-.54-.33-.96-.81-1.19-1.39l-2.21-5.48c-4.35.1-8.85.37-13.19.48-1.53,1.39-2.64,3.09-2.98,5.13-.34,2.01-.14,4.07-.2,6.1-.06,2.2.9,4.51,2.39,6.14,1.48,1.63,3.58,2.69,5.77,2.92.07.91.11,1.8.17,2.71,1.8,2.47,4.96,3.87,8.01,3.65,3.05-.22,5.93-2.1,7.37-4.8Z"/>
        <path class="cls-12" d="M298.87,68.16l-3.11.43c-.01.61.36,1.21.91,1.47.55.26,1.26.16,1.72-.24.46-.4.66-1.08.48-1.67Z"/>
        <path class="cls-15" d="M300.42,65.21c0-.48-.39-.86-.87-.86s-.86.39-.86.86.39.87.86.87.87-.39.87-.87Z"/>
        <path class="cls-15" d="M289.58,65.28c0-.48-.39-.86-.87-.86s-.86.39-.86.86.39.87.86.87.87-.39.87-.87Z"/>
        <path class="cls-6" d="M293.13,65.08l-.67,3.22c.44-.07.9,0,1.35-.07"/>
        <path class="cls-6" d="M293.07,77.26c2.54.66,5.29.46,7.7-.55"/>
        <path class="cls-6" d="M307.45,64.68c.89-.73,1.79-1.46,2.68-2.19"/>
        <path class="cls-6" d="M296.78,60.11c.72-1.03,2.38-1.23,3.32-.39"/>
        <path class="cls-6" d="M287.32,60.93c.83.06,1.65.13,2.48.19"/>
      </g>
    </g>
  </g>
  <g>
    <g>
      <g>
        <path class="cls-8" d="M92.84,85.86c-.06-1.49.73-2.9,1.81-3.93,1.08-1.02,2.42-1.72,3.74-2.4,4.17-2.15,8.34-4.3,12.52-6.45"/>
        <path class="cls-10" d="M136.03,52.38c-5.78-3.93-14.11-3.61-19.57.76-5.46,4.36-7.15,12.62-4.59,19.13-4.03,2.46-8.06,4.91-12.09,7.37-1.81,1.1-3.68,2.26-4.84,4.03-1.17,1.77-1.42,4.33,0,5.9l31.68,5.49c-.04-6.91.15-13.55.11-20.47,2.76-1.98,5.71-4.14,8.48-6.12.12-3.06.41-6.38.53-9.43,1.15-.71,1.92-1.99,2-3.34.08-1.35-.59-2.56-1.7-3.31Z"/>
      </g>
      <polygon class="cls-12" points="107.98 73.17 109.8 68.43 120.86 72.4 120.13 75.81 107.98 73.17"/>
    </g>
    <g>
      <path class="cls-1" d="M184.43,108.1c-5.56-5.51-10.78-11.5-16.61-16.72-4.64-4.15-10.02-7.61-16.16-8.65-6.81-1.15-13.3-2.25-20.11-3.4-1.46,2.19-4.22,3.44-6.83,3.1-2.61-.34-5.13-2.2-5.98-4.68-7.24,3.07-14.48,6.13-21.72,9.2-5.12,2.17-9.6,5.8-12.28,10.66-2.68,4.87-3.62,10.67-2.6,16.14,3.34,17.94,3.89,36.25,6.78,54.27l72.04-1.35c-.06-11.92.06-23.71,0-35.62,2.28-1.52,3.85-4.08,4.16-6.81.32-2.73-.5-5.8-2.38-7.81,6.98-2.74,14.69-5.58,21.68-8.33Z"/>
      <path class="cls-6" d="M108.84,82.65c4.23,5.09,8.46,10.18,12.69,15.27,1.85-3.83,3.78-7.45,5.63-11.29,3.35,3.08,6.68,5.94,10.03,9.01.48-4.83,1.19-9.54,1.67-14.37"/>
      <path class="cls-6" d="M149.84,83.1c.54,3.99,1.83,7.88,3.38,11.59,2.97,7.16,5.94,14.31,8.91,21.47"/>
      <path class="cls-6" d="M93.18,90.07c3.93-2.28,9.21-1.98,12.85.75,2.37,1.78,3.97,4.38,5.51,6.91,4.52,7.43,9.04,14.87,13.56,22.3"/>
      <path class="cls-6" d="M84.44,118.35c1.96,6.45,3.93,12.91,5.89,19.36"/>
      <path class="cls-6" d="M160.71,112.46c6.63-2.51,13.25-5.03,19.88-7.54"/>
      <path class="cls-6" d="M89.02,132.44c11.09-5.6,22.18-11.19,33.27-16.79"/>
      <path class="cls-6" d="M127.28,87.16c1.61,6.75,3.22,13.5,4.83,20.26"/>
    </g>
    <g>
      <path class="cls-11" d="M149.48,382.86c-4.4-3.72-7.53-8.93-8.74-14.56-1.22-5.63-.58-11.53,1.89-16.74-24.58-5.68-50.19-8.57-75.42-8.52-3.57,10.58-7.14,21.15-10.71,31.73,9.02,4.87,17.66,10.4,26.67,15.27l72.14.44c-.24-3.31-3.29-5.48-5.83-7.62Z"/>
      <path class="cls-6" d="M93.47,360.8c-.23,9.67-.46,19.33-.69,29"/>
      <path class="cls-6" d="M60.01,369.88c9.44,6.11,18.89,12.21,28.33,18.32"/>
      <path class="cls-6" d="M93.77,383.79l61.35,5.43"/>
    </g>
    <g>
      <path class="cls-2" d="M161.52,160.54l-74.35,3.22c-1.6,10.43-3.21,20.86-4.81,31.29-3.98,25.88,2.18,52.04,7.82,77.61-9.43,23.34-19.25,46.87-28.68,70.21,10.12,4.51,20.33,8.72,30.61,12.85.05,1.91-.41,3.48-.36,5.39,19.46-.22,39-.56,58.46-.78-1.55-19.14-2.65-38.5-4.2-57.64,7.93-9.67,10.74-22.4,12.96-34.71,7.2-39.87,5.83-71.64,2.54-107.44Z"/>
      <path class="cls-7" d="M86.67,170.53c14.93-.33,29.86-.66,44.79-.99"/>
      <path class="cls-7" d="M96.62,170.49c-2.86,14.47-4.04,29.27-3.51,44.01.69,19.3,4.7,38.14,6.99,57.32.96-.67,2.61,0,3.2,1.01s.41,2.35-.25,3.32-1.71,1.61-2.81,2.02c-.31,27.39-1.38,54.71-1.69,82.11"/>
      <path class="cls-7" d="M92.19,355.95c-.58-27.56-1.16-55.12-1.74-82.68"/>
      <path class="cls-7" d="M135.95,207.67c2.67,22.45,5.34,44.9,8.01,67.35,1.11,9.38,1.55,18.86,2.16,28.28"/>
      <path class="cls-7" d="M118.08,169.97c.07,4.24.14,8.48.21,12.73"/>
      <path class="cls-7" d="M93.61,198.92c5.84-9.59,11.68-19.18,17.51-28.77"/>
    </g>
    <g>
      <path class="cls-14" d="M203.76,185.99c-2.51-6.28-6.42-12.05-10.96-17.05-5.39-5.93-12.29-10.86-19.61-14.11-13.71-6.09-27.24-12.05-40.95-18.14-3.02-5.06-6.04-10.12-9.06-15.17l-30.3,15.14c5.14,8.37,10.61,16.62,17.52,23.6,6.91,6.98,15.15,13.13,24.76,15.14,9.06,1.89,26.54,8.27,26.54,8.27,0,0,11.82,15.02,20.27,17.57,1.66.5,3.88-.5,4.22-2.2,1.3.61,2.92.49,4.12-.31,1.2-.8,2.26-2.07,2.19-3.51,1.39.32,2.93-.02,4.05-.9,1.12-.88,1.99-2.16,2.01-3.59,1.33.57,3,.26,4.03-.75,1.03-1.02,1.7-2.63,1.16-3.98Z"/>
      <path class="cls-6" d="M132.23,137l-3.06.36"/>
      <path class="cls-6" d="M196.58,187.91l1.76,2.43"/>
      <path class="cls-6" d="M190.37,192.61c.86.87,1.73,1.75,2.59,2.62"/>
      <path class="cls-6" d="M184.13,197.19c.59.55,1.19,1.1,1.78,1.66"/>
    </g>
    <g>
      <path class="cls-14" d="M132.39,80.23c.07-.76.21-1.39.27-2.16,2.09-.52,4-1.74,5.36-3.41,1.36-1.67,2.46-3.79,2.36-5.94-.15-3.23-.84-6.35-2.11-9.33-.61-1.43-1.69-2.66-3.03-3.45-1.34-.79-2.73-1.32-4.27-1.16.41.75-.04,1.72-.74,2.21s-1.57.63-2.4.82-1.7.48-2.22,1.16c-.45.58-.55,1.35-.65,2.08-.1.73-.21,1.5-.68,2.07-.46.57-1.66,1.1-2.2.6-.33.7-.67,1.4-1,2.09-.49-.92-1.11-1.85-1.59-2.77-2.03-.32-4.21.58-5.43,2.23s-1.43,4-.53,5.85c.91,1.85,2.89,3.12,4.95,3.17-.39,1.55-.77,3.11-1.16,4.65-.36,1.43.49,3.14,1.52,4.2,1.03,1.06,2.41,1.73,3.84,2.1,2,.52,4.19.46,6.08-.37,1.9-.83,3.44-2.6,3.62-4.66Z"/>
      <path class="cls-15" d="M129.03,65.96c0-.48-.39-.87-.86-.87s-.87.39-.87.87.39.86.87.86.86-.39.86-.86Z"/>
      <path class="cls-15" d="M139.03,64.88c0-.48-.39-.86-.87-.86s-.86.39-.86.86.39.87.86.87.87-.39.87-.87Z"/>
      <path class="cls-6" d="M116.06,66.1c.84.53,1.67,1.05,2.51,1.58"/>
      <path class="cls-6" d="M126.57,62.39c.27-.72.96-1.27,1.72-1.37.76-.1,1.57.25,2.02.87"/>
      <path class="cls-6" d="M135.9,59.49c.64-.15,1.27-.31,1.91-.46"/>
      <path class="cls-6" d="M134.05,64.79c.34.89.69,1.79,1.03,2.68-.38.06-1.08.1-1.46.17"/>
      <path class="cls-6" d="M129.98,68.68c-.09.59.27,1.22.82,1.45s1.25.01,1.59-.48"/>
      <path class="cls-6" d="M125.1,77.61c2.48,1.2,5.39,1.47,8.04.73"/>
      <path class="cls-6" d="M118.07,74.43c.51-.03,1.02-.06,1.53-.1"/>
      <path class="cls-8" d="M131.15,54.65c.45.9.32,2.05-.32,2.83-.65.8-1.7,1.14-2.69,1.44"/>
    </g>
    <g>
      <g>
        <path class="cls-4" d="M175.79,198.92c1.08-2.65,2.16-5.3,3.23-7.95.26-.64.52-1.3.5-1.99-.02-.69-.53-1.45-1.2-1.64-1.48,1.28-2.98,2.54-4.45,3.82l2.48-7.66c.23-.71.46-1.46.33-2.19-.14-.73-.79-1.42-1.53-1.35-2.02,2.23-4.21,4.39-6.23,6.62.51-2.38,1.02-4.76,1.53-7.14.2-.93.4-1.9.15-2.82-.25-.92-1.11-1.59-2.05-1.49-1.45,1.99-2.91,3.97-4.36,5.96.18-1.99.37-3.99.55-5.98.07-.81.14-1.65-.17-2.4s-1.23-1.17-2-.93c-1.92,3.87-3.84,7.75-5.75,11.62.09,1.08.59,2.03,1.44,2.7.85.67,1.97.98,3.04.83.02,1.29.89,2.41,1.99,3.09,1.09.69,2.53.79,3.72.29-.2,1.29.31,2.54,1.3,3.4.99.86,2.43,1.16,3.68.78-.49,1.08-.16,2.39.6,3.31.76.91,2.07,1.38,3.22,1.1Z"/>
        <path class="cls-6" d="M161.08,186.82c.95-1.96,1.89-3.93,2.84-5.89"/>
        <path class="cls-6" d="M166.71,190.34c.76-1.44,1.53-2.88,2.29-4.33"/>
        <path class="cls-6" d="M171.4,194.79c.86-1.27,1.72-2.53,2.57-3.8"/>
      </g>
      <g>
        <path class="cls-4" d="M176.99,152.51c-1.39,4.75-2.78,9.5-4.17,14.25.37.57,1.52.56,2.16.31s1.12-.76,1.58-1.26c2.45-2.63,4.89-5.26,7.34-7.89l-6.91-5.43Z"/>
        <path class="cls-6" d="M182.21,159.8c.38-.42.76-.85,1.14-1.27"/>
      </g>
    </g>
  </g>
  <g>
    <path class="cls-12" d="M67.57,112.11c0-.6-.48-1.08-1.08-1.08s-1.08.48-1.08,1.08.48,1.08,1.08,1.08,1.08-.48,1.08-1.08Z"/>
    <circle class="cls-12" cx="371.53" cy="54.29" r="1.08"/>
    <circle class="cls-12" cx="399.64" cy="168.98" r="1.08"/>
    <circle class="cls-13" cx="412.9" cy="135.97" r="1.08"/>
    <path class="cls-13" d="M430.08,99.05c0-.6-.48-1.08-1.08-1.08s-1.08.48-1.08,1.08.48,1.08,1.08,1.08,1.08-.48,1.08-1.08Z"/>
    <circle class="cls-12" cx="77" cy="53.21" r="1.08"/>
    <circle class="cls-12" cx="350.88" cy="45.41" r="1.08"/>
    <circle class="cls-13" cx="84.18" cy="60.11" r="1.08"/>
    <circle class="cls-12" cx="33.47" cy="163.24" r="1.08"/>
    <circle class="cls-13" cx="1.08" cy="188.53" r="1.08"/>
    <rect class="cls-6" x="27.52" y="125.88" width="4.86" height="4.86"/>
    <rect class="cls-12" x="420.55" y="77.47" width="4.86" height="4.86"/>
    <rect class="cls-6" x="414.42" y="205.16" width="4.86" height="4.86"/>
    <rect class="cls-13" x="121.42" width="4.86" height="4.86"/>
    <rect class="cls-12" x="62.97" y="231.8" width="4.86" height="4.86"/>
    <line class="cls-6" x1="64.3" y1="175.76" x2="60.41" y2="179.65"/>
    <line class="cls-6" x1="106.42" y1="7.08" x2="102.53" y2="10.97"/>
    <line class="cls-6" x1="432" y1="192.45" x2="428.11" y2="196.34"/>
    <line class="cls-6" x1="431.36" y1="57.92" x2="427.47" y2="61.81"/>
    <line class="cls-6" x1="395.01" y1="118.08" x2="398.9" y2="121.98"/>
    <line class="cls-6" x1="10.2" y1="54.02" x2="14.09" y2="57.91"/>
    <line class="cls-6" x1="355.07" y1="14.01" x2="358.96" y2="17.91"/>
  </g>
</svg>