<?xml version="1.0" encoding="UTF-8"?>
<svg xmlns="http://www.w3.org/2000/svg" xmlns:xlink="http://www.w3.org/1999/xlink" viewBox="0 0 750 500">
  <defs>
    <style>
      .cls-1 {
        stroke-dasharray: 3 3;
      }

      .cls-1, .cls-2, .cls-3, .cls-4, .cls-5, .cls-6, .cls-7, .cls-8, .cls-9, .cls-10, .cls-11, .cls-12, .cls-13, .cls-14, .cls-15, .cls-16, .cls-17, .cls-18, .cls-19, .cls-20, .cls-21, .cls-22 {
        fill: none;
      }

      .cls-1, .cls-23, .cls-24, .cls-19 {
        stroke: #b6c8ef;
      }

      .cls-1, .cls-4, .cls-9, .cls-24, .cls-19, .cls-20 {
        stroke-linecap: round;
      }

      .cls-1, .cls-4, .cls-24, .cls-16, .cls-19, .cls-20, .cls-21 {
        stroke-linejoin: round;
      }

      .cls-25 {
        fill: #86ada8;
      }

      .cls-2 {
        stroke: #1340bf;
      }

      .cls-2, .cls-23, .cls-3, .cls-5, .cls-6, .cls-7, .cls-8, .cls-9, .cls-10, .cls-11, .cls-12, .cls-13, .cls-14, .cls-15, .cls-17, .cls-18, .cls-22 {
        stroke-miterlimit: 10;
      }

      .cls-2, .cls-3, .cls-5, .cls-6, .cls-8, .cls-11, .cls-12, .cls-14, .cls-15, .cls-17, .cls-18, .cls-22 {
        stroke-width: .75px;
      }

      .cls-23, .cls-26, .cls-24 {
        fill: #fff;
      }

      .cls-3 {
        stroke: #c45f47;
      }

      .cls-27 {
        fill: #00276f;
      }

      .cls-4 {
        stroke: #91afe5;
      }

      .cls-28 {
        fill: #28364c;
      }

      .cls-29 {
        fill: #4868ef;
      }

      .cls-30 {
        mix-blend-mode: multiply;
      }

      .cls-30, .cls-31 {
        opacity: .55;
      }

      .cls-32, .cls-33 {
        fill: #b7c2ce;
      }

      .cls-34 {
        fill: #bcddcb;
      }

      .cls-5 {
        stroke: #8ebca1;
      }

      .cls-35 {
        fill: #2b88f7;
      }

      .cls-36 {
        fill: #ffcbbb;
      }

      .cls-37 {
        fill: #ffefab;
      }

      .cls-6 {
        stroke: #dd5e17;
      }

      .cls-7 {
        stroke: #e2690e;
      }

      .cls-8 {
        stroke: #846a6a;
      }

      .cls-38 {
        fill: url(#linear-gradient);
      }

      .cls-39 {
        fill: #011e3b;
      }

      .cls-40 {
        fill: #f9a895;
      }

      .cls-41 {
        fill: #a5e1f3;
      }

      .cls-42 {
        fill: #8ebca1;
      }

      .cls-43 {
        fill: #ff8d27;
      }

      .cls-9 {
        stroke: #4a1a1a;
      }

      .cls-9, .cls-16, .cls-20, .cls-21 {
        stroke-width: .5px;
      }

      .cls-44 {
        isolation: isolate;
      }

      .cls-45 {
        fill: #84d274;
      }

      .cls-10 {
        stroke: #114093;
      }

      .cls-11 {
        stroke: #752d21;
      }

      .cls-46 {
        fill: #223082;
      }

      .cls-47 {
        fill: #ffcd5c;
      }

      .cls-48 {
        fill: #ff855a;
      }

      .cls-49 {
        fill: #752d21;
      }

      .cls-50 {
        fill: #030b11;
      }

      .cls-12 {
        stroke: #2a36c6;
      }

      .cls-51 {
        fill: #af5743;
      }

      .cls-52 {
        fill: #9fbdfd;
      }

      .cls-13, .cls-21 {
        stroke: #f7a794;
      }

      .cls-14 {
        stroke: #1d2ea8;
      }

      .cls-53 {
        fill: #173789;
      }

      .cls-15 {
        stroke: #273b7a;
      }

      .cls-54 {
        fill: #4a1a1a;
      }

      .cls-55 {
        fill: #3f6d54;
      }

      .cls-56 {
        fill: #ffb548;
      }

      .cls-57 {
        fill: #4aa937;
      }

      .cls-16 {
        stroke: #9fbdfd;
      }

      .cls-58 {
        fill: #e3f1fc;
      }

      .cls-33, .cls-59 {
        opacity: .45;
      }

      .cls-60 {
        fill: #e3edff;
      }

      .cls-17 {
        stroke: #ed841b;
      }

      .cls-61 {
        fill: #f49c84;
      }

      .cls-62 {
        fill: #7d97d3;
      }

      .cls-63 {
        fill: #1a53e2;
      }

      .cls-64 {
        fill: #cfdae5;
      }

      .cls-65 {
        fill: #91a9d8;
      }

      .cls-66 {
        fill: #fe9;
      }

      .cls-18 {
        stroke: #121e3a;
      }

      .cls-20 {
        stroke: #00276f;
      }

      .cls-67 {
        fill: #f9bbaf;
      }

      .cls-68 {
        fill: #c7d2ef;
      }

      .cls-69 {
        fill: #f2f5f9;
      }

      .cls-70 {
        fill: #51b93c;
      }

      .cls-71 {
        fill: #475577;
      }

      .cls-72 {
        fill: #e8eaef;
      }

      .cls-22 {
        stroke: #0d1735;
      }
    </style>
    <linearGradient id="linear-gradient" x1="438.45" y1="289.12" x2="438.45" y2="270.4" gradientUnits="userSpaceOnUse">
      <stop offset="0" stop-color="#fff" stop-opacity=".1"/>
      <stop offset="1" stop-color="#fff" stop-opacity=".4"/>
    </linearGradient>
  </defs>
  <g class="cls-44">
    <g id="BACKGROUND">
      <rect class="cls-26" width="750" height="500"/>
    </g>
    <g id="OBJECTS">
      <g>
        <path class="cls-1" d="M478.09,199.22c-12.7,0-23-10.3-23-23h0c0-12.7,10.3-23,23-23h50.94c12.74,0,23.59-9.91,24.05-22.64.48-13.37-10.22-24.36-23.48-24.36H228.69c-13.35,0-24.17,10.82-24.17,24.17h0c0,13.35,10.82,24.17,24.17,24.17h44.14c12.48,0,23.11,9.71,23.56,22.18.47,13.1-10.01,23.86-23.01,23.86H98.75c-20.76,0-37.59,16.83-37.59,37.59h0c0,20.76,16.83,37.59,37.59,37.59h284.88l155.74-.43h107.34c21.02,0,38.07-17.04,38.07-38.07h0c0-21.02-17.04-38.07-38.07-38.07h-168.63Z"/>
        <g>
          <path class="cls-23" d="M250.2,111.17c-4.52-4.32-7.35-10.41-7.35-17.16,0-13.11,10.63-23.73,23.73-23.73s23.73,10.63,23.73,23.73-10.63,23.73-23.73,23.73c-4.25,0-8.24-1.12-11.69-3.08l.02.02-7.11,3.96,2.36-7.49.02.02Z"/>
          <g>
            <g>
              <polygon class="cls-52" points="278.14 103.75 255.36 103.48 252.81 87.11 280.34 87.06 278.14 103.75"/>
              <polygon class="cls-52" points="280.34 87.06 252.81 87.11 266.56 75.77 280.34 87.06"/>
              <rect class="cls-26" x="256.99" y="85.47" width="18.79" height="15.87" transform="translate(-.16 .47) rotate(-.1)"/>
              <polygon class="cls-58" points="252.81 87.11 252.84 105.01 266.59 96.66 252.81 87.11"/>
              <polygon class="cls-58" points="280.34 87.06 280.37 104.96 266.59 96.66 280.34 87.06"/>
              <polygon class="cls-58" points="280.37 104.96 252.84 105.01 266.59 93.66 280.37 104.96"/>
              <polyline class="cls-16" points="252.84 105.01 266.59 93.66 280.37 104.96"/>
              <line class="cls-16" x1="268.57" y1="95.29" x2="280.34" y2="87.06"/>
            </g>
            <line class="cls-16" x1="264.62" y1="95.29" x2="252.81" y2="87.11"/>
          </g>
          <line class="cls-24" x1="266.59" y1="55.5" x2="266.59" y2="63.84"/>
          <line class="cls-24" x1="228.32" y1="93.77" x2="236.66" y2="93.77"/>
          <line class="cls-24" x1="296.52" y1="93.77" x2="304.86" y2="93.77"/>
          <line class="cls-24" x1="245.43" y1="72.61" x2="239.53" y2="66.71"/>
          <line class="cls-24" x1="287.75" y1="72.61" x2="293.65" y2="66.71"/>
        </g>
        <g>
          <path class="cls-23" d="M455.59,138.93c6.6-6.31,10.73-15.2,10.73-25.05,0-19.14-15.52-34.65-34.65-34.65s-34.65,15.52-34.65,34.65,15.52,34.65,34.65,34.65c6.21,0,12.03-1.64,17.07-4.5l-.03.03,10.38,5.78-3.45-10.94-.03.03Z"/>
          <line class="cls-24" x1="431.67" y1="57.65" x2="431.67" y2="69.83"/>
          <line class="cls-24" x1="487.55" y1="113.53" x2="475.37" y2="113.53"/>
          <line class="cls-24" x1="387.96" y1="113.53" x2="375.78" y2="113.53"/>
          <line class="cls-24" x1="462.57" y1="82.63" x2="471.18" y2="74.02"/>
          <line class="cls-24" x1="400.76" y1="82.63" x2="392.15" y2="74.02"/>
          <g>
            <path class="cls-47" d="M414.57,107.41c0-9.44,7.65-17.1,17.1-17.1s17.1,7.65,17.1,17.1c0,3.76-1.22,7.24-3.28,10.07h0c-2.44,3.68-8.78,7.83-8.78,10.32v2.84c0,.57-.46,1.03-1.03,1.03h-8.02c-.57,0-1.03-.46-1.03-1.03v-2.84c0-2.49-6.34-6.64-8.78-10.32h0c-2.06-2.82-3.28-6.3-3.28-10.07Z"/>
            <path class="cls-26" d="M433.61,131.38c-.02-.43-.33-7.29.22-13.31-.67.08-1.39.12-2.16.12s-1.49-.04-2.16-.12c.55,6.01.24,12.88.22,13.31h-.3c0-.12.32-7.22-.24-13.35-5.07-.71-7.34-3.58-7.75-6.29-.24-1.58.3-3.16,1.29-3.75.6-.36,1.32-.43,2.09-.21,1.21.35,2.36,1.39,3.07,2.78.83,1.61,1.31,4.29,1.59,7.2.68.08,1.41.13,2.19.13s1.51-.04,2.19-.13c.28-2.91.77-5.58,1.59-7.2.71-1.4,1.86-2.44,3.07-2.78.77-.22,1.49-.15,2.09.21.98.59,1.52,2.17,1.29,3.75-.41,2.71-2.68,5.58-7.75,6.29-.56,6.13-.24,13.23-.24,13.33h-.3ZM439.37,107.96c-.24,0-.5.04-.76.11-1.13.32-2.21,1.31-2.88,2.63-.79,1.55-1.27,4.16-1.55,7.02,4.86-.7,7.03-3.44,7.42-6.02.22-1.44-.27-2.93-1.14-3.45-.32-.19-.69-.29-1.08-.29ZM423.96,107.96c-.39,0-.76.1-1.08.29-.87.52-1.36,2-1.14,3.45.39,2.59,2.56,5.32,7.42,6.02-.28-2.85-.75-5.47-1.55-7.02-.68-1.32-1.76-2.31-2.88-2.63-.26-.08-.52-.11-.76-.11Z"/>
            <path class="cls-66" d="M445.92,108.39c-.54,0-.98-.44-.98-.98,0-6.08-4.11-11.37-10-12.86-.53-.13-.84-.67-.71-1.19.13-.53.67-.84,1.19-.71,6.76,1.71,11.48,7.78,11.48,14.77,0,.54-.44.98-.98.98Z"/>
            <path class="cls-66" d="M431.34,93.13c0,.54.44.98.98.98s.98-.44.98-.98-.44-.98-.98-.98-.98.44-.98.98Z"/>
            <g class="cls-30">
              <path class="cls-47" d="M448.73,108.42c-.94,7.01-6.6,14.27-17.06,14.27s-15.91-7.6-17.06-14.27c.2,3.37,1.37,6.49,3.25,9.06h0c2.44,3.68,8.78,7.83,8.78,10.32v2.84c0,.57.46,1.03,1.03,1.03h8.02c.57,0,1.03-.46,1.03-1.03v-2.84c0-2.49,6.34-6.64,8.78-10.32h0c1.87-2.57,3.05-5.68,3.25-9.06Z"/>
            </g>
            <path class="cls-28" d="M437.11,129.01h-10.88v5.19c0,.85.24,1.68.69,2.39h0c.86,1.35,2.35,2.17,3.95,2.17h1.6c1.6,0,3.09-.82,3.95-2.17h0c.45-.72.69-1.54.69-2.39v-5.19Z"/>
            <path class="cls-71" d="M437.11,132.5s-.06,0-.09,0l-10.88-1.51c-.37-.05-.63-.39-.58-.77s.4-.63.77-.58l10.88,1.51c.37.05.63.39.58.77-.05.34-.34.59-.67.59Z"/>
            <path class="cls-71" d="M437.11,134.87s-.06,0-.09,0l-10.88-1.51c-.37-.05-.63-.39-.58-.77.05-.37.4-.63.77-.58l10.88,1.51c.37.05.63.39.58.77-.05.34-.34.59-.67.59Z"/>
            <path class="cls-71" d="M436.67,137.21s-.06,0-.09,0l-10.31-1.43c-.37-.05-.63-.39-.58-.77.05-.37.4-.63.77-.58l10.31,1.43c.37.05.63.39.58.77-.05.34-.34.59-.67.59Z"/>
          </g>
        </g>
        <g>
          <path class="cls-19" d="M564.33,176.19c0,1.81-1.47,3.27-3.27,3.27s-3.27-1.47-3.27-3.27,1.47-3.27,3.27-3.27,3.27,1.47,3.27,3.27Z"/>
          <path class="cls-19" d="M340.13,69.66c0,1.81-1.47,3.27-3.27,3.27s-3.27-1.47-3.27-3.27,1.47-3.27,3.27-3.27,3.27,1.47,3.27,3.27Z"/>
          <path class="cls-19" d="M376.24,143.09c0,1.81-1.47,3.27-3.27,3.27s-3.27-1.47-3.27-3.27,1.47-3.27,3.27-3.27,3.27,1.47,3.27,3.27Z"/>
          <path class="cls-19" d="M661.39,121.39c0,1.81-1.47,3.27-3.27,3.27s-3.27-1.47-3.27-3.27,1.47-3.27,3.27-3.27,3.27,1.47,3.27,3.27Z"/>
          <path class="cls-19" d="M109.94,177.54c0,1.81-1.47,3.27-3.27,3.27s-3.27-1.47-3.27-3.27,1.47-3.27,3.27-3.27,3.27,1.47,3.27,3.27Z"/>
          <path class="cls-19" d="M56.43,192.59l-8.15,2.18c-.69.18-.83,1.24-.25,1.8l5.87,5.66c.48.47,1.17.28,1.36-.36l2.27-7.83c.23-.78-.42-1.62-1.11-1.44Z"/>
          <path class="cls-19" d="M667.17,226.71l-6.84-4.94c-.58-.42-1.48.14-1.55.95l-.67,8.13c-.05.67.52,1.09,1.14.82l7.5-3.19c.75-.32.99-1.35.41-1.77Z"/>
          <line class="cls-19" x1="80.55" y1="244.85" x2="109.53" y2="244.85"/>
          <line class="cls-19" x1="410.54" y1="172.15" x2="436" y2="172.15"/>
          <line class="cls-19" x1="594.48" y1="212.29" x2="612.44" y2="212.29"/>
          <line class="cls-19" x1="616.76" y1="212.29" x2="625.74" y2="212.29"/>
          <line class="cls-19" x1="292.05" y1="143.09" x2="309.33" y2="143.09"/>
          <line class="cls-19" x1="305.86" y1="151.14" x2="319.42" y2="151.14"/>
          <line class="cls-19" x1="161.15" y1="118.17" x2="175.15" y2="118.17"/>
          <line class="cls-19" x1="172.23" y1="113.13" x2="181.18" y2="113.13"/>
          <line class="cls-19" x1="99.67" y1="251.68" x2="113.67" y2="251.68"/>
          <g>
            <line class="cls-19" x1="41.81" y1="247.78" x2="41.81" y2="253.5"/>
            <line class="cls-19" x1="44.67" y1="250.64" x2="38.95" y2="250.64"/>
            <line class="cls-19" x1="44.67" y1="250.64" x2="38.95" y2="250.64"/>
          </g>
          <g>
            <line class="cls-19" x1="137.92" y1="128.8" x2="137.92" y2="134.53"/>
            <line class="cls-19" x1="140.78" y1="131.66" x2="135.05" y2="131.66"/>
            <line class="cls-19" x1="140.78" y1="131.66" x2="135.05" y2="131.66"/>
          </g>
          <g>
            <line class="cls-19" x1="398.41" y1="194.66" x2="398.41" y2="200.39"/>
            <line class="cls-19" x1="401.27" y1="197.52" x2="395.55" y2="197.52"/>
            <line class="cls-19" x1="401.27" y1="197.52" x2="395.55" y2="197.52"/>
          </g>
          <g>
            <line class="cls-19" x1="529.32" y1="67.41" x2="529.32" y2="73.14"/>
            <line class="cls-19" x1="532.19" y1="70.28" x2="526.46" y2="70.28"/>
            <line class="cls-19" x1="532.19" y1="70.28" x2="526.46" y2="70.28"/>
          </g>
          <g>
            <line class="cls-19" x1="639.19" y1="184.77" x2="639.19" y2="190.5"/>
            <line class="cls-19" x1="642.06" y1="187.63" x2="636.33" y2="187.63"/>
            <line class="cls-19" x1="642.06" y1="187.63" x2="636.33" y2="187.63"/>
          </g>
          <g>
            <line class="cls-19" x1="702.28" y1="288.09" x2="702.28" y2="293.82"/>
            <line class="cls-19" x1="705.15" y1="290.95" x2="699.42" y2="290.95"/>
            <line class="cls-19" x1="705.15" y1="290.95" x2="699.42" y2="290.95"/>
          </g>
        </g>
        <path class="cls-58" d="M201.58,90.86s-.12,0-.14,0h-62.31c-9.8,0-12.83-.31-22.62-.03-.11-6.04,1.57-11.73,4.46-14.77,2.37-2.5,6.45-3.87,9.79-2.99,4.22,1.12,7.08,3.94,9.82,6.04.97-8.32,4.4-15.89,8.1-17.55,6.36-2.85,13,1.67,15.98,6.05,2.46,3.61,3.8,7.91,4.3,12.25,3.99-4.41,12.92-7.78,16.13-.78,1.26,2.75,1.16,5.9,1.03,8.92,5.23-1.41,11.07-.31,15.46,2.87Z"/>
        <path class="cls-58" d="M555.09,162.06c1.4-5.69,14.63-14,21.7-8.99.33-6.77,3.49-14.1,11.29-18.33,9.58-5.19,18.77,5.13,20.82,11.65,1.9-6.01,11.56-14.11,19.32-7.28,7.18,6.32,7.9,16.91,7.15,22.94h-80.28Z"/>
      </g>
      <g>
        <path class="cls-68" d="M521.98,354.37l17.88-117.28c.44-2.85,2.89-4.96,5.78-4.96h78.92l-20.12,129.53c-1.36,8.78-8.68,14.96-17.72,14.96h-118.59c-3.28,0-5.93-2.66-5.93-5.93h0c0-3.28,2.66-5.93,5.93-5.93h41.59c6.26,0,11.33-4.29,12.26-10.38Z"/>
        <path class="cls-60" d="M601.43,354.37l17.95-117.72c.4-2.65,2.61-4.52,5.34-4.52h.16c3.82,0,6.95,3.58,6.37,7.29l-18.99,122.24c-1.36,8.78-8.68,14.96-17.72,14.96h-86.01c-3.28,0-5.93-2.66-5.93-5.93h0c0-3.28,2.66-5.93,5.93-5.93h80.63c6.26,0,11.33-4.29,12.26-10.38Z"/>
        <g>
          <line class="cls-10" x1="544.6" y1="376.62" x2="544.6" y2="448.34"/>
          <g>
            <path class="cls-10" d="M582.01,454.24h0c0-3.26-2.64-5.89-5.89-5.89h-63.02c-3.26,0-5.89,2.64-5.89,5.89h0"/>
            <path class="cls-10" d="M551.05,454.24h0c0-3.26-2.64-5.89-5.89-5.89"/>
            <g>
              <path class="cls-60" d="M576.06,460.19c0,3.29,2.66,5.95,5.95,5.95s5.95-2.66,5.95-5.95-2.66-5.95-5.95-5.95-5.95,2.66-5.95,5.95Z"/>
              <g class="cls-59">
                <path class="cls-32" d="M579.82,460.19c0,1.21.98,2.19,2.19,2.19s2.19-.98,2.19-2.19-.98-2.19-2.19-2.19-2.19.98-2.19,2.19Z"/>
              </g>
            </g>
            <path class="cls-60" d="M545.1,460.19c0,3.29,2.66,5.95,5.95,5.95s5.95-2.66,5.95-5.95-2.66-5.95-5.95-5.95-5.95,2.66-5.95,5.95Z"/>
            <g class="cls-59">
              <path class="cls-32" d="M548.86,460.19c0,1.21.98,2.19,2.19,2.19s2.19-.98,2.19-2.19-.98-2.19-2.19-2.19-2.19.98-2.19,2.19Z"/>
            </g>
            <g>
              <path class="cls-60" d="M501.25,460.19c0,3.29,2.66,5.95,5.95,5.95s5.95-2.66,5.95-5.95-2.66-5.95-5.95-5.95-5.95,2.66-5.95,5.95Z"/>
              <g class="cls-59">
                <path class="cls-32" d="M505.01,460.19c0,1.21.98,2.19,2.19,2.19s2.19-.98,2.19-2.19-.98-2.19-2.19-2.19-2.19.98-2.19,2.19Z"/>
              </g>
            </g>
          </g>
        </g>
      </g>
      <path class="cls-68" d="M351.29,354.37l-17.88-117.28c-.44-2.85-2.89-4.96-5.78-4.96h-78.92l20.12,129.53c1.36,8.78,8.68,14.96,17.72,14.96h118.59c3.28,0,5.93-2.66,5.93-5.93h0c0-3.28-2.66-5.93-5.93-5.93h-41.59c-6.26,0-11.33-4.29-12.26-10.38Z"/>
      <path class="cls-60" d="M271.84,354.37l-17.95-117.72c-.4-2.65-2.61-4.52-5.34-4.52h-.16c-3.82,0-6.95,3.58-6.37,7.29l18.99,122.24c1.36,8.78,8.68,14.96,17.72,14.96h86.01c3.28,0,5.93-2.66,5.93-5.93h0c0-3.28-2.66-5.93-5.93-5.93h-80.63c-6.26,0-11.33-4.29-12.26-10.38Z"/>
      <line class="cls-10" x1="328.66" y1="376.62" x2="328.66" y2="448.34"/>
      <path class="cls-10" d="M291.26,454.24h0c0-3.26,2.64-5.89,5.89-5.89h63.02c3.26,0,5.89,2.64,5.89,5.89h0"/>
      <path class="cls-10" d="M322.22,454.24h0c0-3.26,2.64-5.89,5.89-5.89"/>
      <path class="cls-60" d="M297.21,460.19c0,3.29-2.66,5.95-5.95,5.95s-5.95-2.66-5.95-5.95,2.66-5.95,5.95-5.95,5.95,2.66,5.95,5.95Z"/>
      <path class="cls-33" d="M293.45,460.19c0,1.21-.98,2.19-2.19,2.19s-2.19-.98-2.19-2.19.98-2.19,2.19-2.19,2.19.98,2.19,2.19Z"/>
      <path class="cls-60" d="M328.17,460.19c0,3.29-2.66,5.95-5.95,5.95s-5.95-2.66-5.95-5.95,2.66-5.95,5.95-5.95,5.95,2.66,5.95,5.95Z"/>
      <path class="cls-33" d="M324.4,460.19c0,1.21-.98,2.19-2.19,2.19s-2.19-.98-2.19-2.19.98-2.19,2.19-2.19,2.19.98,2.19,2.19Z"/>
      <path class="cls-60" d="M372.02,460.19c0,3.29-2.66,5.95-5.95,5.95s-5.95-2.66-5.95-5.95,2.66-5.95,5.95-5.95,5.95,2.66,5.95,5.95Z"/>
      <path class="cls-33" d="M368.25,460.19c0,1.21-.98,2.19-2.19,2.19s-2.19-.98-2.19-2.19.98-2.19,2.19-2.19,2.19.98,2.19,2.19Z"/>
      <path class="cls-40" d="M390.46,418.5l2.74,33.13-.29,10.87,42.61-.22c1.04,0,1.88-.85,1.87-1.89h0c0-.78-.49-1.48-1.22-1.75l-18.38-8.45-1.06-34.53"/>
      <path class="cls-43" d="M439.26,461.82c-.44-1.36-1.24-2.9-2.04-3.24l-19.48-8.39c-10.74,4.35-24.64,1.03-24.64,1.03l-2.48,14.67c0,.49.4.88.88.87h47.44c.95,0,.34-4.89.33-4.93Z"/>
      <path class="cls-6" d="M421.95,451.02c-1.09,1.42-2.02,2.97-2.75,4.61"/>
      <path class="cls-6" d="M424.4,452.49c-1.13,1.57-1.58,2.47-2.26,3.92"/>
      <path class="cls-6" d="M426.48,453.56c-.77,1.03-1.52,2.46-2.12,3.6"/>
      <line class="cls-6" x1="390.86" y1="463.58" x2="439.46" y2="463.33"/>
      <path class="cls-6" d="M392.21,456.41s11.42.23,12.4,7.11"/>
      <path class="cls-6" d="M433.22,456.85s-3.15,4.47-3.77,6.54"/>
      <path class="cls-36" d="M370.26,418.5l.58,33.13-.29,10.87,42.61-.22c1.04,0,1.88-.85,1.87-1.89h0c0-.78-.49-1.48-1.22-1.75l-18.38-8.45,1.1-34.53"/>
      <path class="cls-56" d="M416.9,461.82c-.44-1.36-1.24-2.9-2.04-3.24l-19.48-8.39c-10.74,4.35-24.64,1.03-24.64,1.03l-2.48,14.67c0,.49.4.88.88.87h47.44c.95,0,.34-4.89.33-4.93Z"/>
      <path class="cls-17" d="M399.59,451.02c-1.09,1.42-2.02,2.97-2.75,4.61"/>
      <path class="cls-17" d="M402.05,452.49c-1.13,1.57-1.58,2.47-2.26,3.92"/>
      <path class="cls-17" d="M404.12,453.56c-.77,1.03-1.52,2.46-2.12,3.6"/>
      <line class="cls-17" x1="368.51" y1="463.58" x2="417.1" y2="463.33"/>
      <path class="cls-17" d="M369.85,456.41s11.42.23,12.4,7.11"/>
      <path class="cls-17" d="M410.87,456.85s-3.15,4.47-3.77,6.54"/>
      <path class="cls-63" d="M304.05,314.4s-7.6,29.3,2.87,43.79c4.61,6.38,12.51,6.56,20.13,6.56h44.98c3.78,0,6.94,2.9,7.26,6.66l6.08,71.04h36.5s-3.65-61.15-4.63-73.29c-.79-9.82-2.58-23.1-6.42-31.69-5.16-11.53-14.81-17.43-24.61-17.43h-16.89c-.86,0-1.56-.7-1.56-1.56v-3.67"/>
      <line class="cls-12" x1="385.82" y1="434.89" x2="421.38" y2="434.89"/>
      <path class="cls-29" d="M282.44,314.4s-7.6,29.3,2.87,43.79c4.61,6.38,12.51,6.56,20.13,6.56h44.98c3.78,0,6.94,2.9,7.26,6.66l6.08,71.04h36.5s-3.95-61.13-4.63-73.29c-.69-12.17-1.7-23.55-6.42-31.69-7.39-12.72-20.32-17.23-34.54-17.23h-26.87v-7.1"/>
      <path class="cls-14" d="M289.07,316.69s-4.71,26.51,2.66,35.17c3.98,4.68,11.32,4.91,16.88,4.91h48.84c3.63,0,6.65,2.79,6.94,6.41l6.27,79.28"/>
      <line class="cls-14" x1="363.1" y1="434.89" x2="399.76" y2="434.89"/>
      <path class="cls-14" d="M306.3,318.31c-3.61,8.27-18.36,7.63-18.36,7.63"/>
      <path class="cls-67" d="M317.56,196.6c-.03-.48-.62-.74-1.09-.67-.68.09-1.25.61-1.55,1.22-.31.61-.39,1.31-.41,1.99-.02.64.02,1.3.31,1.86.52,1,1.88,1.47,2.91,1.01"/>
      <path class="cls-36" d="M318.32,188.36s-3.96,15.1-1.78,18.2c3.26,4.64,11.01,5,14.28,2.85,2.74-1.8,4.99-11.42,4.99-13.92,0-6.78-13.92-10.7-17.48-7.14Z"/>
      <path class="cls-27" d="M318.22,193.85c-.12.28-.22.57-.3.86-.14.49.62.7.76.21.08-.29.15-.59.21-.89.08-.44-.49-.59-.66-.18h0Z"/>
      <path class="cls-20" d="M319.82,192.31s-1.02-1.41-2.53-.33"/>
      <path class="cls-27" d="M326.26,195.7c-.1.29-.19.58-.25.87-.11.49.65.71.76.21.08-.33.13-.66.17-.99.05-.41-.55-.43-.68-.09h0Z"/>
      <path class="cls-20" d="M325.91,193.06s1.66-.55,3.35,1.43"/>
      <path class="cls-36" d="M320.75,208.34l-1.34,11.42s.58,5,8.07,5,12.86-5.35,12.86-5.35l-2.61-19.58"/>
      <path class="cls-13" d="M321.19,210.24s5.2,1.02,8.78-.9c2.82-1.52,3.84-5.03,3.84-5.03"/>
      <path class="cls-21" d="M322.5,194.74s-2.5,3.49-2.25,4.3c.34,1.09,2.25.81,2.25.81"/>
      <path class="cls-39" d="M330.56,199.02c-.67,1.19-2.35,2.04-4.19,2.24-3.36.37-7.13-1.1-10.48-.74-.75.08-.8,3.54-.78,4.64.01,1.31.29,2.7.96,3.83.65,1.1,1.86,1.75,3.06,2.17,2.55.87,5.3.9,7.93.45,1.29-.22,2.4-.35,3.52-1.03,1.13-.69,2.16-1.44,3.02-2.46.97-1.15,1.73-2.55,3-3.4,1.49-1,3.09-.93,3.93-2.8.51-1.14.57-2.42.63-3.66.11-2.45.08-4.91-.06-7.38-.36-6.04-5.27-8.78-10.22-9.38-2.23-.27-5.47-.35-7.71-.43-1.81-.06-4.3-.8-5.96.11-2.9,1.59-1.9,6.63,1.03,7.56,3.21,1.01,8.19-.1,11.53.32,2.33.29,2.32,3.65,2.37,4.05.28,2.23-.57,4.14-1.57,5.91Z"/>
      <path class="cls-26" d="M323.27,203.77l-5.04-.6s-.83,3.63,2.21,3.87c2.81.23,2.83-3.27,2.83-3.27Z"/>
      <path class="cls-36" d="M336.01,197.36c.57.22,1.01.71,1.3,1.27,1.36,2.66-1.81,6.23-4.63,5.01-1.04-.45-.65-3.21,1.39-5.87.45-.59,1.37-.63,1.94-.42Z"/>
      <path class="cls-36" d="M378.96,253.17s4.19,21.92,7.28,29.3,20,6.68,20,6.68l-5.38,14.77s-28.14,2.69-34.12-7.2c-8.51-14.09-8.1-39.22-8.1-39.22"/>
      <path class="cls-36" d="M394.61,289.46s20.96-.82,21.43.12c.47.94-3.57,1.01-3.03,1.72.53.7,9.83.29,10.06,1.36.3,1.45-8.12,1.61-8.12,1.61,0,0,9.23.29,9.13,1.62-.07.94-7.13,1.05-9.82,1.43,2.97-.04,7.79.47,7.69,1.45-.09.97-4.9,1.14-8.57,1.47,2.31,0,6.52.25,6.47,1.16-.05.9-16.66,2.19-27.67,2.93"/>
      <path class="cls-45" d="M340.15,216.4c33.19,5.84,41.22,40.41,41.22,40.41l-23.61,7.72-13.15-33.65"/>
      <path class="cls-45" d="M341.69,216.4s18.81,6.64,23.48,28.31,4.91,48.91,2.52,72.69c-38.55,4.74-86.85,1.27-86.85,1.27,0,0-2.82-60.14,10.33-78.63,13.15-18.49,26.81-22.8,26.81-22.8l12.43,4.7,11.28-5.54Z"/>
      <path class="cls-65" d="M316.56,302.52h43.24v2.42h-45.66c0-1.34,1.08-2.42,2.42-2.42Z"/>
      <path class="cls-65" d="M412.49,304.94h-60.75l11.62-37.33c.6-1.91,2.37-3.22,4.37-3.22h54.93c1.22,0,2.09,1.18,1.73,2.35l-11.89,38.2Z"/>
      <path class="cls-68" d="M415.22,304.94h-60.75l11.62-37.33c.6-1.91,2.37-3.22,4.37-3.22h54.93c1.22,0,2.09,1.18,1.73,2.35l-11.89,38.2Z"/>
      <path class="cls-65" d="M397.3,285.27c-.36,1.74-2.47,3.15-4.72,3.15s-3.78-1.41-3.43-3.15c.36-1.74,2.47-3.15,4.72-3.15s3.78,1.41,3.43,3.15Z"/>
      <path class="cls-36" d="M305.24,260.89s-7.91,18.3-6.6,21.53c1.31,3.23,35.17,5.53,35.17,5.53l-1.07,16.69s-37.9.3-54.3.3c-20.82,0-1.52-50.3-1.52-50.3"/>
      <path class="cls-36" d="M323.21,287.12s25.15,1.36,25.61,2.54c.46,1.18-4.38.81-3.82,1.71.56.9,11.73,1.45,11.87,2.75.2,1.77-9.89,1.01-9.89,1.01,0,0,11.01,1.38,10.74,2.96-.19,1.12-8.64.45-11.9.61,3.55.29,9.26,1.43,9.04,2.59-.22,1.15-5.98.82-10.41.8,2.76.27,7.76,1.03,7.61,2.11-.16,1.08-20.17.76-33.41.4"/>
      <path class="cls-45" d="M318.64,217.88c-36.12-2.2-45.01,40.22-45.01,40.22l32.77,6.44,5.43-22.08"/>
      <path class="cls-26" d="M320.02,214.58c4.1,4.1,10.38,7.36,10.38,7.36-.04.11-2.06,4.04-4.21,7.75,0,0-8.25-6.53-11.24-11.88,0,0,3.87-2.71,5.07-3.23Z"/>
      <path class="cls-26" d="M330.4,221.94l4.95,7.09s4.55-2.55,7.94-12.11c0,0-1.84-2.48-3.75-3.54-2.25,2.99-9.15,8.57-9.15,8.57Z"/>
      <line class="cls-7" x1="305.44" y1="264.35" x2="311.8" y2="247.62"/>
      <path class="cls-7" d="M368.22,261.02c-1.75-12.11-6.6-22.76-6.6-22.76"/>
      <line class="cls-10" x1="491.25" y1="312.3" x2="491.25" y2="467.1"/>
      <line class="cls-10" x1="241.94" y1="312.3" x2="241.94" y2="467.1"/>
      <g class="cls-31">
        <path class="cls-38" d="M429.85,289.12s.6-.11.84-.45c.5-.7-.33-1.44-.87-1.79-.7-.44-1.65-.6-1.99-1.45-.38-.97.28-2.03,1.07-2.56.67-.44,1.46-.67,2.21-.95.84-.31,1.69-.82,2.18-1.61.61-.98.49-2.24.57-3.35.31-4.33,4.74-6.47,8.47-6.56,1.86-.04,4.71.62,5.95,2.07.41.49.73,1.06.85,1.69.18.98-.19,1.88-.83,2.61-.64.73-1.52,1.16-2.22,1.82-.72.68-.21,1.4-.37,2.21-.18.9-.79,1.29-1.57,1.72-1.65.92-3.6,1.15-5.4,1.65-.56.16-1.13.35-1.58.71-.59.47-.92,1.18-1.37,1.79-.81,1.11-2.04,1.9-3.39,2.17"/>
      </g>
      <path class="cls-72" d="M440.22,300.01h-3.53v-1.69h3.53c1.14,0,2.07-.93,2.07-2.07v-2.91c0-1.14-.93-2.06-2.07-2.06h-3.53v-1.69h3.53c2.07,0,3.75,1.68,3.75,3.75v2.91c0,2.07-1.68,3.75-3.75,3.75Z"/>
      <path class="cls-72" d="M425.07,287.22h14.26v11.11c0,3.38-2.74,6.12-6.12,6.12h-2.02c-3.38,0-6.12-2.74-6.12-6.12v-11.11h0Z"/>
      <path class="cls-64" d="M422.76,302.04s.14,3.35,5.35,3.35h8.18c5.21,0,5.35-3.35,5.35-3.35h-18.88Z"/>
      <rect class="cls-50" x="230.88" y="304.94" width="268.82" height="8.93"/>
      <path class="cls-62" d="M450.49,304.92l-2.94.02-13.01-38.88c-.3-.74.23-1.54,1.03-1.55h0c.77,0,1.47.46,1.76,1.17l13.16,39.23Z"/>
      <path class="cls-62" d="M497.28,302.52h-48.29v2.42h50.71c0-1.34-1.08-2.42-2.42-2.42Z"/>
      <path class="cls-61" d="M192.33,168.55l1.15,11.5s-.92,3.25-7.28,3.96c-7.71.85-11.05-5.02-11.05-5.02l1.56-10.68"/>
      <path class="cls-61" d="M196.63,154.32s4.54,14.41-1.9,18.2c-5.84,3.44-15.61-1.92-16.18-3.74-.57-1.82-3.16-17.34.56-18.5,6.61-2.07,15.59-2.16,17.52,4.04Z"/>
      <path class="cls-3" d="M192.74,173.98s-6.12,1.59-10.68-2.44"/>
      <path class="cls-53" d="M200.84,146.11c-.76-1.3-2.06-2.3-3.55-2.6-1.42-.28-3.01-.02-4.24-.79-.32-.2-.59-.46-.91-.67-1.02-.67-2.35-.74-3.52-.41s-2.22,1.01-3.18,1.76c-.7.55-1.4,1.15-2.25,1.44-1.55.53-3.25-.1-4.88.07-1.86.19-3.55,1.52-4.18,3.28-.64,1.8-.24,3.9-1.17,5.57-.48.87-1.29,1.55-1.63,2.48-.46,1.24.02,2.63.66,3.8.59,1.07,1.3,2.08,1.64,3.27.25.88.38,1.78.68,2.65.57,1.69,1.61,3.21,3.53,3.38.68.06,1.43.1,1.99-.3.55-.4.74-1.12.82-1.79.13-1.09.06-2.21-.21-3.28.66.36,1.28.96,2.02.85.24-.04.41-.23.58-.4,1.6-1.6-.22-4.18-.4-5.84-.21-1.83,1.51-3.63,3.34-3.5.8.05,1.57.41,2.37.34,1.56-.13,2.6-1.76,4.12-2.15,1.4-.36,2.88.04,4.29.07,2.44.05,4.65-2.15,4.75-4.59.03-.93-.22-1.83-.68-2.63Z"/>
      <path class="cls-61" d="M181.35,163.72c-.55-1.35-1.51-2.99-3.01-2.07-.53.33-.83,1.02-1.03,1.69-.69,2.24.92,5.69,3.11,5.37,1.07-.16,1.66-1.43,2.1-2.47"/>
      <path class="cls-3" d="M192.34,160.07s2.03,3.67,1.69,4.43c-.46,1.02-2.27.54-2.27.54"/>
      <path class="cls-26" d="M190.74,167.6l4.86-.59s.36,3.44-1.82,3.96c-2.68.64-3.03-3.38-3.03-3.38Z"/>
      <path class="cls-27" d="M195.36,159.29c.05.3.12.6.21.89.14.49.9.28.76-.21-.08-.29-.19-.58-.3-.86-.17-.41-.74-.26-.66.18h0Z"/>
      <path class="cls-20" d="M194.43,157.56s1.02-1.41,2.53-.33"/>
      <path class="cls-27" d="M187.32,161.05c.04.33.09.67.17.99.11.49.87.29.76-.21-.07-.3-.15-.59-.25-.87-.12-.34-.72-.32-.68.09h0Z"/>
      <path class="cls-20" d="M188.34,158.31s-1.66-.55-3.35,1.43"/>
      <path class="cls-61" d="M199.09,418.5l4.12,33.13-.29,10.87,42.61-.22c1.04,0,1.88-.85,1.87-1.89h0c0-.78-.49-1.48-1.22-1.75l-18.38-8.45-2.44-34.53"/>
      <path class="cls-35" d="M249.15,461.82c-.44-1.36-1.24-2.9-2.04-3.24l-19.48-8.39c-10.74,4.35-24.64,1.03-24.64,1.03l-2.48,14.67c0,.49.4.88.88.87h47.44c.95,0,.34-4.89.33-4.93Z"/>
      <path class="cls-2" d="M231.84,451.02c-1.09,1.42-2.02,2.97-2.75,4.61"/>
      <path class="cls-2" d="M234.29,452.49c-1.13,1.57-1.58,2.47-2.26,3.92"/>
      <path class="cls-2" d="M236.37,453.56c-.77,1.03-1.52,2.46-2.12,3.6"/>
      <line class="cls-2" x1="200.75" y1="463.58" x2="249.35" y2="463.33"/>
      <path class="cls-2" d="M202.1,456.41s11.42.23,12.4,7.11"/>
      <path class="cls-2" d="M243.11,456.85s-3.15,4.47-3.77,6.54"/>
      <path class="cls-46" d="M219.09,275.89c7.05,50.68,12.43,170.39,12.43,170.39h-38.75s-6.1-88.09-12.39-143.01c-10.47-20.52-14.68-34.65-12.81-43.26"/>
      <path class="cls-22" d="M197.77,446.29s-6.1-88.09-12.39-143.01"/>
      <path class="cls-61" d="M146.39,418.5l-2.42,33.13-.29,10.87,42.61-.22c1.04,0,1.88-.85,1.87-1.89h0c0-.78-.49-1.48-1.22-1.75l-18.38-8.45,4.1-34.53"/>
      <path class="cls-35" d="M189.92,461.82c-.44-1.36-1.24-2.9-2.04-3.24l-19.48-8.39c-10.74,4.35-24.64,1.03-24.64,1.03l-2.48,14.67c0,.49.4.88.88.87h47.44c.95,0,.34-4.89.33-4.93Z"/>
      <path class="cls-2" d="M172.61,451.02c-1.09,1.42-2.02,2.97-2.75,4.61"/>
      <path class="cls-2" d="M175.06,452.49c-1.13,1.57-1.58,2.47-2.26,3.92"/>
      <path class="cls-2" d="M177.13,453.56c-.77,1.03-1.52,2.46-2.12,3.6"/>
      <line class="cls-2" x1="141.52" y1="463.58" x2="190.12" y2="463.33"/>
      <path class="cls-2" d="M142.87,456.41s11.42.23,12.4,7.11"/>
      <path class="cls-2" d="M183.88,456.85s-3.15,4.47-3.77,6.54"/>
      <path class="cls-46" d="M144.23,271.2c-3.18,8.69-3.93,24.04-.47,38.75.23.99.34,2,.29,3.01-3.02,60.85-6.13,133.32-6.13,133.32h38.28s14.44-151.16,17.28-176.19"/>
      <path class="cls-22" d="M150.23,271.2c-3.18,8.69-3.93,24.04-.47,38.75.23.99.34,2,.29,3.01-3.02,60.85-6.13,133.32-6.13,133.32"/>
      <path class="cls-22" d="M185.27,352.15s5.84-59.32,7.64-73.41"/>
      <path class="cls-22" d="M147.86,298.19s10.76-2.19,16.35-13.17"/>
      <path class="cls-22" d="M191,295.8s3.75-.6,4.15-2c.4-1.4,2.4-13.69,2.4-13.69"/>
      <path class="cls-22" d="M209.71,282.42s2.54,12.08,11.65,12.53"/>
      <line class="cls-22" x1="138.23" y1="439.07" x2="176.89" y2="439.07"/>
      <line class="cls-22" x1="192.25" y1="439.07" x2="231.18" y2="439.07"/>
      <path class="cls-61" d="M228.49,207.94s8.59,13.17,11.77,13.52c5.05.55,29.59-17.98,29.59-17.98l12.47,14.31s-23.52,27.73-42.95,28.96c-15.28.97-33.58-23.26-33.58-23.26"/>
      <path class="cls-61" d="M262.11,209.12s21.11-16.39,22.17-16.06c1.06.33-1.85,3.44-.93,3.55.92.11,7.61-6.75,8.58-6.13,1.32.84-5.56,7.38-5.56,7.38,0,0,8-6.72,8.93-5.67.66.75-7.19,8.25-7.19,8.25,0,0,7.93-5.79,8.6-5,.66.78-6.34,7.45-6.34,7.45,0,0,5.5-4.83,6.39-4.02.89.81-10.81,15.77-20.97,25.89"/>
      <path class="cls-3" d="M281.85,197.52s-1.53,3.82-3.46,6.76"/>
      <path class="cls-3" d="M280.98,206.08c2.25-2.3,5.24-2.7,8.05-2.57"/>
      <path class="cls-57" d="M175.38,177.54s3.07,3.88,8.81,4.37c5.74.49,9.29-2.56,9.29-2.56,0,0,18.15,9.15,23.28,47.28s5.62,58.08,5.62,58.08h-81.12s-10.17-95.46,34.12-107.16Z"/>
      <path class="cls-57" d="M193.47,179.35c5.14,0,12.63,2.03,17.51,5.51,10.46,7.45,13.66,16.09,23.4,29.33l-23.49,16.58-17.42-51.42Z"/>
      <polygon class="cls-37" points="178.61 307.15 143.43 289.99 166.39 242.55 201.56 259.7 178.61 307.15"/>
      <path class="cls-53" d="M174.56,248.97h20.34c.45,0,.82.37.82.82v2.99h-21.99v-2.99c0-.45.37-.82.82-.82Z" transform="translate(128.69 -55.59) rotate(26)"/>
      <path class="cls-53" d="M187.71,244.76c-1.65-.8-3.58-.22-4.33,1.31-.74,1.53-.01,3.41,1.63,4.22,1.65.8,3.58.22,4.33-1.31.74-1.53.01-3.41-1.63-4.22ZM185.73,248.83c-.78-.38-1.13-1.27-.77-2,.35-.72,1.27-1,2.05-.62.78.38,1.13,1.27.77,2-.35.72-1.27,1-2.05.62Z"/>
      <path class="cls-61" d="M157.31,227.01s-6.9,15.28-7.35,19.57c-.45,4.29,27.33,17.2,27.33,17.2l-7.25,17.14s-44.44-10.9-48.51-24.26c-4.07-13.35,10.15-41.04,10.15-41.04"/>
      <path class="cls-61" d="M163.1,256.59s26.11,11.85,26.21,13.23c.09,1.38-4.83-.59-4.54.53.29,1.12,11.74,5.36,11.46,6.77-.37,1.9-9.72-2.2-9.72-2.2,0,0,10.1,5.05,9.3,6.61-.57,1.1-9.15-2.37-12.59-3.28,3.61,1.47,9.17,4.54,8.56,5.67-.61,1.12-6.5-1.11-11.11-2.59,2.79,1.19,7.75,3.63,7.23,4.7-.52,1.07-21.25-5.84-34.93-10.57"/>
      <path class="cls-57" d="M175.38,177.54c-11.61-.19-23.01,3.32-29.48,9.47-9.71,9.23-18.64,32.3-18.64,32.3l31,12,13.5-26.27"/>
      <line class="cls-15" x1="156.1" y1="230.77" x2="166.55" y2="212.67"/>
      <line class="cls-15" x1="159.05" y1="225.66" x2="129.19" y2="213.59"/>
      <path class="cls-15" d="M216.88,226.37c-1.34-10.68-4.26-24.36-4.26-24.36"/>
      <line class="cls-15" x1="216.14" y1="221.12" x2="231.52" y2="210.47"/>
      <path class="cls-25" d="M615.81,347.97c-2.87-.92-6.16-1.22-8.93-.07-1.53.64-2.8,1.68-4.13,2.6-2.42,1.67-5.63,3.05-8.47,2.02-2.6-.95-3.89-3.83-3.2-6.24s3.01-4.29,5.64-5.17c2.64-.88,5.55-.86,8.34-.5"/>
      <path class="cls-70" d="M630.65,373.22c-14.56.19-14.98-19.49-21-27.21-2.76-3.54-6.42-5.7-11.15-5.41,2.06-1.37,19.23-2.79,22.93-.87,4.14,2.15,6.29,4.78,8.23,8.59,2.21,4.35,10.26,20.5.99,24.9"/>
      <path class="cls-42" d="M602.79,340.02c28.57-.88,27.73,40.02,31.71,59.18.07.32.53.18.49-.13-1.05-7.36-2.08-14.74-3.32-22.07-1.17-6.91-2.56-13.94-5.3-20.42-4.21-9.98-12.17-17.61-23.58-16.87-.2.01-.21.32,0,.32h0Z"/>
      <path class="cls-70" d="M637.22,357.87c-5.41-2.05-8.43-7.93-9.44-13.63-1.82-10.3-3.17-20.72-5.96-30.82-2.99-10.81-8.24-20.05-13.92-29.62-2.51-4.23-5.05-10-1.67-13.57,1.34-1.41,3.33-2.03,5.27-2.19,6.78-.57,13.21,3.83,16.99,9.49,3.78,5.66,5.43,12.44,7.01,19.06,1.07,4.48,2.14,8.97,3.21,13.45,3.75,15.7,7.76,38.11-1.5,47.82"/>
      <path class="cls-25" d="M670.29,325.01c3.52-2.19,7.89-2.72,12-2.17s8.02,2.08,11.81,3.77c1.63.72,3.27,1.49,5.05,1.67,1.77.18,3.72-.34,4.79-1.76,1.25-1.66.92-4.13-.29-5.81-1.22-1.68-3.14-2.71-5.08-3.44-4.89-1.85-10.21-2.2-15.44-2.28"/>
      <path class="cls-42" d="M684.78,318.09c6.42-.7,11.86,2.89,14.25,8.79.09.21.42.13.35-.1-1.91-6.4-8.14-9.94-14.64-9.03-.19.03-.15.35.05.33h0Z"/>
      <path class="cls-5" d="M607.46,269.25c8.66,5.29,15.76,19.06,20.16,30.93,3.52,9.52,6,19.38,7.49,29.42,3.2,21.5,4.66,52.85,3.87,74.57"/>
      <path class="cls-70" d="M654.12,352.91c8.15-3.19,8.46-15.19,15.39-24.13,5.72-7.38,13.42-11.66,27-12.49-5.91-2.03-12.07-3.58-18.32-3.65-6.25-.07-12.65,1.4-17.78,4.97-7.37,5.12-18.94,28.8-6.29,35.3"/>
      <path class="cls-5" d="M689.05,314.1c-9.24-.71-18.42,3.16-24.97,9.59-10.1,9.92-9.96,25.24-10.9,38.36-1.22,17.04-2.3,34.09-3.22,51.15"/>
      <path class="cls-70" d="M650.31,334.26c-7.22-3.53-6.52-13.51-6.16-19.72.86-15.06,4.23-33.09,13.19-45.92,6.92-9.91,17.18-15.45,29.25-11.6,3.99,1.27,10.49,6.14,7.93,11.1-1.7,3.3-9.01,5.47-12,8.15-3.83,3.44-6.89,7.64-9.39,12.11-5.09,9.13-7.86,19.35-10.56,29.38-2.03,7.54-3.93,15.3-12.26,16.49"/>
      <path class="cls-25" d="M685.84,351.79c2.66-.75,7.39-1.09,10.15-.54,1.25.66,3.54,2.06,5.13,4.64,1.83,2.97,2.07,11.38-3.57,9.93-2.35-.6-3.43-3.22-4.84-5.2-1.76-2.47-4.49-4.22-7.46-4.79-2.97-.57-6.16.04-8.71,1.68"/>
      <path class="cls-42" d="M698.62,362.18c-.24-4.75-3.16-7.92-6.75-10.73-1.76-1.38-3.27-2.44-5.55-2.7-2.53-.29-5.25.01-7.72.61-.14.03-.1.24.03.24,4.57.16,8.31-1.14,12.31,1.88,3.67,2.77,6.94,5.85,7.26,10.71.02.26.42.27.41,0h0Z"/>
      <path class="cls-70" d="M697.8,352.37c-6.62-1.23-15.21,2.09-19.91,7.02-2.21,2.32-4.34,5.31-7.49,5.59-3.26.29-7.37.59-7.48-6.23-.09-5.18,3.04-6.51,5.79-8.33,2.75-1.81,6.07-2.46,9.33-2.71,3.82-.29,13.94-1.62,19.75,4.65"/>
      <path class="cls-42" d="M688.54,348.35c-10.63.07-19.48,6.97-24.08,16.27-3.86,7.81-5.18,16.81-6.15,25.38-1.02,9.04-1.73,18.32-1.52,27.42,0,.3.44.3.46,0,.92-13.25.89-26.52,3.61-39.59,1.47-7.04,3.74-13.9,8.4-19.5,4.88-5.86,11.58-9.45,19.26-9.64.22,0,.22-.34,0-.34h0Z"/>
      <path class="cls-42" d="M678.05,262.69c-7.04,3.83-11.85,11.11-15.48,18.04-3.98,7.57-6.65,15.77-8.57,24.09-4.36,18.94-6.08,38.76-6.86,58.14-.46,11.51-.62,23.12.2,34.62.02.22.34.22.34,0-.4-19.46-.32-38.77,1.6-58.17,1.78-18.02,3.95-36.83,11.27-53.58,3.76-8.59,9.14-18.28,17.57-23.02.08-.04,0-.16-.07-.12h0Z"/>
      <path class="cls-69" d="M678.18,395.11v15.31c0,33.9-12.65,55.72-12.65,55.72h-39.17s-12.65-21.82-12.65-55.72v-15.31h64.47Z"/>
      <path class="cls-25" d="M49.54,370.85c-1.75,1.56-3.54,3.17-4.64,5.24-1.1,2.07-1.4,4.74-.13,6.71.44.69,1.05,1.26,1.71,1.76,2.09,1.59,4.78,2.46,7.39,2.11,2.6-.35,5.06-2.01,6.12-4.41.62-1.41.75-2.98,1.16-4.46,1.23-4.45,5.47-8.08,10.09-7.96"/>
      <path class="cls-70" d="M87.61,386.11c-3.75,3.24-10.39,2.99-14.45.47-5.64-3.5-8.61-9.88-14.83-12.76-2.32-1.07-4.97-1.57-7.42-.87-2.49.72-4.51,2.59-6.8,3.84,4.69-10.66,17.3-15.06,22.27-15.04,9.25.04,18.23,6.22,21.94,15.12,1.27,3.04,1.73,7.12-.71,9.23Z"/>
      <path class="cls-25" d="M131.32,349.09c3.45-1.25,7.39-1.65,10.7-.09,1.84.87,3.36,2.28,4.96,3.53,2.9,2.27,6.76,4.14,10.16,2.73,3.12-1.29,4.66-5.19,3.84-8.46-.82-3.27-3.61-5.82-6.77-7-3.16-1.19-6.66-1.17-10-.68"/>
      <path class="cls-70" d="M104.95,358.95c-7.22-3.53-6.52-13.51-6.16-19.72.57-9.92.95-20.01,3.25-29.71,3.12-13.12,11.67-25.79,26.27-28.15,4.27-.69,8.77-.98,12.92.34,4.15,1.32,7.86,4.58,8.4,8.58.13.94.07,1.95-.46,2.75-.63.95-1.8,1.44-2.88,1.94-10.6,4.81-18.7,13.97-21.72,24.57-2.14,7.52-1.81,15.54-3.84,23.08-2.03,7.54-7.46,15.13-15.79,16.32"/>
      <path class="cls-70" d="M113.52,383.33c11.99.18,11.86-10.72,14.79-14.45,5.13-6.55,5.68-15.6,10.39-22.44,3.31-4.8,7.7-7.73,13.37-7.34-2.47-1.86-23.06-3.78-27.49-1.18-4.97,2.92-7.55,6.48-9.87,11.64-2.65,5.89-12.3,27.79-1.19,33.75"/>
      <path class="cls-34" d="M146.93,337.94c-27.65-1.95-32.53,35.65-35.26,55.38-1.16,8.37-2.21,16.75-3.31,25.13-.04.28.44.35.49.07,3.18-17.65,3.8-35.78,8.97-53.06,4.14-13.84,12.9-27.92,29.1-27.2.2,0,.2-.3,0-.32h0Z"/>
      <path class="cls-70" d="M88.93,355.08c-4.58-.37-8.23-4.19-10.11-8.38-4.36-9.69-3.53-20.82-9.69-29.82-3.2-4.67-7.56-8.44-11-12.93-4.88-6.35-7.27-15.37-3.53-22.8,5.64-11.2,17.59-6.12,24.85.41,10.04,9.04,18.33,22.22,20.63,35.08,1.51,8.44,3.85,29.6-11.14,38.45"/>
      <path class="cls-34" d="M62.36,284.91c6.58.34,11.84,8.2,14.71,13.34,4.01,7.18,5.94,15.8,7.57,23.8,3.68,18.16,4.61,36.97,5.5,55.45.51,10.7.79,21.4.97,32.11,0,.36.56.36.56,0,.05-20.39-.98-40.81-2.76-61.12-.81-9.23-1.88-18.45-3.78-27.52-1.7-8.1-3.76-16.75-8.02-23.93-2.99-5.03-8.21-12.35-14.73-12.54-.28,0-.27.41,0,.43h0Z"/>
      <path class="cls-25" d="M48.49,331.22c-4.44-.27-11.99.71-16.14,2.35-1.74,1.34-4.88,4.09-6.52,8.33s-.83,9.57,2.5,12.58c2.58,2.33,6.23,3.03,9.66,2.82,1.67-.1,3.38-.42,4.82-1.3,3.67-2.23,4.52-7.18,6.59-11.01,2.83-5.23,8.56-8.66,14.39-8.61"/>
      <path class="cls-55" d="M35.09,348.73c.19-4.65.79-9.41,3.92-13.08,3.92-4.59,9.23-5.77,14.96-6.24.17-.01.24-.28.04-.32-5.48-1.24-11.72,1.68-15.32,5.77-3.42,3.88-4.03,8.9-4.15,13.88,0,.35.53.35.55,0h0Z"/>
      <path class="cls-70" d="M32.35,333.56c8.12-1.51,16.76,1.81,22.53,7.86,2.72,2.85,5.32,6.52,9.19,6.87,4,.36,9.04.73,9.18-7.65.11-6.36-3.74-8-7.11-10.22-3.38-2.22-7.46-3.03-11.46-3.33-4.69-.35-16.07-.02-22.33,6.47"/>
      <path class="cls-42" d="M41.81,328.25c13.33.27,24.19,9.32,29.54,21.13,4.49,9.93,5.97,21.23,7.06,31.96,1.06,10.43,1.18,20.89,1.86,31.34.02.29.46.3.46,0,.2-9.96-.54-20.07-1.5-29.97-.66-6.73-1.54-13.46-3.01-20.06-1.99-8.92-5.18-17.46-11.46-24.28-6.01-6.52-14.03-10.41-22.95-10.46-.22,0-.22.34,0,.34h0Z"/>
      <path class="cls-42" d="M59.7,365.89c5.44-.61,10.95-.06,15.52,3.19,4.24,3.02,7.11,7.69,8.76,12.55,3.3,9.72,4.12,20.07,2.79,30.21-.03.2.31.25.36.05,2.23-10.42.74-22.97-3.53-32.76-1.87-4.3-4.78-8.28-8.75-10.86-4.54-2.95-9.95-3.34-15.18-2.57-.11.02-.08.2.03.19h0Z"/>
      <path class="cls-42" d="M132.69,287.39c-7.04,3.83-11.85,11.11-15.48,18.04-3.98,7.57-6.65,15.77-8.57,24.09-4.36,18.94-6.08,38.76-6.86,58.14-.46,11.51-.62,23.12.2,34.62.02.22.34.22.34,0-.4-19.46-.32-38.77,1.6-58.17,1.79-18.02,3.95-36.83,11.27-53.58,3.76-8.59,9.14-18.28,17.57-23.02.08-.04,0-.16-.07-.12h0Z"/>
      <path class="cls-69" d="M67.23,407.41v9.64c0,38.22,13.4,49.09,13.4,49.09h29.49s13.39-10.87,13.39-49.09v-9.64h-56.28Z"/>
      <line class="cls-4" x1="54.1" y1="467.1" x2="686.51" y2="467.1"/>
      <path class="cls-51" d="M495.62,178.19l1.37,8.74s.17,5.32,6.17,4.71c6.32-.64,11.48-6.9,11.48-6.9l-5.6-15.68"/>
      <path class="cls-51" d="M493.48,157c-3.79,4.18-9.07,21.11-1.88,23.98,6.58,2.63,15.83.09,18.3-9.82,2.59-10.41-6.45-25.16-16.41-14.17Z"/>
      <path class="cls-11" d="M496.45,182.24s5.57.54,9.86-3.75"/>
      <path class="cls-48" d="M509.1,170.04s0,0,0,0,0,0,0,0h0Z"/>
      <path class="cls-48" d="M509.06,170.01s-.04.06-.06.09c-.04.05.05.1.09.05.02-.03.04-.06.06-.09.04-.05-.05-.1-.09-.05h0Z"/>
      <path class="cls-11" d="M494.07,167.22s-2.36,3.3-2.12,4.07c.32,1.03,2.12.77,2.12.77"/>
      <path class="cls-54" d="M498.2,168.28c-.08.36.08.71.35.77.28.06.56-.18.65-.55.08-.36-.08-.71-.35-.77-.28-.06-.56.18-.64.55Z"/>
      <path class="cls-54" d="M490.58,165.71c-.08.36.08.71.35.77.28.06.56-.18.64-.55.08-.36-.08-.71-.35-.77-.28-.06-.56.18-.64.55Z"/>
      <path class="cls-26" d="M494.96,174.77l-4.62-1.29s-.58,3.29,1.5,3.94c2.55.79,3.12-2.64,3.12-2.64Z"/>
      <path class="cls-39" d="M506.69,172.9c-5.35-5.35-3.42-9.95-3.42-9.95,0,0-12.09-.37-16.47-4.75,0,0,3.18-9.71,11.67-6.07,4.83-2.5,12.49-.06,15.6,5.01,4.86,7.9-.05,16.74-2.95,18.36"/>
      <path class="cls-39" d="M509.84,156.09c-.8-1.4-.07-3.62.66-4.62,1.35-1.86,4.11-2.51,6.18-1.49,2.06,1.02,3.22,3.57,2.68,5.81-.53,2.24-2.67,3.98-4.97,4.1-.91.05-1.94-.22-2.37-1.01"/>
      <path class="cls-51" d="M504.35,170.1c0-.34.39-1.32,1.41-1.69,1.8-.65,2.9,1.71,2.69,3.59-.13,1.18-.52,2.1-1.28,3.01-1,1.2-2.32,1.46-3.04-.02"/>
      <path class="cls-9" d="M498.18,165.15c2.88-.19,3.42,2.69,3.42,2.69"/>
      <path class="cls-9" d="M490.5,163.42c1.58-.72,3.17.46,3.17.46"/>
      <path class="cls-51" d="M511.67,317.02l-12.71,134.58-9.81,11.04s33.62-1.41,34.72-2.53c1.11-1.13-.43-8.79-.43-8.79l22.6-135.64-34.38,1.34Z"/>
      <path class="cls-39" d="M518.43,460.04l6.08-5.03-.73-2.63-8.81,7.68-3.77.03-15.31-6.51-16.39,9.08c-1.66,1.05-.91,3.62,1.06,3.61l23.38-.14,6.17-4.33h1.76s.03,4.27.03,4.27l12.62-.09-.04-5.98-6.05.04Z"/>
      <path class="cls-51" d="M550.73,317.02l6.02,134.58-9.81,11.04s33.62-1.41,34.72-2.53c1.11-1.13-.43-8.79-.43-8.79l3.87-135.64-34.38,1.34Z"/>
      <path class="cls-39" d="M576.21,460.04l6.08-5.03-.73-2.63-8.81,7.68-3.77.03-15.31-6.51-16.39,9.08c-1.66,1.05-.91,3.62,1.06,3.61l23.38-.14,6.17-4.33h1.76s.03,4.27.03,4.27l12.62-.09-.04-5.98-6.05.04Z"/>
      <path class="cls-46" d="M564.33,249.53c4.53,3.16,9.07,7.27,13.44,14.24,14.07,22.4,10.28,76.7,10.28,76.7h-86.87s8.48-69.28,13.88-84.76"/>
      <path class="cls-18" d="M546.94,241.43s16.36,12.14,26.18,27.37c11.46,17.78,10.57,71.68,10.57,71.68"/>
      <path class="cls-18" d="M544.85,258.6c11.24,9.94,20.47,0,20.47,0"/>
      <path class="cls-51" d="M486.81,226.51s-20.26,25.19-31.68,22.22c-11.42-2.97-28.66-40.89-28.66-40.89l13.36-5.84s15.11,19.77,17.3,19.87c2.19.1,16.61-15.84,16.61-15.84"/>
      <path class="cls-51" d="M443.37,206.53s-11.44-16.72-12.3-16.72c-.87,0,.57,2.99-.14,2.86-.71-.13-4.08-6.8-4.95-6.57-1.17.31,2.05,6.25,2.05,6.25,0,0-.92-1.13-1.86-.57-.67.4-.12,2.2-.12,2.2,0,0-.99-.69-1.67-.25-.68.43-.15,1.98-.15,1.98,0,0-.92-1.29-1.7-.34-.73.9,2.28,9.83,7.46,19.74"/>
      <path class="cls-11" d="M431.67,194.15s.25,3.2.99,5.84"/>
      <path class="cls-49" d="M422.67,197.37c.49.74.99,1.47,1.54,2.17.27.35.55.69.86,1,.15.15.31.3.47.41.17.15.34.14.34.13.04-.04.06-.28.03-.47-.03-.2-.08-.41-.13-.62-.12-.42-.26-.83-.42-1.24-.31-.82-.68-1.63-1.04-2.42l.58-.28c.46.88.95,1.75,1.48,2.58.27.41.55.82.85,1.18.15.17.32.35.46.43.08.05.1.02.01.04-.09.07-.04.05-.04-.05.04-.36-.07-.88-.17-1.35-.11-.48-.24-.95-.38-1.43-.28-.95-.61-1.9-.95-2.82l.62-.26c.4.93.86,1.85,1.33,2.75.24.45.49.89.77,1.29.14.2.3.39.46.53.08.06.16.1.17.1-.02.01,0,.02.04-.09.08-.41-.02-.95-.1-1.43-.09-.5-.2-1-.32-1.49-.25-.99-.54-1.98-.83-2.96.41.95.76,1.91,1.09,2.89.16.49.32.98.44,1.49.1.52.25,1,.17,1.62-.02.14-.14.42-.42.45-.25.02-.4-.09-.53-.17-.24-.19-.41-.39-.58-.6-.33-.42-.61-.87-.87-1.31-.53-.9-.98-1.83-1.42-2.77l.62-.26c.37.94.71,1.89,1.01,2.86.15.48.29.97.41,1.47.11.51.24.99.17,1.63-.03.15-.05.4-.38.59-.32.13-.57,0-.7-.08-.29-.18-.46-.39-.63-.59-.34-.41-.62-.84-.89-1.27-.54-.87-1.01-1.75-1.47-2.66l.58-.28c.37.82.68,1.66.96,2.51.14.43.27.86.37,1.31.05.22.09.45.11.69,0,.24.08.49-.17.81-.15.15-.39.13-.51.09-.14-.05-.25-.12-.35-.2-.2-.15-.35-.32-.5-.49-.3-.35-.55-.71-.8-1.09-.49-.75-.94-1.52-1.35-2.31Z"/>
      <path class="cls-41" d="M497.15,185.5c-13.67,0-30.54,25.56-30.54,25.56l20.84,19.49,29.13-30.76"/>
      <path class="cls-41" d="M516.51,182.81s12.03-.55,19.77,4.82c14.37,9.98,28.05,61.9,28.05,61.9-14.42,15-50.35,20.75-50.35,20.75,0,0-11.18-20.25-19.58-28.65s-10.77-16.47-7.31-33.68l29.42-25.14Z"/>
      <path class="cls-26" d="M512.6,179.02l-9.44,10.94,5.84,6.29s4.14-7.06,7.51-13.43l-3.92-3.79Z"/>
      <path class="cls-26" d="M503.16,189.96l-5.52,6.21s-2.98-5.15-3.57-10.28l2.51-1.63,6.59,5.71Z"/>
      <path class="cls-8" d="M486.19,228.94c-1.76-7.5,1.26-20.54,1.26-20.54"/>
      <path class="cls-51" d="M537.71,228.16c-12.01,45.33-28.86,73.8-28.86,73.8l-14.63-6.43c14.82-46.57,18.84-73.47,18.84-73.47"/>
      <path class="cls-41" d="M514.49,201.99l-4.95,23.23,29.52,5.28s3.03-10.51,4.32-19.99"/>
      <line class="cls-8" x1="538.65" y1="230.55" x2="542.5" y2="215.09"/>
      <line class="cls-8" x1="509.54" y1="225.22" x2="512.7" y2="209.44"/>
      <path class="cls-51" d="M516.58,286.86s-7.23,17.81-10.27,17.81-29.72.17-37.43.17c.15-1.38,6.53-4.14,11.94-5.8,3.23-.99,13.4-3.51,13.4-3.51l5.67-18.59"/>
    </g>
  </g>
</svg>